<?xml version="1.0" encoding="UTF-8"?>
<svg id="Capa_1" xmlns="http://www.w3.org/2000/svg" version="1.1" xmlns:xlink="http://www.w3.org/1999/xlink" viewBox="0 0 2365.28 1372.6">
  <!-- Generator: Adobe Illustrator 29.8.1, SVG Export Plug-In . SVG Version: 2.1.1 Build 2)  -->
  <defs>
    <style>
      .st0 {
        stroke: url(#Degradado_sin_nombre_30);
        stroke-width: .32px;
      }

      .st0, .st1, .st2, .st3, .st4, .st5, .st6, .st7, .st8, .st9, .st10, .st11, .st12, .st13, .st14, .st15, .st16, .st17, .st18, .st19, .st20, .st21, .st22, .st23, .st24, .st25, .st26, .st27, .st28, .st29, .st30, .st31 {
        fill: none;
        stroke-miterlimit: 10;
      }

      .st1 {
        stroke: url(#Degradado_sin_nombre_20);
        stroke-width: .56px;
      }

      .st2 {
        stroke: url(#Degradado_sin_nombre_12);
        stroke-width: .76px;
      }

      .st3 {
        stroke: url(#Degradado_sin_nombre_14);
        stroke-width: .71px;
      }

      .st4 {
        stroke: url(#Degradado_sin_nombre_25);
        stroke-width: .44px;
      }

      .st5 {
        stroke: url(#Degradado_sin_nombre_19);
        stroke-width: .59px;
      }

      .st6 {
        stroke: url(#Degradado_sin_nombre_4);
        stroke-width: .95px;
      }

      .st7 {
        stroke: url(#Degradado_sin_nombre_6);
        stroke-width: .9px;
      }

      .st8 {
        stroke: url(#Degradado_sin_nombre_28);
        stroke-width: .37px;
      }

      .st9 {
        stroke: url(#Degradado_sin_nombre_11);
        stroke-width: .78px;
      }

      .st10 {
        stroke: url(#Degradado_sin_nombre_9);
        stroke-width: .83px;
      }

      .st11 {
        stroke: url(#Degradado_sin_nombre_16);
        stroke-width: .66px;
      }

      .st12 {
        stroke: url(#Degradado_sin_nombre_26);
        stroke-width: .42px;
      }

      .st13 {
        stroke: url(#Degradado_sin_nombre_18);
        stroke-width: .61px;
      }

      .st14 {
        stroke: url(#Degradado_sin_nombre_3);
        stroke-width: .98px;
      }

      .st15 {
        stroke: url(#Degradado_sin_nombre_24);
        stroke-width: .47px;
      }

      .st16 {
        stroke: url(#Degradado_sin_nombre_27);
        stroke-width: .4px;
      }

      .st17 {
        stroke: url(#Degradado_sin_nombre_10);
        stroke-width: .81px;
      }

      .st18 {
        stroke: url(#Degradado_sin_nombre_15);
        stroke-width: .69px;
      }

      .st19 {
        stroke: url(#Degradado_sin_nombre_58);
        stroke-width: .25px;
      }

      .st20 {
        stroke: url(#Degradado_sin_nombre_31);
        stroke-width: .3px;
      }

      .st21 {
        stroke: url(#Degradado_sin_nombre_13);
        stroke-width: .73px;
      }

      .st22 {
        stroke: url(#Degradado_sin_nombre_21);
        stroke-width: .54px;
      }

      .st23 {
        stroke: url(#Degradado_sin_nombre_22);
        stroke-width: .52px;
      }

      .st24 {
        stroke: url(#Degradado_sin_nombre_17);
        stroke-width: .64px;
      }

      .st25 {
        stroke: url(#Degradado_sin_nombre_8);
        stroke-width: .85px;
      }

      .st26 {
        stroke: url(#Degradado_sin_nombre_23);
        stroke-width: .49px;
      }

      .st27 {
        stroke: url(#Degradado_sin_nombre_32);
        stroke-width: .27px;
      }

      .st28 {
        stroke: #f0f0f0;
      }

      .st29 {
        stroke: url(#Degradado_sin_nombre_5);
        stroke-width: .93px;
      }

      .st30 {
        stroke: url(#Degradado_sin_nombre_29);
        stroke-width: .35px;
      }

      .st31 {
        stroke: url(#Degradado_sin_nombre_7);
        stroke-width: .88px;
      }
    </style>
    <linearGradient id="Degradado_sin_nombre_58" data-name="Degradado sin nombre 58" x1="156.23" y1="453.71" x2="2244.42" y2="453.71" gradientUnits="userSpaceOnUse">
      <stop offset="0" stop-color="#ff6b6b"/>
      <stop offset="1" stop-color="#000cff"/>
    </linearGradient>
    <linearGradient id="Degradado_sin_nombre_32" data-name="Degradado sin nombre 32" x1="156.52" y1="466.93" x2="2244.73" y2="466.93" gradientUnits="userSpaceOnUse">
      <stop offset="0" stop-color="#ff6f6f"/>
      <stop offset="1" stop-color="#0813ff"/>
    </linearGradient>
    <linearGradient id="Degradado_sin_nombre_31" data-name="Degradado sin nombre 31" x1="156.81" y1="480.14" x2="2245.04" y2="480.14" gradientUnits="userSpaceOnUse">
      <stop offset="0" stop-color="#fe7474"/>
      <stop offset="1" stop-color="#0f1bfe"/>
    </linearGradient>
    <linearGradient id="Degradado_sin_nombre_30" data-name="Degradado sin nombre 30" x1="157.1" y1="493.36" x2="2245.34" y2="493.36" gradientUnits="userSpaceOnUse">
      <stop offset="0" stop-color="#fe7878"/>
      <stop offset="1" stop-color="#1722fe"/>
    </linearGradient>
    <linearGradient id="Degradado_sin_nombre_29" data-name="Degradado sin nombre 29" x1="157.38" y1="506.57" x2="2245.65" y2="506.57" gradientUnits="userSpaceOnUse">
      <stop offset="0" stop-color="#fd7c7c"/>
      <stop offset="1" stop-color="#1f29fd"/>
    </linearGradient>
    <linearGradient id="Degradado_sin_nombre_28" data-name="Degradado sin nombre 28" x1="157.67" y1="519.79" x2="2245.96" y2="519.79" gradientUnits="userSpaceOnUse">
      <stop offset="0" stop-color="#fd8080"/>
      <stop offset="1" stop-color="#2731fd"/>
    </linearGradient>
    <linearGradient id="Degradado_sin_nombre_27" data-name="Degradado sin nombre 27" x1="157.96" y1="533.01" x2="2246.27" y2="533.01" gradientUnits="userSpaceOnUse">
      <stop offset="0" stop-color="#fc8585"/>
      <stop offset="1" stop-color="#2e38fc"/>
    </linearGradient>
    <linearGradient id="Degradado_sin_nombre_26" data-name="Degradado sin nombre 26" x1="158.25" y1="546.22" x2="2246.58" y2="546.22" gradientUnits="userSpaceOnUse">
      <stop offset="0" stop-color="#fc8989"/>
      <stop offset="1" stop-color="#363ffc"/>
    </linearGradient>
    <linearGradient id="Degradado_sin_nombre_25" data-name="Degradado sin nombre 25" x1="158.53" y1="559.44" x2="2246.89" y2="559.44" gradientUnits="userSpaceOnUse">
      <stop offset="0" stop-color="#fb8d8d"/>
      <stop offset="1" stop-color="#3e47fb"/>
    </linearGradient>
    <linearGradient id="Degradado_sin_nombre_24" data-name="Degradado sin nombre 24" x1="158.82" y1="572.66" x2="2247.2" y2="572.66" gradientUnits="userSpaceOnUse">
      <stop offset="0" stop-color="#fb9292"/>
      <stop offset="1" stop-color="#464efb"/>
    </linearGradient>
    <linearGradient id="Degradado_sin_nombre_23" data-name="Degradado sin nombre 23" x1="159.11" y1="585.87" x2="2247.5" y2="585.87" gradientUnits="userSpaceOnUse">
      <stop offset="0" stop-color="#fa9696"/>
      <stop offset="1" stop-color="#4d56fa"/>
    </linearGradient>
    <linearGradient id="Degradado_sin_nombre_22" data-name="Degradado sin nombre 22" x1="159.4" y1="599.09" x2="2247.81" y2="599.09" gradientUnits="userSpaceOnUse">
      <stop offset="0" stop-color="#fa9a9a"/>
      <stop offset="1" stop-color="#555dfa"/>
    </linearGradient>
    <linearGradient id="Degradado_sin_nombre_21" data-name="Degradado sin nombre 21" x1="159.69" y1="612.31" x2="2248.12" y2="612.31" gradientUnits="userSpaceOnUse">
      <stop offset="0" stop-color="#f99e9e"/>
      <stop offset="1" stop-color="#5d64f9"/>
    </linearGradient>
    <linearGradient id="Degradado_sin_nombre_20" data-name="Degradado sin nombre 20" x1="159.97" y1="625.52" x2="2248.43" y2="625.52" gradientUnits="userSpaceOnUse">
      <stop offset="0" stop-color="#f9a3a3"/>
      <stop offset="1" stop-color="#656cf9"/>
    </linearGradient>
    <linearGradient id="Degradado_sin_nombre_19" data-name="Degradado sin nombre 19" x1="160.26" y1="638.74" x2="2248.74" y2="638.74" gradientUnits="userSpaceOnUse">
      <stop offset="0" stop-color="#f8a7a7"/>
      <stop offset="1" stop-color="#6c73f8"/>
    </linearGradient>
    <linearGradient id="Degradado_sin_nombre_18" data-name="Degradado sin nombre 18" x1="160.55" y1="651.96" x2="2249.05" y2="651.96" gradientUnits="userSpaceOnUse">
      <stop offset="0" stop-color="#f8abab"/>
      <stop offset="1" stop-color="#747af8"/>
    </linearGradient>
    <linearGradient id="Degradado_sin_nombre_17" data-name="Degradado sin nombre 17" x1="160.84" y1="665.17" x2="2249.35" y2="665.17" gradientUnits="userSpaceOnUse">
      <stop offset="0" stop-color="#f7b0b0"/>
      <stop offset="1" stop-color="#7c82f7"/>
    </linearGradient>
    <linearGradient id="Degradado_sin_nombre_16" data-name="Degradado sin nombre 16" x1="161.12" y1="678.39" x2="2249.66" y2="678.39" gradientUnits="userSpaceOnUse">
      <stop offset="0" stop-color="#f7b4b4"/>
      <stop offset="1" stop-color="#8489f7"/>
    </linearGradient>
    <linearGradient id="Degradado_sin_nombre_15" data-name="Degradado sin nombre 15" x1="161.41" y1="691.6" x2="2249.97" y2="691.6" gradientUnits="userSpaceOnUse">
      <stop offset="0" stop-color="#f6b8b8"/>
      <stop offset="1" stop-color="#8b90f6"/>
    </linearGradient>
    <linearGradient id="Degradado_sin_nombre_14" data-name="Degradado sin nombre 14" x1="161.7" y1="704.82" x2="2250.28" y2="704.82" gradientUnits="userSpaceOnUse">
      <stop offset="0" stop-color="#f6bdbd"/>
      <stop offset="1" stop-color="#9398f6"/>
    </linearGradient>
    <linearGradient id="Degradado_sin_nombre_13" data-name="Degradado sin nombre 13" x1="161.99" y1="718.04" x2="2250.59" y2="718.04" gradientUnits="userSpaceOnUse">
      <stop offset="0" stop-color="#f5c1c1"/>
      <stop offset="1" stop-color="#9b9ff5"/>
    </linearGradient>
    <linearGradient id="Degradado_sin_nombre_12" data-name="Degradado sin nombre 12" x1="162.28" y1="731.25" x2="2250.9" y2="731.25" gradientUnits="userSpaceOnUse">
      <stop offset="0" stop-color="#f5c5c5"/>
      <stop offset="1" stop-color="#a3a6f5"/>
    </linearGradient>
    <linearGradient id="Degradado_sin_nombre_11" data-name="Degradado sin nombre 11" x1="162.56" y1="744.47" x2="2251.2" y2="744.47" gradientUnits="userSpaceOnUse">
      <stop offset="0" stop-color="#f4c9c9"/>
      <stop offset="1" stop-color="#aaaef4"/>
    </linearGradient>
    <linearGradient id="Degradado_sin_nombre_10" data-name="Degradado sin nombre 10" x1="162.85" y1="757.69" x2="2251.51" y2="757.69" gradientUnits="userSpaceOnUse">
      <stop offset="0" stop-color="#f4cece"/>
      <stop offset="1" stop-color="#b2b5f4"/>
    </linearGradient>
    <linearGradient id="Degradado_sin_nombre_9" data-name="Degradado sin nombre 9" x1="163.14" y1="770.9" x2="2251.82" y2="770.9" gradientUnits="userSpaceOnUse">
      <stop offset="0" stop-color="#f3d2d2"/>
      <stop offset="1" stop-color="#babdf3"/>
    </linearGradient>
    <linearGradient id="Degradado_sin_nombre_8" data-name="Degradado sin nombre 8" x1="163.43" y1="784.12" x2="2252.13" y2="784.12" gradientUnits="userSpaceOnUse">
      <stop offset="0" stop-color="#f3d6d6"/>
      <stop offset="1" stop-color="#c2c4f3"/>
    </linearGradient>
    <linearGradient id="Degradado_sin_nombre_7" data-name="Degradado sin nombre 7" x1="163.71" y1="797.34" x2="2252.44" y2="797.34" gradientUnits="userSpaceOnUse">
      <stop offset="0" stop-color="#f2dbdb"/>
      <stop offset="1" stop-color="#c9cbf2"/>
    </linearGradient>
    <linearGradient id="Degradado_sin_nombre_6" data-name="Degradado sin nombre 6" x1="164" y1="810.55" x2="2252.75" y2="810.55" gradientUnits="userSpaceOnUse">
      <stop offset="0" stop-color="#f2dfdf"/>
      <stop offset="1" stop-color="#d1d3f2"/>
    </linearGradient>
    <linearGradient id="Degradado_sin_nombre_5" data-name="Degradado sin nombre 5" x1="164.29" y1="823.77" x2="2253.06" y2="823.77" gradientUnits="userSpaceOnUse">
      <stop offset="0" stop-color="#f1e3e3"/>
      <stop offset="1" stop-color="#d9daf1"/>
    </linearGradient>
    <linearGradient id="Degradado_sin_nombre_4" data-name="Degradado sin nombre 4" x1="164.58" y1="836.99" x2="2253.36" y2="836.99" gradientUnits="userSpaceOnUse">
      <stop offset="0" stop-color="#f1e7e7"/>
      <stop offset="1" stop-color="#e1e1f1"/>
    </linearGradient>
    <linearGradient id="Degradado_sin_nombre_3" data-name="Degradado sin nombre 3" x1="164.87" y1="850.2" x2="2253.67" y2="850.2" gradientUnits="userSpaceOnUse">
      <stop offset="0" stop-color="#f0ecec"/>
      <stop offset="1" stop-color="#e8e9f0"/>
    </linearGradient>
  </defs>
  <path class="st19" d="M2244.15,861.62l.15-403.51c.02-59.65-72.54-89.05-114.04-46.2l-255.59,263.87L799.11,54.81c-26.01-15.01-58.85-10.7-80.09,10.53L156.32,627.53"/>
  <path class="st27" d="M2244.44,874.85l.15-403.51c.02-59.65-72.54-89.05-114.04-46.2l-255.59,263.87L799.41,68.03c-26.01-15.01-58.85-10.7-80.09,10.53L156.62,640.75"/>
  <path class="st20" d="M2244.74,888.07l.15-403.51c.02-59.65-72.54-89.05-114.04-46.2l-255.59,263.87L799.7,81.26c-26.01-15.01-58.85-10.7-80.09,10.53L156.91,653.98"/>
  <path class="st0" d="M2245.03,901.29l.15-403.51c.02-59.65-72.54-89.05-114.04-46.2l-255.59,263.87L800,94.48c-26.01-15.01-58.85-10.7-80.09,10.53L157.21,667.2"/>
  <path class="st30" d="M2245.33,914.51l.15-403.51c.02-59.65-72.54-89.05-114.04-46.2l-255.59,263.87L800.3,107.7c-26.01-15.01-58.85-10.7-80.09,10.53L157.51,680.42"/>
  <path class="st8" d="M2245.63,927.74l.15-403.51c.02-59.65-72.54-89.05-114.04-46.2l-255.59,263.87L800.59,120.92c-26.01-15.01-58.85-10.7-80.09,10.53L157.8,693.64"/>
  <path class="st16" d="M2245.92,940.96l.15-403.51c.02-59.65-72.54-89.05-114.04-46.2l-255.59,263.87L800.89,134.15c-26.01-15.01-58.85-10.7-80.09,10.53L158.1,706.87"/>
  <path class="st12" d="M2246.22,954.18l.15-403.51c.02-59.65-72.54-89.05-114.04-46.2l-255.59,263.87L801.18,147.37c-26.01-15.01-58.85-10.7-80.09,10.53L158.4,720.09"/>
  <path class="st4" d="M2246.52,967.4l.15-403.51c.02-59.65-72.54-89.05-114.04-46.2l-255.59,263.87L801.48,160.59c-26.01-15.01-58.85-10.7-80.09,10.53L158.69,733.31"/>
  <path class="st15" d="M2246.81,980.63l.15-403.51c.02-59.65-72.54-89.05-114.04-46.2l-255.59,263.87L801.78,173.81c-26.01-15.01-58.85-10.7-80.09,10.53L158.99,746.53"/>
  <path class="st26" d="M2247.11,993.85l.15-403.51c.02-59.65-72.54-89.05-114.04-46.2l-255.59,263.87L802.07,187.04c-26.01-15.01-58.85-10.7-80.09,10.53L159.28,759.76"/>
  <path class="st23" d="M2247.41,1007.07l.15-403.51c.02-59.65-72.54-89.05-114.04-46.2l-255.59,263.87L802.37,200.26c-26.01-15.01-58.85-10.7-80.09,10.53L159.58,772.98"/>
  <path class="st22" d="M2247.7,1020.29l.15-403.51c.02-59.65-72.54-89.05-114.04-46.2l-255.59,263.87L802.67,213.48c-26.01-15.01-58.85-10.7-80.09,10.53L159.88,786.2"/>
  <path class="st1" d="M2248,1033.52l.15-403.51c.02-59.65-72.54-89.05-114.04-46.2l-255.59,263.87L802.96,226.7c-26.01-15.01-58.85-10.7-80.09,10.53L160.17,799.42"/>
  <path class="st5" d="M2248.29,1046.74l.15-403.51c.02-59.65-72.54-89.05-114.04-46.2l-255.59,263.87L803.26,239.93c-26.01-15.01-58.85-10.7-80.09,10.53L160.47,812.65"/>
  <path class="st13" d="M2248.59,1059.96l.15-403.51c.02-59.65-72.54-89.05-114.04-46.2l-255.59,263.87L803.56,253.15c-26.01-15.01-58.85-10.7-80.09,10.53L160.77,825.87"/>
  <path class="st24" d="M2248.89,1073.18l.15-403.51c.02-59.65-72.54-89.05-114.04-46.2l-255.59,263.87L803.85,266.37c-26.01-15.01-58.85-10.7-80.09,10.53L161.06,839.09"/>
  <path class="st11" d="M2249.18,1086.41l.15-403.51c.02-59.65-72.54-89.05-114.04-46.2l-255.59,263.87L804.15,279.59c-26.01-15.01-58.85-10.7-80.09,10.53L161.36,852.31"/>
  <path class="st18" d="M2249.48,1099.63l.15-403.51c.02-59.65-72.54-89.05-114.04-46.2l-255.59,263.87L804.44,292.82c-26.01-15.01-58.85-10.7-80.09,10.53L161.65,865.54"/>
  <path class="st3" d="M2249.78,1112.85l.15-403.51c.02-59.65-72.54-89.05-114.04-46.2l-255.59,263.87L804.74,306.04c-26.01-15.01-58.85-10.7-80.09,10.53L161.95,878.76"/>
  <path class="st21" d="M2250.07,1126.07l.15-403.51c.02-59.65-72.54-89.05-114.04-46.2l-255.59,263.87L805.04,319.26c-26.01-15.01-58.85-10.7-80.09,10.53L162.25,891.98"/>
  <path class="st2" d="M2250.37,1139.3l.15-403.51c.02-59.65-72.54-89.05-114.04-46.2l-255.59,263.87L805.33,332.48c-26.01-15.01-58.85-10.7-80.09,10.53L162.54,905.2"/>
  <path class="st9" d="M2250.66,1152.52l.15-403.51c.02-59.65-72.54-89.05-114.04-46.2l-255.59,263.87L805.63,345.71c-26.01-15.01-58.85-10.7-80.09,10.53L162.84,918.43"/>
  <path class="st17" d="M2250.96,1165.74l.15-403.51c.02-59.65-72.54-89.05-114.04-46.2l-255.59,263.87L805.93,358.93c-26.01-15.01-58.85-10.7-80.09,10.53L163.14,931.65"/>
  <path class="st10" d="M2251.26,1178.96l.15-403.51c.02-59.65-72.54-89.05-114.04-46.2l-255.59,263.87L806.22,372.15c-26.01-15.01-58.85-10.7-80.09,10.53L163.43,944.87"/>
  <path class="st25" d="M2251.55,1192.19l.15-403.51c.02-59.65-72.54-89.05-114.04-46.2l-255.59,263.87L806.52,385.37c-26.01-15.01-58.85-10.7-80.09,10.53L163.73,958.09"/>
  <path class="st31" d="M2251.85,1205.41l.15-403.51c.02-59.65-72.54-89.05-114.04-46.2l-255.59,263.87L806.81,398.6c-26.01-15.01-58.85-10.7-80.09,10.53L164.03,971.32"/>
  <path class="st7" d="M2252.15,1218.63l.15-403.51c.02-59.65-72.54-89.05-114.04-46.2l-255.59,263.87L807.11,411.82c-26.01-15.01-58.85-10.7-80.09,10.53L164.32,984.54"/>
  <path class="st29" d="M2252.44,1231.85l.15-403.51c.02-59.65-72.54-89.05-114.04-46.2l-255.59,263.87L807.41,425.04c-26.01-15.01-58.85-10.7-80.09,10.53L164.62,997.76"/>
  <path class="st6" d="M2252.74,1245.08l.15-403.51c.02-59.65-72.54-89.05-114.04-46.2l-255.59,263.87L807.7,438.26c-26.01-15.01-58.85-10.7-80.09,10.53L164.91,1010.98"/>
  <path class="st14" d="M2253.04,1258.3l.15-403.51c.02-59.65-72.54-89.05-114.04-46.2l-255.59,263.87L808,451.49c-26.01-15.01-58.85-10.7-80.09,10.53L165.21,1024.21"/>
  <path class="st28" d="M2253.33,1271.52l.15-403.51c.02-59.65-72.54-89.05-114.04-46.2l-255.59,263.87L808.3,464.71c-26.01-15.01-58.85-10.7-80.09,10.53L165.51,1037.43"/>
</svg>