<?xml version="1.0" encoding="UTF-8"?>
<svg id="Capa_1" xmlns="http://www.w3.org/2000/svg" version="1.1" viewBox="0 0 1288.85 1145.87">
  <!-- Generator: Adobe Illustrator 29.8.1, SVG Export Plug-In . SVG Version: 2.1.1 Build 2)  -->
  <defs>
    <style>
      .st0 {
        stroke: #00c2ff;
        stroke-width: 2px;
      }

      .st0, .st1, .st2, .st3, .st4, .st5, .st6, .st7, .st8, .st9, .st10, .st11, .st12, .st13, .st14, .st15, .st16, .st17, .st18, .st19, .st20, .st21, .st22, .st23, .st24, .st25, .st26, .st27, .st28, .st29, .st30, .st31 {
        fill: none;
        stroke-miterlimit: 10;
      }

      .st1 {
        stroke: #464fff;
        stroke-width: .65px;
      }

      .st2 {
        stroke: #2389ff;
        stroke-width: 1.32px;
      }

      .st3 {
        stroke: #3867ff;
        stroke-width: .93px;
      }

      .st4 {
        stroke: #0faaff;
        stroke-width: 1.72px;
      }

      .st5 {
        stroke: #0cafff;
        stroke-width: 1.77px;
      }

      .st6 {
        stroke: #2f76ff;
        stroke-width: 1.1px;
      }

      .st7 {
        stroke: #356cff;
        stroke-width: .98px;
      }

      .st8 {
        stroke: #12a5ff;
        stroke-width: 1.66px;
      }

      .st9 {
        stroke: #09b4ff;
        stroke-width: 1.83px;
      }

      .st10 {
        stroke: #06b8ff;
        stroke-width: 1.89px;
      }

      .st11 {
        stroke: #3b63ff;
        stroke-width: .87px;
      }

      .st12 {
        stroke: #494bff;
        stroke-width: .59px;
      }

      .st13 {
        stroke: #3271ff;
        stroke-width: 1.04px;
      }

      .st14 {
        stroke: #1a97ff;
        stroke-width: 1.49px;
      }

      .st15 {
        stroke: #03bdff;
        stroke-width: 1.94px;
      }

      .st32 {
        opacity: .52;
      }

      .st16 {
        stroke: #297fff;
        stroke-width: 1.21px;
      }

      .st17 {
        stroke: #4c46ff;
        stroke-width: .53px;
      }

      .st18 {
        stroke: #5b2eff;
        stroke-width: .25px;
      }

      .st19 {
        stroke: #15a1ff;
        stroke-width: 1.6px;
      }

      .st20 {
        stroke: #1d92ff;
        stroke-width: 1.44px;
      }

      .st21 {
        stroke: #523cff;
        stroke-width: .42px;
      }

      .st22 {
        stroke: #2c7aff;
        stroke-width: 1.15px;
      }

      .st23 {
        stroke: #3e5eff;
        stroke-width: .81px;
      }

      .st24 {
        stroke: #4159ff;
        stroke-width: .76px;
      }

      .st25 {
        stroke: #2684ff;
        stroke-width: 1.27px;
      }

      .st26 {
        stroke: #4454ff;
        stroke-width: .7px;
      }

      .st27 {
        stroke: #5538ff;
        stroke-width: .36px;
      }

      .st28 {
        stroke: #208dff;
        stroke-width: 1.38px;
      }

      .st29 {
        stroke: #5833ff;
        stroke-width: .31px;
      }

      .st30 {
        stroke: #4f41ff;
        stroke-width: .48px;
      }

      .st31 {
        stroke: #179cff;
        stroke-width: 1.55px;
      }
    </style>
  </defs>
  <g class="st32">
    <path class="st18" d="M441.2,1056.98s0,0,0,0c-47.18,0-94.57-9.33-137.03-26.97-44.94-18.67-84.69-46.74-114.95-81.16l-82.82-94.21c-25.27-28.74-43.47-61.02-54.09-95.93-10.62-34.91-13.15-70.75-7.51-106.51l39.13-248.21c4.75-30.11,15.18-59.12,31-86.24,15.4-26.4,35.54-50.35,59.85-71.16,24.31-20.82,52.2-38,82.89-51.08,31.53-13.43,65.2-22.18,100.08-26.01l532.67-58.5c13.21-1.45,26.67-2.19,39.98-2.19,91.43,0,178.37,34.16,238.53,93.73,60.14,59.55,87.52,138.62,75.13,216.94l-36.55,231.08c-4.76,30.09-15.2,59.1-31.03,86.21-15.41,26.39-35.55,50.32-59.86,71.13-24.31,20.81-52.19,37.98-82.87,51.05-31.52,13.42-65.18,22.17-100.04,26l-210.43,23.11c-1.55,2.62-3.16,5.23-4.81,7.82-19.2,30-44.43,56.31-75.01,78.18-56.72,40.59-128.56,62.94-202.26,62.94Z"/>
    <path class="st29" d="M729.49,898.63c-1.52,2.63-3.11,5.25-4.77,7.83-3.37,5.24-7.06,10.28-10.83,15.22-17.28,22.67-40.72,43.57-65.12,61.02-54.89,39.28-131.22,61.66-202.54,61.66,0,0,0,0,0,0-39.31,0-82.61-6.27-119.05-19.03-5.88-2.06-11.77-3.67-17.48-6.04-27.36-11.37-52.87-23.82-75.48-41.33-13.1-10.14-26.2-21.26-37.45-34.06l-81.58-92.8c-24.45-27.82-43.17-60.5-53.58-94.24-2.81-9.1-5.04-18.29-6.67-27.52-4.42-25.14-4.54-51.95-.53-77.38l38.55-244.53c4.59-29.14,14.94-58.81,30.25-85.05,6.86-11.75,14.84-23.69,23.54-34.41,10.37-12.78,22.15-24.74,35.13-35.73,23.63-20.02,52.24-36.97,81.95-49.62,30.51-13,64.93-21.67,98.69-25.37l524.97-57.65c12.79-1.4,26.52-2.2,39.4-2.2,64.33,0,129.58,17.43,181.23,48.8,19.71,11.97,37.89,26.22,53.84,42.24,57.77,58.06,84.44,135.81,72.45,211.6l-35.63,225.25c-4.61,29.12-14.81,57.83-30.13,84.07-14.91,25.54-34.51,49.35-58.03,69.49-23.52,20.13-50.61,37.43-80.31,50.08-30.5,12.99-63.19,22.17-96.93,25.88l-203.88,23.84Z"/>
    <path class="st27" d="M735.71,889.21c-1.48,2.65-3.07,5.26-4.73,7.84-3.38,5.22-7.2,10.14-11,15-16.99,21.7-42.31,42.44-65.9,59.31-53.06,37.97-133.87,60.38-202.81,60.38,0,0,0,0,0,0-38,0-83.81-5.63-119.04-17.96-5.69-1.99-11.47-2.92-16.99-5.21-26.45-10.99-51.25-20.45-73.38-37.02-12.6-9.43-26.26-19.77-37.54-32.61l-80.35-91.4c-23.64-26.89-42.88-59.97-53.07-92.55-2.8-8.95-5.02-17.99-6.59-27.08-4.2-24.31-4.17-51.63-.29-76.21l37.97-240.85c4.44-28.17,14.7-58.49,29.5-83.86,6.63-11.36,14.51-23.62,22.87-34.02,10.12-12.6,21.79-24.36,34.61-35.09,22.96-19.22,52.29-35.93,81.01-48.16,29.49-12.56,64.67-21.15,97.3-24.74l517.27-56.81c12.36-1.36,26.37-2.2,38.82-2.2,62.19,0,128.6,16.79,178.72,46.78,19.47,11.65,37.41,25.77,52.88,41.57,55.4,56.56,81.35,133,69.76,206.27l-34.7,219.43c-4.45,28.15-14.42,56.56-29.23,81.92-14.42,24.69-33.46,48.38-56.2,67.84-22.74,19.46-49.04,36.89-77.74,49.11-29.48,12.56-61.2,22.18-93.82,25.76l-197.32,24.57Z"/>
    <path class="st21" d="M741.93,879.79c-1.45,2.66-3.02,5.28-4.69,7.85-3.38,5.2-7.33,10.01-11.16,14.77-16.67,20.73-43.9,41.31-66.67,57.6-51.24,36.66-136.53,59.09-203.09,59.09,0,0,0,0,0,0-36.69,0-85.02-4.98-119.03-16.89-5.49-1.92-11.16-2.17-16.49-4.39-25.54-10.61-49.62-17.09-71.27-32.7-12.11-8.73-26.32-18.29-37.64-31.16l-79.11-89.99c-22.82-25.96-42.59-59.45-52.56-90.86-2.79-8.79-5-17.7-6.51-26.64-3.98-23.48-3.79-51.3-.05-75.04l37.39-237.17c4.29-27.2,14.46-58.17,28.75-82.67,6.4-10.97,14.18-23.55,22.21-33.63,9.88-12.42,21.42-23.98,34.08-34.46,22.27-18.43,52.34-34.9,80.06-46.7,28.48-12.13,64.4-20.64,95.91-24.1l509.58-55.96c11.94-1.31,26.22-2.21,38.24-2.21,60.04,0,127.62,16.14,176.21,44.77,19.23,11.33,36.92,25.32,51.92,40.89,53.05,55.04,78.26,130.19,67.07,200.93l-33.78,213.6c-4.3,27.18-14.03,55.3-28.33,79.78-13.92,23.84-32.42,47.41-54.37,66.2-21.95,18.79-47.46,36.34-75.18,48.14-28.47,12.12-59.21,22.18-90.7,25.64l-190.77,25.3Z"/>
    <path class="st30" d="M748.15,870.38c-1.41,2.67-2.97,5.3-4.65,7.86-3.39,5.18-7.46,9.87-11.33,14.55-16.34,19.77-45.49,40.18-67.44,55.89-49.41,35.35-139.18,57.81-203.37,57.81,0,0,0,0,0,0-35.38,0-86.23-4.34-119.02-15.82-5.29-1.85-10.85-1.42-16-3.56-24.63-10.23-47.99-13.76-69.16-28.38-11.64-8.04-26.38-16.8-37.73-29.71l-77.88-88.59c-22.01-25.04-42.31-58.92-52.05-89.17-2.78-8.64-4.97-17.4-6.44-26.21-3.77-22.66-3.42-50.98.19-73.87l36.81-233.49c4.14-26.22,14.22-57.85,28-81.47,6.17-10.58,13.85-23.48,21.54-33.23,9.64-12.24,21.05-23.6,33.56-33.82,21.58-17.64,52.38-33.86,79.12-45.25,27.46-11.7,64.13-20.13,94.51-23.46l501.88-55.12c11.51-1.26,26.07-2.22,37.66-2.22,57.9,0,126.66,15.47,173.7,42.75,18.99,11.01,36.43,24.87,50.97,40.21,50.7,53.51,75.18,127.38,64.39,195.59l-32.86,207.77c-4.15,26.21-13.64,54.03-27.43,77.64-13.42,22.99-31.37,46.43-52.55,64.56-21.17,18.12-45.88,35.79-72.61,47.17-27.45,11.69-57.22,22.19-87.59,25.52l-184.22,26.03Z"/>
    <path class="st17" d="M754.37,860.96c-1.38,2.68-2.93,5.32-4.62,7.87-3.4,5.15-7.59,9.72-11.5,14.33-15.99,18.83-47.07,39.05-68.22,54.18-47.58,34.04-141.84,56.53-203.65,56.53,0,0,0,0,0,0-34.07,0-87.44-3.69-119.02-14.75-5.1-1.78-10.55-.67-15.5-2.73-23.71-9.85-46.35-10.44-67.05-24.07-11.18-7.36-26.44-15.31-37.83-28.26l-76.64-87.18c-21.19-24.11-42.04-58.39-51.54-87.48-2.77-8.49-4.95-17.11-6.36-25.77-3.56-21.83-3.05-50.65.43-72.69l36.23-229.81c3.98-25.25,13.98-57.54,27.25-80.28,5.94-10.18,13.52-23.41,20.87-32.84,9.4-12.06,20.68-23.21,33.04-33.19,20.89-16.86,52.43-32.82,78.17-43.79,26.44-11.26,63.87-19.61,93.12-22.83l494.19-54.27c11.08-1.22,25.92-2.22,37.08-2.22,55.76,0,125.7,14.8,171.19,40.74,18.76,10.69,35.94,24.42,50.01,39.54,48.36,51.96,72.09,124.57,61.7,190.26l-31.94,201.95c-3.99,25.24-13.25,52.76-26.53,75.5-12.93,22.14-30.33,45.46-50.72,62.91-20.39,17.45-44.31,35.25-70.04,46.2-26.43,11.26-55.23,22.2-84.48,25.41l-177.66,26.76Z"/>
    <path class="st12" d="M760.59,851.55c-1.34,2.7-2.88,5.34-4.58,7.89-3.4,5.13-7.72,9.58-11.67,14.1-15.62,17.89-48.66,37.92-68.99,52.47-45.75,32.73-144.49,55.24-203.93,55.24,0,0,0,0,0,0-32.76,0-88.64-3.05-119.01-13.68-4.9-1.72-10.24.08-15-1.9-22.8-9.47-44.72-7.15-64.94-19.75-10.74-6.69-26.5-13.82-37.92-26.81l-75.41-85.78c-20.38-23.18-41.77-57.86-51.03-85.8-2.76-8.33-4.93-16.81-6.29-25.33-3.35-21-2.67-50.33.67-71.52l35.65-226.13c3.83-24.28,13.74-57.22,26.5-79.09,5.71-9.79,13.18-23.34,20.21-32.45,9.17-11.88,20.31-22.83,32.52-32.55,20.19-16.08,52.48-31.79,77.23-42.33,25.43-10.83,63.6-19.1,91.73-22.19l486.49-53.43c10.66-1.17,25.77-2.23,36.51-2.23,53.61,0,124.76,14.11,168.69,38.72,18.52,10.38,35.44,23.96,49.05,38.86,46.03,50.39,69.01,121.76,59.01,184.92l-31.02,196.12c-3.84,24.27-12.86,51.5-25.63,73.36-12.43,21.28-29.29,44.49-48.89,61.27-19.6,16.78-42.73,34.7-67.48,45.24-25.42,10.82-53.24,22.2-81.36,25.29l-171.11,27.49Z"/>
    <path class="st1" d="M766.81,842.13c-1.31,2.71-2.84,5.35-4.54,7.9-3.41,5.11-7.84,9.43-11.84,13.88-15.23,16.97-50.25,36.79-69.77,50.76-43.92,31.42-147.15,53.96-204.2,53.96,0,0,0,0,0,0-31.45,0-89.85-2.41-119-12.61-4.71-1.65-9.94.83-14.51-1.07-21.89-9.1-43.09-3.89-62.84-15.44-10.32-6.03-26.57-12.33-38.02-25.36l-74.17-84.37c-19.56-22.25-41.5-57.33-50.52-84.11-2.76-8.18-4.9-16.51-6.21-24.89-3.14-20.17-2.3-50,.91-70.35l35.07-222.44c3.68-23.31,13.5-56.9,25.75-77.9,5.48-9.4,12.85-23.28,19.54-32.06,8.93-11.71,19.94-22.44,32-31.92,19.48-15.31,52.52-30.75,76.29-40.87,24.41-10.4,63.34-18.58,90.34-21.55l478.79-52.58c10.23-1.12,25.62-2.24,35.93-2.24,51.47,0,123.83,13.41,166.18,36.71,18.3,10.07,34.94,23.49,48.1,38.18,43.72,48.8,65.92,118.95,56.33,179.58l-30.1,190.3c-3.69,23.3-12.48,50.23-24.73,71.22-11.93,20.43-28.24,43.52-47.06,59.63-18.82,16.11-41.16,34.15-64.91,44.27-24.4,10.39-51.26,22.21-78.25,25.17l-164.55,28.22Z"/>
    <path class="st26" d="M773.03,832.71c-1.27,2.72-2.79,5.37-4.5,7.91-3.41,5.09-7.97,9.28-12.01,13.65-14.82,16.06-51.84,35.67-70.54,49.05-42.09,30.11-149.8,52.68-204.48,52.68,0,0,0,0,0,0-30.14,0-91.06-1.76-119-11.54-4.51-1.58-9.63,1.58-14.01-.24-20.98-8.72-43.59,2.55-60.73-11.12-10.72-3.58-26.63-10.85-38.11-23.91l-72.94-82.97c-18.75-21.33-41.25-56.8-50.01-82.42-2.75-8.03-4.88-16.21-6.13-24.46-2.94-19.34-1.93-49.67,1.15-69.17l34.49-218.76c3.52-22.34,13.27-56.58,25.01-76.7,5.26-9.01,12.51-23.21,18.88-31.66,8.69-11.53,19.56-22.06,31.47-31.28,18.77-14.54,52.57-29.72,75.34-39.42,23.39-9.96,63.07-18.07,88.95-20.91l471.1-51.74c9.8-1.08,25.47-2.25,35.35-2.25,49.32,0,122.9,12.69,163.67,34.69,18.07,9.75,34.43,23.02,47.14,37.51,41.42,47.2,62.83,116.14,53.64,174.25l-29.18,184.47c-3.53,22.33-12.09,48.96-23.83,69.08-11.43,19.58-27.2,42.55-45.23,57.98-18.03,15.44-39.58,33.6-62.35,43.3-23.38,9.96-49.27,22.21-75.14,25.05l-158,28.94Z"/>
    <path class="st24" d="M779.25,823.3c-1.24,2.73-2.74,5.39-4.46,7.92-3.42,5.06-8.09,9.12-12.18,13.43-14.39,15.16-53.42,34.54-71.31,47.34-40.26,28.8-152.46,51.39-204.76,51.39,0,0,0,0,0,0-28.83,0-92.27-1.12-118.99-10.47-4.31-1.51-9.33,2.33-13.52.59-20.07-8.34-42.23,6.27-58.62-6.81-10.36-2.67-26.69-9.36-38.21-22.46l-71.7-81.56c-17.93-20.4-41-56.27-49.5-80.73-2.74-7.88-4.86-15.92-6.06-24.02-2.74-18.51-1.55-49.35,1.39-68l33.91-215.08c3.37-21.37,13.03-56.26,24.26-75.51,5.03-8.62,12.17-23.15,18.21-31.27,8.46-11.36,19.19-21.67,30.95-30.65,18.06-13.78,52.62-28.68,74.4-37.96,22.37-9.53,62.8-17.56,87.56-20.28l463.4-50.89c9.38-1.03,25.32-2.25,34.77-2.25,47.18,0,122,11.95,161.16,32.68,17.85,9.45,33.93,22.55,46.19,36.83,39.13,45.57,59.75,113.33,50.96,168.91l-28.26,178.65c-3.38,21.36-11.7,47.7-22.93,66.94-10.94,18.73-26.16,41.57-43.41,56.34-17.25,14.77-38,33.06-59.78,42.33-22.37,9.52-47.28,22.22-72.02,24.94l-151.44,29.67Z"/>
    <path class="st23" d="M785.48,813.88c-1.21,2.74-2.7,5.41-4.42,7.93-3.42,5.04-8.21,8.97-12.35,13.2-13.94,14.28-55.01,33.41-72.09,45.63-38.43,27.49-155.11,50.11-205.04,50.11,0,0,0,0,0,0-27.52,0-93.47-.47-118.98-9.4-4.12-1.44-9.02,3.08-13.02,1.42-19.15-7.96-40.87,9.99-56.51-2.49-10-1.76-26.75-7.87-38.3-21.01l-70.47-80.16c-17.12-19.47-40.75-55.73-49-79.04-2.73-7.73-4.83-15.62-5.98-23.58-2.55-17.68-1.18-49.02,1.63-66.83l33.33-211.4c3.22-20.4,12.79-55.95,23.51-74.32,4.8-8.23,11.82-23.1,17.55-30.88,8.22-11.18,18.81-21.28,30.43-30.01,17.33-13.02,52.66-27.64,73.46-36.5,21.36-9.1,62.54-17.04,86.17-19.64l455.71-50.05c8.95-.98,25.17-2.26,34.19-2.26,45.03,0,121.1,11.2,158.65,30.67,17.63,9.14,33.41,22.07,45.23,36.15,36.86,43.91,56.66,110.52,48.27,163.57l-27.33,172.82c-3.22,20.39-11.31,46.43-22.03,64.79-10.44,17.88-25.11,40.6-41.58,54.7-16.47,14.09-36.43,32.51-57.21,41.36-21.35,9.09-45.29,22.22-68.91,24.82l-144.89,30.4Z"/>
    <path class="st11" d="M791.7,804.46c-1.17,2.76-2.65,5.42-4.38,7.94-3.43,5.02-8.32,8.81-12.51,12.98-13.47,13.41-56.6,32.28-72.86,43.92-36.6,26.18-157.77,48.83-205.32,48.83,0,0,0,0,0,0-26.21,0-94.68.17-118.97-8.34-3.92-1.37-8.72,3.83-12.53,2.24-18.24-7.58-39.5,13.71-54.4,1.82-9.64-.84-26.81-6.38-38.4-19.56l-69.23-78.75c-16.3-18.54-40.52-55.19-48.49-77.35-2.72-7.58-4.81-15.32-5.9-23.14-2.36-16.85-.81-48.7,1.86-65.65l32.75-207.72c3.06-19.43,12.55-55.63,22.76-73.12,4.57-7.83,11.48-23.04,16.88-30.49,7.99-11.01,18.43-20.89,29.91-29.38,16.6-12.28,52.71-26.61,72.51-35.04,20.34-8.66,62.27-16.53,84.77-19l448.01-49.2c8.53-.94,25.02-2.27,33.61-2.27,42.89,0,120.22,10.43,156.14,28.65,17.42,8.83,32.89,21.59,44.27,35.48,34.61,42.23,53.58,107.71,45.58,158.23l-26.41,167c-3.07,19.42-10.92,45.16-21.13,62.65-9.94,17.03-24.07,39.63-39.75,53.05-15.68,13.42-34.85,31.96-54.65,40.39-20.33,8.66-43.3,22.23-65.8,24.7l-138.33,31.13Z"/>
    <path class="st3" d="M797.92,795.05c-1.14,2.77-2.61,5.44-4.34,7.95-3.43,5-8.44,8.65-12.68,12.76-12.97,12.56-58.19,31.15-73.64,42.21-34.77,24.88-160.42,47.54-205.59,47.54,0,0,0,0,0,0-24.9,0-95.89.81-118.97-7.27-3.73-1.3-8.41,4.58-12.03,3.07-17.33-7.2-38.14,17.43-52.3,6.14-9.28.07-26.88-4.89-38.49-18.11l-68-77.35c-15.49-17.62-40.29-54.66-47.98-75.66-2.72-7.43-4.79-15.02-5.83-22.71-2.17-16.02-.44-48.37,2.1-64.48l32.17-204.04c2.91-18.45,12.31-55.31,22.01-71.93,4.34-7.44,11.13-22.99,16.22-30.1,7.75-10.84,18.05-20.5,29.39-28.74,15.87-11.54,52.76-25.57,71.57-33.59,19.32-8.23,62-16.02,83.38-18.36l440.31-48.36c8.1-.89,24.87-2.28,33.03-2.28,40.74,0,119.35,9.64,153.64,26.64,17.21,8.53,32.37,21.1,43.32,34.8,32.38,40.52,50.49,104.9,42.9,152.9l-25.49,161.17c-2.92,18.44-10.53,43.9-20.23,60.51-9.45,16.18-23.02,38.66-37.92,51.41-14.9,12.75-33.27,31.42-52.08,39.42-19.32,8.23-41.31,22.24-62.68,24.58l-131.78,31.86Z"/>
    <path class="st7" d="M804.14,785.63c-1.1,2.78-2.56,5.46-4.3,7.97-3.44,4.97-7.9,9.3-12.85,12.53-10.19,13.73-59.77,30.02-74.41,40.5-32.94,23.57-163.08,46.26-205.87,46.26,0,0,0,0,0,0-23.59,0-97.1,1.46-118.96-6.2-3.53-1.24-8.11,5.33-11.54,3.9-16.42-6.82-36.78,21.15-50.19,10.45-8.91.98-26.94-3.41-38.59-16.66l-66.76-75.94c-14.67-16.69-40.07-54.11-47.47-73.97-2.71-7.28-4.76-14.72-5.75-22.27-1.99-15.18-.06-48.05,2.34-63.31l31.59-200.36c2.76-17.48,12.07-54.99,21.26-70.74,4.11-7.05,10.78-22.93,15.55-29.7,7.52-10.67,17.66-20.1,28.87-28.11,15.12-10.8,52.8-24.54,70.62-32.13,18.31-7.8,61.74-15.5,81.99-17.73l432.62-47.51c7.67-.84,24.72-2.28,32.45-2.28,38.6,0,118.49,8.83,151.13,24.62,17,8.23,31.84,20.6,42.36,34.12,30.18,38.78,47.4,102.09,40.21,147.56l-24.57,155.35c-2.76,17.47-10.14,42.63-19.33,58.37-8.95,15.32-21.98,37.68-36.09,49.77-14.11,12.08-31.7,30.87-49.51,38.45-18.3,7.79-39.33,22.24-59.57,24.46l-125.22,32.59Z"/>
    <path class="st13" d="M810.36,776.21c-1.07,2.79-2.51,5.48-4.26,7.98-3.45,4.95-7.98,9.22-13.02,12.31-9.63,12.97-61.36,28.89-75.19,38.78-31.11,22.26-165.74,44.98-206.15,44.98,0,0,0,0,0,0-22.28,0-98.3,2.1-118.95-5.13-3.33-1.17-7.8,6.08-11.04,4.73-15.51-6.44-35.41,24.87-48.08,14.77-8.55,1.89-27-1.92-38.68-15.21l-65.53-74.54c-13.86-15.76-39.86-53.57-46.96-72.28-2.7-7.13-4.74-14.42-5.68-21.83-1.81-14.35.31-47.72,2.58-62.13l31.01-196.68c2.6-16.51,11.83-54.67,20.51-69.55,3.89-6.66,10.43-22.89,14.88-29.31,7.29-10.51,17.27-19.7,28.34-27.47,14.37-10.08,52.85-23.5,69.68-30.67,17.29-7.36,61.47-14.99,80.6-17.09l424.92-46.67c7.25-.8,24.57-2.29,31.87-2.29,36.46,0,117.65,8,148.62,22.61,16.8,7.93,31.31,20.1,41.41,33.45,28,37.01,44.32,99.28,37.52,142.22l-23.65,149.52c-2.61,16.5-9.75,41.36-18.43,56.23-8.45,14.47-20.94,36.71-34.27,48.12-13.33,11.41-30.12,30.32-46.95,37.49-17.28,7.36-37.34,22.25-56.46,24.35l-118.67,33.32Z"/>
    <path class="st6" d="M816.58,766.8c-1.03,2.8-2.47,5.49-4.22,7.99-3.45,4.93-8.05,9.13-13.19,12.08-9.06,12.21-62.95,27.76-75.96,37.07-29.28,20.95-168.39,43.69-206.43,43.69,0,0,0,0,0,0-20.97,0-99.51,2.75-118.95-4.06-3.14-1.1-7.5,6.83-10.54,5.56-14.59-6.06-34.05,28.6-45.97,19.08-8.19,2.8-27.06-.43-38.78-13.76l-64.29-73.13c-13.04-14.84-39.66-53.02-46.45-70.59-2.7-6.98-4.72-14.12-5.6-21.4-1.64-13.51.68-47.4,2.82-60.96l30.43-193c2.45-15.54,11.59-54.36,19.76-68.35,3.66-6.27,10.07-22.84,14.22-28.92,7.06-10.34,16.88-19.31,27.82-26.84,13.61-9.37,52.9-22.47,68.74-29.21,16.27-6.93,61.21-14.47,79.21-16.45l417.23-45.82c6.82-.75,24.42-2.3,31.29-2.3,34.31,0,116.83,7.14,146.11,20.59,16.61,7.63,30.77,19.59,40.45,32.77,25.86,35.2,41.23,96.46,34.84,136.89l-22.73,143.69c-2.46,15.53-9.36,40.1-17.53,54.09-7.95,13.62-19.89,35.74-32.44,46.48-12.55,10.74-28.55,29.77-44.38,36.52-16.27,6.93-35.35,22.25-53.34,24.23l-112.11,34.05Z"/>
    <path class="st22" d="M822.8,757.38c-1,2.82-2.42,5.51-4.18,8-3.46,4.91-8.13,9.05-13.36,11.86-8.5,11.44-64.54,26.64-76.73,35.36-27.45,19.64-171.05,42.41-206.71,42.41,0,0,0,0,0,0-19.66,0-100.72,3.39-118.94-2.99-2.94-1.03-7.19,7.58-10.05,6.39-13.68-5.68-32.69,32.32-43.86,23.4-7.83,3.71-27.12,1.06-38.87-12.31l-63.06-71.73c-12.23-13.91-39.47-52.47-45.94-68.9-2.69-6.84-4.69-13.82-5.52-20.96-1.48-12.68,1.06-47.07,3.06-59.79l29.85-189.32c2.3-14.57,11.35-54.04,19.01-67.16,3.43-5.88,9.71-22.8,13.55-28.53,6.83-10.18,16.49-18.91,27.3-26.2,12.84-8.66,52.94-21.43,67.79-27.76,15.26-6.5,60.94-13.96,77.82-15.81l409.53-44.98c6.39-.7,24.27-2.31,30.71-2.31,32.17,0,116.02,6.25,143.6,18.58,16.42,7.34,30.22,19.07,39.49,32.09,23.75,33.36,38.15,93.65,32.15,131.55l-21.81,137.87c-2.3,14.56-8.97,38.83-16.63,51.95-7.46,12.77-18.85,34.77-30.61,44.83-11.76,10.07-26.97,29.23-41.82,35.55-15.25,6.49-33.36,22.26-50.23,24.11l-105.56,34.78Z"/>
    <path class="st16" d="M829.02,747.97c-.96,2.83-2.38,5.53-4.14,8.01-3.46,4.89-8.2,8.96-13.53,11.64-7.93,10.68-66.12,25.51-77.51,33.65-25.62,18.33-173.7,41.13-206.98,41.13,0,0,0,0,0,0-18.35,0-101.93,4.03-118.93-1.92-2.75-.96-6.89,8.33-9.55,7.22-12.77-5.31-31.32,36.04-41.75,27.71-7.47,4.62-27.18,2.55-38.97-10.85l-61.82-70.32c-11.41-12.98-39.29-51.92-45.43-67.21-2.69-6.69-4.67-13.52-5.45-20.52-1.32-11.84,1.43-46.75,3.3-58.62l29.27-185.64c2.14-13.6,11.11-53.72,18.26-65.97,3.2-5.48,9.34-22.76,12.89-28.13,6.61-10.02,16.1-18.51,26.78-25.57,12.06-7.97,52.99-20.39,66.85-26.3,14.24-6.07,60.67-13.45,76.43-15.18l401.83-44.13c5.97-.66,24.12-2.31,30.13-2.31,30.02,0,115.23,5.34,141.09,16.56,16.23,7.05,32.22,17.12,38.54,31.42,27.16,26.89,35.06,90.84,29.46,126.21l-20.88,132.04c-2.15,13.59-8.58,37.56-15.73,49.81-6.96,11.92-17.81,33.79-28.78,43.19-10.98,9.4-25.39,28.68-39.25,34.58-14.23,6.06-31.37,22.26-47.12,23.99l-99,35.51Z"/>
    <path class="st25" d="M835.24,738.55c-.93,2.84-2.33,5.55-4.1,8.02-3.47,4.86-8.28,8.88-13.7,11.41-7.36,9.92-67.71,24.38-78.28,31.94-23.79,17.02-176.36,39.84-207.26,39.84,0,0,0,0,0,0-17.04,0-103.13,4.68-118.92-.85-2.55-.89-6.58,9.07-9.06,8.05-11.86-4.93-29.96,39.76-39.65,32.03-7.11,5.53-27.25,4.04-39.06-9.4l-60.59-68.92c-10.6-12.05-39.12-51.36-44.92-65.52-2.68-6.55-4.64-13.22-5.37-20.08-1.17-11,1.8-46.42,3.54-57.44l28.68-181.96c1.99-12.63,10.88-53.4,17.51-64.78,2.97-5.09,8.97-22.72,12.22-27.74,6.38-9.86,15.7-18.1,26.26-24.93,11.27-7.29,53.03-19.36,65.91-24.84,13.22-5.63,60.41-12.93,75.03-14.54l394.14-43.29c5.54-.61,23.97-2.32,29.55-2.32,27.88,0,114.45,4.39,138.58,14.55,16.06,6.76,31.86,16.56,37.58,30.74,25.22,24.97,31.97,88.03,26.78,120.88l-19.96,126.22c-2,12.62-8.2,36.3-14.83,47.67-6.46,11.07-16.76,32.82-26.96,41.55-10.19,8.73-23.82,28.13-36.68,33.61-13.22,5.63-29.38,22.27-44,23.88l-92.45,36.24Z"/>
    <path class="st2" d="M841.46,729.13c-.89,2.85-2.28,5.56-4.06,8.04-3.47,4.84-8.35,8.79-13.86,11.19-6.8,9.15-69.3,23.25-79.06,30.23-21.96,15.71-179.01,38.56-207.54,38.56,0,0,0,0,0,0-15.73,0-104.34,5.32-118.92.22-2.35-.82-6.28,9.82-8.56,8.88-10.95-4.55-28.6,43.48-37.54,36.34-6.75,6.44-27.31,5.52-39.16-7.95l-59.35-67.51c-9.78-11.13-38.96-50.8-44.41-63.83-2.68-6.4-4.62-12.92-5.3-19.65-1.02-10.16,2.18-46.1,3.78-56.27l28.1-178.28c1.84-11.66,10.64-53.09,16.76-63.58,2.74-4.7,8.6-22.69,11.56-27.35,6.16-9.7,15.3-17.7,25.74-24.3s53.08-18.32,64.96-23.38c12.2-5.2,60.14-12.42,73.64-13.9l386.44-42.44c5.12-.56,23.82-2.33,28.98-2.33,25.73,0,113.69,3.42,136.08,12.54,15.88,6.47,31.5,16,36.63,30.06,23.28,23.05,28.89,85.22,24.09,115.54l-19.04,120.39c-1.84,11.65-7.81,35.03-13.93,45.52-5.97,10.22-15.72,31.85-25.13,39.9-9.41,8.05-22.24,27.59-34.12,32.64-12.2,5.2-27.4,22.28-40.89,23.76l-85.89,36.97Z"/>
    <path class="st28" d="M847.68,719.72c-.86,2.87-2.24,5.58-4.02,8.05-3.48,4.82-8.43,8.71-14.03,10.96-6.23,8.39-70.89,22.12-79.83,28.52-20.13,14.4-181.67,37.28-207.82,37.28,0,0,0,0,0,0-14.41,0-105.55,5.97-118.91,1.29-2.16-.76-5.97,10.57-8.07,9.7-10.03-4.17-27.24,47.2-35.43,40.66-6.39,7.35-27.37,7.01-39.25-6.5l-58.12-66.11c-8.97-10.2-38.82-50.23-43.9-62.14-2.67-6.26-4.6-12.61-5.22-19.21-.88-9.32,2.55-45.77,4.02-55.1l27.52-174.59c1.68-10.68,10.4-52.77,16.01-62.39,2.51-4.31,8.22-22.66,10.89-26.96,5.93-9.54,14.89-17.29,25.21-23.66,9.66-5.97,53.13-17.29,64.02-21.92,11.19-4.77,59.88-11.91,72.25-13.26l378.74-41.59c4.69-.52,23.67-2.34,28.4-2.34,23.59,0,114.7-1.1,133.57,10.52,16.56,3.32,31.14,15.43,35.67,29.39,21.34,21.13,25.8,82.41,21.41,110.2l-18.12,114.57c-1.69,10.68-7.42,33.76-13.03,43.38-5.47,9.36-14.67,30.88-23.3,38.26-8.62,7.38-20.66,27.04-31.55,31.67-11.18,4.76-25.41,22.28-37.78,23.64l-79.34,37.7Z"/>
    <path class="st20" d="M853.9,710.3c-.82,2.88-2.19,5.6-3.98,8.06-3.48,4.8-8.5,8.62-14.2,10.74-5.66,7.63-72.47,20.99-80.61,26.81-18.3,13.09-184.32,35.99-208.1,35.99,0,0,0,0,0,0-13.1,0-106.76,6.61-118.9,2.36-1.96-.69-5.67,11.32-7.57,10.53-9.12-3.79-25.87,50.92-33.32,44.97-6.02,8.26-27.43,8.5-39.35-5.05l-56.88-64.7c-8.15-9.27-38.69-49.66-43.39-60.45-2.67-6.12-4.57-12.31-5.14-18.77-.75-8.47,2.92-45.45,4.26-53.92l26.94-170.91c1.53-9.71,10.16-52.45,15.26-61.2,2.29-3.92,7.83-22.64,10.23-26.57,5.71-9.39,14.48-16.88,24.69-23.03,8.84-5.33,53.17-16.25,63.08-20.47,10.17-4.33,59.61-11.39,70.86-12.63l371.05-40.75c4.26-.47,23.52-2.34,27.82-2.34,21.44,0,113.91-2.06,131.06,8.51,16.39,2.87,30.78,14.87,34.71,28.71,19.4,19.21,22.72,79.6,18.72,104.87l-17.2,108.74c-1.54,9.71-7.03,32.5-12.13,41.24-4.97,8.51-13.63,29.91-21.47,36.62-7.84,6.71-19.09,26.49-28.99,30.71-10.17,4.33-23.42,22.29-34.67,23.52l-72.78,38.42Z"/>
    <path class="st14" d="M860.12,700.88c-.79,2.89-2.14,5.62-3.94,8.07-3.49,4.77-8.58,8.54-14.37,10.51-5.1,6.87-74.06,19.86-81.38,25.1-16.47,11.78-186.98,34.71-208.37,34.71,0,0,0,0,0,0-11.79,0-107.96,7.25-118.9,3.43-1.76-.62-5.36,12.07-7.07,11.36-8.21-3.41-24.51,54.64-31.21,49.29-5.66,9.17-27.49,9.99-39.44-3.6l-55.65-63.3c-7.34-8.35-38.57-49.09-42.88-58.76-2.66-5.98-4.55-12.01-5.07-18.33-.63-7.63,3.29-45.12,4.5-52.75l26.36-167.23c1.38-8.74,9.92-52.13,14.51-60,2.06-3.53,7.44-22.61,9.56-26.17,5.49-9.24,13.18-18.34,24.17-22.39,7.06-6.04,53.22-15.21,62.13-19.01,9.15-3.9,59.34-10.88,69.47-11.99l363.35-39.9c3.84-.42,23.37-2.35,27.24-2.35,19.3,0,113.12-3.02,128.55,6.49,16.22,2.42,30.41,14.31,33.76,28.03,17.46,17.29,19.63,76.79,16.03,99.53l-16.28,102.92c-1.38,8.74-6.64,31.23-11.23,39.1-4.47,7.66-12.59,28.93-19.64,34.97-7.06,6.04-17.51,25.94-26.42,29.74-9.15,3.9-21.43,22.29-31.55,23.4l-66.23,39.15Z"/>
    <path class="st31" d="M866.34,691.47c-.75,2.9-2.1,5.64-3.9,8.08-3.49,4.75-8.65,8.45-14.54,10.29-4.53,6.1-75.65,18.73-82.15,23.39-14.64,10.47-189.63,33.43-208.65,33.43,0,0,0,0,0,0-10.48,0-109.17,7.9-118.89,4.5-1.57-.55-5.06,12.82-6.58,12.19-7.3-3.03-23.15,58.36-29.11,53.6-5.3,10.08-27.56,11.48-39.53-2.15l-54.41-61.89c-6.52-7.42-38.47-48.51-42.37-57.08-2.66-5.84-4.52-11.7-4.99-17.9-.51-6.79,3.67-44.79,4.74-51.58l25.78-163.55c1.23-7.77,9.68-51.81,13.76-58.81,1.83-3.13,7.05-22.6,8.89-25.78,5.28-9.1,12.76-18.03,23.65-21.76,6.27-5.37,53.27-14.18,61.19-17.55,8.14-3.47,59.08-10.36,68.08-11.35l355.66-39.06c3.41-.37,23.22-2.36,26.66-2.36,17.16,0,112.32-3.97,126.04,4.48,16.05,1.98,30.05,13.75,32.8,27.35,15.52,15.37,16.54,73.98,13.35,94.19l-15.36,97.09c-1.23,7.77-6.25,29.96-10.33,36.96-3.98,6.81-11.54,27.96-17.82,33.33-6.27,5.37-15.94,25.4-23.85,28.77-8.13,3.46-19.44,22.3-28.44,23.29l-59.67,39.88Z"/>
    <path class="st19" d="M872.56,682.05c-.72,2.91-2.05,5.65-3.86,8.09-3.5,4.73-8.73,8.37-14.71,10.07-3.96,5.34-77.24,17.6-82.93,21.68-12.81,9.16-192.29,32.14-208.93,32.14,0,0,0,0,0,0-9.17,0-110.38,8.54-118.88,5.57-1.37-.48-4.75,13.57-6.08,13.02-6.38-2.65-21.78,62.08-27,57.92-4.94,10.99-27.62,12.96-39.63-.7l-53.17-60.49c-5.71-6.49-38.38-47.92-41.86-55.39-2.66-5.7-4.5-11.4-4.91-17.46s4.04-44.47,4.98-50.4l25.2-159.87c1.07-6.8,9.44-51.5,13.01-57.62,1.6-2.74,6.64-22.59,8.23-25.39,5.06-8.95,12.33-17.72,23.13-21.12,5.49-4.7,53.31-13.14,60.24-16.09,7.12-3.03,58.81-9.85,66.69-10.72l347.96-38.21c2.98-.33,23.07-2.37,26.08-2.37,15.01,0,111.53-4.93,123.53,2.46,15.88,1.53,29.69,13.19,31.85,26.68,13.58,13.45,13.46,71.17,10.66,88.85l-14.43,91.27c-1.07,6.8-5.86,28.7-9.43,34.82-3.48,5.96-10.5,26.99-15.99,31.69-5.49,4.7-14.36,24.85-21.29,27.8-7.12,3.03-17.45,22.3-25.33,23.17l-53.12,40.61Z"/>
    <path class="st8" d="M878.78,672.64c-.68,2.93-2.01,5.67-3.82,8.1-3.51,4.71-8.81,8.28-14.88,9.84-3.4,4.58-78.82,16.48-83.7,19.97-10.98,7.86-194.94,30.86-209.21,30.86,0,0,0,0,0,0-7.86,0-111.59,9.19-118.87,6.63-1.18-.41-4.45,14.32-5.59,13.85-5.47-2.27-20.42,65.8-24.89,62.24-4.58,11.9-27.68,14.45-39.72.75l-51.94-59.08c-4.89-5.56-38.31-47.32-41.35-53.7-2.66-5.56-4.47-11.09-4.84-17.02-.31-5.09,4.41-44.14,5.22-49.23l24.62-156.19c.92-5.83,9.2-51.18,12.26-56.43,1.37-2.35,5.81-22.86,7.56-25,3.16-9.55,11.91-17.42,22.61-20.49,4.71-4.03,53.36-12.11,59.3-14.64,6.1-2.6,58.54-9.34,65.29-10.08l340.26-37.37c2.56-.28,22.92-2.37,25.5-2.37,12.87,0,110.74-5.89,121.02.45,15.71,1.08,29.33,12.63,30.89,26,11.64,11.53,10.37,68.36,7.97,83.52l-13.51,85.44c-.92,5.82-5.47,27.43-8.54,32.68-2.98,5.11-9.45,26.02-14.16,30.04-4.7,4.03-12.78,24.3-18.72,26.83-6.1,2.6-15.46,22.31-22.21,23.05l-46.56,41.34Z"/>
    <path class="st4" d="M885,663.22c-.65,2.94-1.96,5.69-3.78,8.12-3.51,4.69-8.88,8.19-15.05,9.62-2.83,3.81-80.41,15.35-84.48,18.26-9.15,6.55-197.6,29.58-209.49,29.58,0,0,0,0,0,0-6.55,0-112.79,9.83-118.87,7.7-.98-.34-4.14,15.07-5.09,14.68-4.56-1.89-19.06,69.52-22.78,66.55-4.22,12.81-27.74,15.94-39.82,2.2l-50.7-57.68c-4.08-4.64-38.26-46.72-40.84-52.01s-4.45-10.78-4.76-16.59c-.23-4.25,4.79-43.82,5.45-48.06l24.04-152.51c.77-4.86,8.96-50.86,11.51-55.23,1.14-1.96,5.44-22.82,6.9-24.6,2.86-9.41,11.49-17.11,22.08-19.85,3.92-3.36,53.41-11.07,58.36-13.18,5.09-2.17,58.28-8.82,63.9-9.44l332.57-36.52c2.13-.23,22.77-2.38,24.92-2.38,10.72,0,109.94-6.85,118.52-1.57,15.54.63,28.97,12.07,29.93,25.32,9.7,9.61,7.29,65.55,5.29,78.18l-12.59,79.62c-.77,4.85-5.08,26.16-7.64,30.54-2.49,4.26-8.41,25.04-12.33,28.4-3.92,3.36-11.21,23.76-16.16,25.86-5.08,2.16-13.48,22.32-19.1,22.93l-40.01,42.07Z"/>
    <path class="st5" d="M891.22,653.8c-.61,2.95-1.91,5.71-3.74,8.13-3.52,4.66-8.96,8.11-15.21,9.39-2.27,3.05-82,14.22-85.25,16.55-7.32,5.24-200.25,28.29-209.76,28.29,0,0,0,0,0,0-5.24,0-114,10.47-118.86,8.77-.78-.27-3.84,15.82-4.6,15.51-3.65-1.52-17.69,73.24-20.67,70.87-3.86,13.72-27.8,17.43-39.91,3.65l-49.47-56.27c-3.26-3.71-38.22-46.11-40.33-50.32-2.65-5.3-4.43-10.47-4.69-16.15-.16-3.4,5.16-43.49,5.69-46.88l23.46-148.83c.61-3.89,8.72-50.54,10.77-54.04.91-1.57,5.07-22.79,6.23-24.21,2.57-9.27,11.06-16.8,21.56-19.22,3.14-2.69,53.45-10.03,57.41-11.72,4.07-1.73,58.01-8.31,62.51-8.8l324.87-35.68c1.71-.19,22.62-2.39,24.34-2.39,8.58,0,109.15-7.81,116.01-3.58,15.37.18,28.61,11.5,28.98,24.65,7.76,7.68,4.2,62.74,2.6,72.84l-11.67,73.79c-.61,3.88-4.69,24.9-6.74,28.39-1.99,3.41-7.37,24.07-10.5,26.76-3.14,2.68-9.63,23.21-13.59,24.89-4.07,1.73-11.49,22.32-15.99,22.82l-33.45,42.8Z"/>
    <path class="st9" d="M897.44,644.39c-.58,2.96-1.87,5.72-3.7,8.14-3.52,4.64-9.03,8.02-15.38,9.17-1.7,2.29-83.58,13.09-86.02,14.83-5.49,3.93-202.91,27.01-210.04,27.01,0,0,0,0,0,0-3.93,0-115.21,11.12-118.85,9.84-.59-.21-3.53,16.57-4.1,16.33-2.74-1.14-16.33,76.96-18.57,75.18-3.5,14.63-27.86,18.92-40.01,5.1l-48.23-54.87c-2.45-2.78-38.79-45.25-39.82-48.63-3.53-4.61-4.4-10.16-4.61-15.71-.1-2.55,5.53-43.17,5.93-45.71l22.88-145.15c.46-2.91,8.48-50.22,10.02-52.85.69-1.18,4.69-22.75,5.57-23.82,2.27-9.14,10.64-16.49,21.04-18.58,2.35-2.01,53.5-9,56.47-10.26,3.05-1.3,57.75-7.8,61.12-8.17l317.18-34.83c1.28-.14,22.47-2.4,23.76-2.4,6.43,0,108.36-8.76,113.5-5.6,15.2-.27,28.24,10.94,28.02,23.97,5.82,5.76,1.11,59.93-.09,67.51l-10.75,67.96c-.46,2.91-4.3,23.63-5.84,26.25-1.49,2.55-6.32,23.1-8.68,25.11-2.35,2.01-8.05,22.66-11.02,23.93-3.05,1.3-9.5,22.33-12.87,22.7l-26.9,43.53Z"/>
    <path class="st10" d="M903.66,634.97c-.54,2.98-1.82,5.74-3.66,8.15-3.53,4.62-9.11,7.94-15.55,8.94-1.13,1.53-85.17,11.96-86.8,13.12-3.66,2.62-205.56,25.73-210.32,25.73,0,0,0,0,0,0-2.62,0-116.42,11.76-118.85,10.91-.39-.14-3.22,17.32-3.61,17.16-1.82-.76-14.97,80.69-16.46,79.5-3.13,15.55-27.93,20.4-40.1,6.55l-47-53.46c-1.63-1.85-38.63-44.69-39.31-46.94-3.56-4.44-4.38-9.85-4.53-15.27-.05-1.7,5.91-42.84,6.17-44.54l22.3-141.47c.31-1.94,8.25-49.91,9.27-51.66.46-.78,4.32-22.72,4.9-23.43,1.97-9,10.21-16.18,20.52-17.95,1.57-1.34,53.55-7.96,55.53-8.81,2.03-.87,57.48-7.28,59.73-7.53l309.48-33.99c.85-.09,22.32-2.4,23.18-2.4,4.29,0,107.56-9.72,110.99-7.61,15.03-.72,27.88,10.38,27.06,23.29,3.88,3.84-1.97,57.12-2.77,62.17l-9.83,62.14c-.31,1.94-3.91,22.36-4.94,24.11-.99,1.7-5.28,22.13-6.85,23.47-1.57,1.34-6.48,22.11-8.46,22.96-2.03.87-7.51,22.33-9.76,22.58l-20.34,44.26Z"/>
    <path class="st15" d="M909.88,625.55c-.51,2.99-1.78,5.76-3.62,8.16-3.53,4.6-9.18,7.85-15.72,8.72-.57.76-86.76,10.83-87.57,11.41-1.83,1.31-208.22,24.44-210.6,24.44,0,0,0,0,0,0-1.31,0-117.62,12.41-118.84,11.98-.2-.07-2.92,18.07-3.11,17.99-.91-.38-13.6,84.41-14.35,83.81-2.77,16.46-27.99,21.89-40.2,8l-45.76-52.06c-.82-.93-38.46-44.12-38.8-45.25-3.59-4.27-4.35-9.54-4.46-14.84-.02-.85,6.28-42.52,6.41-43.36l21.72-137.79c.15-.97,8.01-49.59,8.52-50.46.23-.39,3.94-22.68,4.24-23.04,1.67-8.86,9.79-15.88,20-17.31.78-.67,53.59-6.93,54.58-7.35,1.02-.43,57.21-6.77,58.34-6.89l301.78-33.14c.43-.05,22.17-2.41,22.6-2.41,2.14,0,106.77-10.68,108.48-9.62,14.86-1.17,27.52,9.82,26.11,22.62,1.94,1.92-5.06,54.31-5.46,56.83l-8.91,56.31c-.15.97-3.53,21.1-4.04,21.97-.5.85-4.24,21.15-5.02,21.83-.78.67-4.9,21.57-5.89,21.99-1.02.43-5.52,22.34-6.65,22.46l-13.79,44.99Z"/>
    <path class="st0" d="M927.5,363.12l-532.67,58.5c-10.11,1.11-18.1,7.95-19.48,16.68l-39.13,248.21c-.81,5.11.77,10.29,4.38,14.4l82.82,94.21c12.24,13.93,37.88,7.91,40.29-9.45l14.86-106.95,418.05-45.91c10.11-1.11,18.09-7.95,19.47-16.67l36.55-231.08c2.01-12.68-10.46-23.55-25.15-21.94Z"/>
  </g>
</svg>