<?xml version="1.0" encoding="UTF-8"?>
<svg id="Capa_1" xmlns="http://www.w3.org/2000/svg" version="1.1" viewBox="0 0 1824 1805.62">
  <!-- Generator: Adobe Illustrator 29.8.1, SVG Export Plug-In . SVG Version: 2.1.1 Build 2)  -->
  <defs>
    <style>
      .st0 {
        opacity: .41;
        stroke: #366bff;
      }

      .st0, .st1, .st2, .st3, .st4, .st5, .st6, .st7, .st8, .st9, .st10, .st11, .st12, .st13, .st14, .st15, .st16, .st17, .st18, .st19, .st20, .st21, .st22, .st23, .st24, .st25, .st26, .st27, .st28, .st29, .st30, .st31, .st32, .st33, .st34, .st35, .st36, .st37, .st38, .st39, .st40, .st41, .st42, .st43, .st44, .st45, .st46, .st47, .st48, .st49, .st50, .st51 {
        fill: none;
        stroke-width: .25px;
      }

      .st0, .st1, .st2, .st3, .st4, .st5, .st7, .st8, .st10, .st11, .st12, .st13, .st15, .st16, .st17, .st18, .st19, .st20, .st21, .st22, .st23, .st24, .st25, .st26, .st27, .st29, .st30, .st31, .st32, .st33, .st34, .st35, .st36, .st37, .st38, .st39, .st40, .st41, .st42, .st43, .st44, .st45, .st46, .st47, .st48, .st49, .st50, .st51 {
        stroke-miterlimit: 10;
      }

      .st1 {
        opacity: .86;
        stroke: #0caeff;
      }

      .st2 {
        opacity: .98;
        stroke: #02bfff;
      }

      .st3 {
        opacity: .76;
        stroke: #159fff;
      }

      .st4 {
        opacity: .27;
        stroke: #4257ff;
      }

      .st5 {
        opacity: .55;
        stroke: #297fff;
      }

      .st6 {
        opacity: .02;
        stroke: #5931ff;
      }

      .st6, .st9, .st14 {
        stroke-miterlimit: 10;
      }

      .st7 {
        opacity: .69;
        stroke: #1d94ff;
      }

      .st8 {
        opacity: .33;
        stroke: #3d5fff;
      }

      .st9 {
        opacity: .06;
        stroke: #5637ff;
      }

      .st10 {
        opacity: .37;
        stroke: #3965ff;
      }

      .st11 {
        opacity: .47;
        stroke: #3074ff;
      }

      .st12 {
        opacity: .96;
        stroke: #04bcff;
      }

      .st13 {
        opacity: .78;
        stroke: #14a2ff;
      }

      .st14 {
        opacity: .04;
        stroke: #5734ff;
      }

      .st15 {
        opacity: .49;
        stroke: #2e77ff;
      }

      .st16 {
        opacity: .24;
        stroke: #4651ff;
      }

      .st17 {
        opacity: 0;
        stroke: #5b2eff;
      }

      .st18 {
        opacity: .53;
        stroke: #2b7cff;
      }

      .st19 {
        opacity: .14;
        stroke: #4f42ff;
      }

      .st20 {
        opacity: .22;
        stroke: #474eff;
      }

      .st21 {
        opacity: .92;
        stroke: #07b6ff;
      }

      .st22 {
        opacity: .73;
        stroke: #1999ff;
      }

      .st23 {
        opacity: .94;
        stroke: #05b9ff;
      }

      .st24 {
        opacity: .43;
        stroke: #346eff;
      }

      .st25 {
        opacity: .08;
        stroke: #543aff;
      }

      .st26 {
        opacity: .45;
        stroke: #3271ff;
      }

      .st27 {
        opacity: .29;
        stroke: #405aff;
      }

      .st28 {
        opacity: .12;
        stroke: #503fff;
        stroke-miterlimit: 10;
      }

      .st29 {
        opacity: .75;
        stroke: #179cff;
      }

      .st30 {
        opacity: .51;
        stroke: #2d79ff;
      }

      .st31 {
        opacity: .39;
        stroke: #3768ff;
      }

      .st32 {
        opacity: .63;
        stroke: #228bff;
      }

      .st33 {
        opacity: .57;
        stroke: #2782ff;
      }

      .st34 {
        opacity: .65;
        stroke: #208eff;
      }

      .st35 {
        opacity: .31;
        stroke: #3e5cff;
      }

      .st36 {
        opacity: .59;
        stroke: #2585ff;
      }

      .st37 {
        opacity: .82;
        stroke: #10a8ff;
      }

      .st38 {
        opacity: .18;
        stroke: #4b48ff;
      }

      .st39 {
        opacity: .1;
        stroke: #523dff;
      }

      .st40 {
        opacity: .9;
        stroke: #09b3ff;
      }

      .st41 {
        opacity: .16;
        stroke: #4d45ff;
      }

      .st42 {
        opacity: .8;
        stroke: #12a5ff;
      }

      .st43 {
        opacity: .88;
        stroke: #0bb1ff;
      }

      .st44 {
        opacity: .67;
        stroke: #1e91ff;
      }

      .st45 {
        opacity: .25;
        stroke: #4454ff;
      }

      .st46 {
        opacity: .2;
        stroke: #494bff;
      }

      .st47 {
        opacity: .61;
        stroke: #2488ff;
      }

      .st48 {
        opacity: .71;
        stroke: #1b96ff;
      }

      .st49 {
        opacity: .35;
        stroke: #3b62ff;
      }

      .st50 {
        stroke: #00c2ff;
      }

      .st51 {
        opacity: .84;
        stroke: #0eabff;
      }
    </style>
  </defs>
  <path class="st17" d="M612.55,1720.7s0,0,0,0c-67.94,0-136.18-15.54-197.33-44.94-64.71-31.12-121.95-77.88-165.53-135.25l-119.26-157c-36.39-47.9-62.6-101.69-77.89-159.87-15.3-58.18-18.94-117.9-10.82-177.5l56.35-413.64c6.84-50.18,21.86-98.53,44.64-143.73,22.18-44,51.18-83.9,86.19-118.6,35.01-34.69,75.17-63.33,119.37-85.12,45.4-22.38,93.89-36.97,144.12-43.35l767.07-97.49c19.03-2.42,38.4-3.65,57.57-3.65,131.67,0,256.87,56.93,343.49,156.2,86.6,99.24,126.04,231.01,108.2,361.53l-52.63,385.09c-6.85,50.15-21.89,98.49-44.68,143.66-22.19,43.98-51.19,83.86-86.2,118.54-35,34.67-75.16,63.29-119.34,85.07-45.39,22.37-93.86,36.94-144.06,43.32l-303.04,38.51c-2.24,4.37-4.55,8.71-6.93,13.03-27.64,50-63.98,93.83-108.01,130.29-81.69,67.64-185.14,104.89-291.26,104.89Z"/>
  <path class="st6" d="M1024.2,1462.96c-2.21,4.38-4.51,8.73-6.89,13.03-4.6,8.29-9.56,16.33-14.65,24.19-25.24,38.98-58.41,74.36-94.41,104.17-80.08,66.31-187.55,103.6-291.59,103.6,0,0,0,0,0,0-51.9,0-107.03-8.86-155.86-26.59-13.84-5.02-27.52-9.86-40.75-16.23-40.44-19.44-77.93-42.79-111.13-73.12-18.64-17.03-36.77-35.69-52.61-56.54l-118.18-155.57c-35.68-46.96-62.33-101.15-77.45-158.16-3.99-15.06-7.21-30.24-9.54-45.5-6.66-42.62-6.88-87.23-1-130.39l55.84-409.93c6.7-49.19,21.65-98.19,43.99-142.5,10.19-20.21,21.99-40.24,34.99-58.61,14.89-21.04,31.69-40.76,50.16-58.94,34.43-33.9,75.15-62.28,118.49-83.64,44.51-21.94,93.55-36.43,142.79-42.69l759.69-96.55c18.66-2.37,38.22-3.65,57.02-3.65,129.09,0,255.46,55.53,340.61,152.65,48.98,55.86,82.94,122.39,99.29,193.34,12.2,52.45,14.84,108.11,7.38,162.68l-51.87,379.55c-6.72,49.17-21.57,97.34-43.91,141.63-21.76,43.12-50.29,82.98-84.61,116.98-34.32,33.99-73.79,62.82-117.11,84.16-44.5,21.93-92.12,37-141.35,43.26l-297.31,39.34Z"/>
  <path class="st14" d="M1029.64,1453.42c-2.18,4.39-4.47,8.75-6.86,13.04-4.61,8.28-9.7,16.22-14.82,24-25.04,38-60.01,73.22-95.29,102.43-78.48,64.98-189.96,102.31-291.93,102.31,0,0,0,0,0,0-50.87,0-107.99-8.29-155.84-25.66-13.56-4.92-27.07-8.79-40.05-15.02-39.63-19.05-76.41-39.57-109.23-68.97-18.18-16.29-36.84-34.2-52.72-55.1l-117.1-154.15c-34.96-46.02-62.07-100.61-77-156.45-3.98-14.9-7.17-29.95-9.48-45.07-6.39-41.79-6.54-86.91-.78-129.2l55.34-406.21c6.57-48.21,21.43-97.85,43.33-141.28,9.99-19.81,21.7-40.14,34.39-58.18,14.68-20.88,31.39-40.4,49.72-58.31,33.86-33.1,75.14-61.22,117.6-82.15,43.62-21.5,93.2-35.9,141.46-42.03l752.31-95.61c18.28-2.32,38.04-3.65,56.46-3.65,126.51,0,254.05,54.12,337.73,149.1,48.29,54.81,81.92,120.28,98.03,190.2,11.85,51.43,14.42,106.83,7.11,160.31l-51.12,374.01c-6.59,48.18-21.24,96.19-43.15,139.6-21.32,42.26-49.39,82.1-83.03,115.42-33.63,33.31-72.42,62.34-114.87,83.26-43.61,21.49-90.39,37.06-138.63,43.19l-291.59,40.17Z"/>
  <path class="st9" d="M1035.09,1443.88c-2.14,4.4-4.42,8.76-6.82,13.05-4.62,8.27-9.83,16.11-14.99,23.8-24.83,37.03-61.61,72.09-96.17,100.7-76.88,63.66-192.38,101.03-292.26,101.03,0,0,0,0,0,0-49.83,0-108.96-7.72-155.83-24.73-13.28-4.82-26.63-7.71-39.34-13.82-38.82-18.67-74.88-36.36-107.33-64.82-17.73-15.55-36.92-32.7-52.83-53.65l-116.02-152.72c-34.25-45.08-61.82-100.08-76.56-154.74-3.98-14.75-7.15-29.66-9.41-44.64-6.19-40.95-6.21-86.58-.57-128.01l54.83-402.5c6.43-47.23,21.22-97.52,42.67-140.05,9.78-19.4,21.41-40.04,33.79-57.75,14.48-20.71,31.09-40.04,49.27-57.69,33.28-32.31,75.12-60.16,116.72-80.67,42.73-21.06,92.86-35.36,140.13-41.37l744.93-94.67c17.91-2.28,37.86-3.65,55.9-3.65,123.93,0,252.65,52.71,334.85,145.54,47.6,53.76,80.97,118.16,96.77,187.06,11.55,50.39,14,105.54,6.84,157.93l-50.36,368.48c-6.45,47.2-20.92,95.04-42.38,137.56-20.89,41.39-48.5,81.22-81.44,113.86-32.94,32.63-71.05,61.86-112.64,82.35-42.72,21.05-88.66,37.12-135.91,43.12l-285.86,40.99Z"/>
  <path class="st25" d="M1040.53,1434.34c-2.11,4.41-4.38,8.78-6.79,13.06-4.63,8.26-9.97,16-15.15,23.6-24.6,36.06-63.22,70.95-97.05,98.97-75.28,62.33-194.79,99.74-292.59,99.74,0,0,0,0,0,0-48.79,0-109.92-7.15-155.82-23.81-13.01-4.72-26.18-6.63-38.63-12.62-38.01-18.28-73.34-33.16-105.43-60.67-17.29-14.82-36.99-31.21-52.93-52.2l-114.93-151.3c-33.54-44.14-61.56-99.54-76.11-153.03-3.97-14.59-7.13-29.36-9.35-44.21-6-40.11-5.88-86.25-.36-126.82l54.33-398.79c6.3-46.24,21.01-97.18,42.01-138.83,9.58-19,21.12-39.95,33.19-57.31,14.28-20.54,30.79-39.68,48.83-57.07,32.7-31.52,75.11-59.11,115.84-79.19,41.84-20.63,92.51-34.83,138.8-40.71l737.55-93.74c17.54-2.23,37.67-3.65,55.34-3.65,121.34,0,251.24,51.3,331.97,141.99,46.91,52.7,80.02,116.04,95.5,183.93,11.26,49.35,13.59,104.26,6.58,155.56l-49.6,362.94c-6.32,46.22-20.6,93.9-41.61,135.53-20.45,40.53-47.6,80.34-79.85,112.3-32.26,31.95-69.68,61.38-110.4,81.45-41.83,20.61-86.92,37.18-133.19,43.06l-280.13,41.82Z"/>
  <path class="st39" d="M1045.98,1424.8c-2.08,4.43-4.34,8.79-6.75,13.07-4.64,8.24-10.1,15.89-15.32,23.4-24.37,35.1-64.82,69.82-97.94,97.24-73.68,61.01-197.2,98.45-292.92,98.45,0,0,0,0,0,0-47.75,0-110.89-6.58-155.81-22.88-12.73-4.62-25.74-5.56-37.92-11.41-37.2-17.89-71.81-29.98-103.53-56.53-16.85-14.1-37.06-29.72-53.04-50.76l-113.85-149.87c-32.82-43.21-61.31-99-75.67-151.32-3.96-14.44-7.11-29.07-9.28-43.78-5.81-39.26-5.55-85.93-.14-125.63l53.82-395.08c6.17-45.26,20.8-96.84,41.35-137.6,9.38-18.6,20.82-39.86,32.59-56.88,14.08-20.37,30.48-39.31,48.39-56.45,32.12-30.73,75.09-58.05,114.96-77.7,40.95-20.19,92.17-34.29,137.47-40.05l730.17-92.8c17.16-2.18,37.49-3.65,54.79-3.65,118.76,0,249.84,49.89,329.09,138.44,46.23,51.65,79.07,113.92,94.24,180.79,10.96,48.32,13.17,102.97,6.31,153.18l-48.85,357.41c-6.18,45.23-20.28,92.75-40.84,133.5-20.02,39.67-46.7,79.46-78.27,110.74-31.57,31.27-68.31,60.9-108.16,80.54-40.94,20.17-85.19,37.23-130.48,42.99l-274.41,42.65Z"/>
  <path class="st28" d="M1051.42,1415.27c-2.05,4.44-4.3,8.81-6.71,13.08-4.65,8.23-10.24,15.78-15.48,23.2-24.12,34.13-66.42,68.68-98.82,95.51-72.08,59.68-199.62,97.16-293.26,97.16,0,0,0,0,0,0-46.71,0-111.85-6-155.8-21.95-12.45-4.52-25.29-4.48-37.21-10.21-36.39-17.5-70.26-26.81-101.63-52.38-16.42-13.38-37.13-28.23-53.15-49.31l-112.77-148.45c-32.11-42.27-61.06-98.46-75.22-149.61-3.96-14.28-7.09-28.78-9.22-43.35-5.61-38.42-5.22-85.6.07-124.44l53.31-391.37c6.03-44.27,20.59-96.5,40.69-136.38,9.17-18.19,20.53-39.76,32-56.45,13.88-20.2,30.18-38.95,47.95-55.82,31.54-29.94,75.07-56.99,114.07-76.22,40.06-19.75,91.83-33.76,136.15-39.39l722.79-91.86c16.79-2.13,37.31-3.65,54.23-3.65,116.18,0,248.44,48.48,326.21,134.89,45.54,50.61,78.12,111.79,92.98,177.66,10.67,47.28,12.75,101.69,6.04,150.81l-48.09,351.87c-6.05,44.25-19.96,91.6-40.07,131.46-19.58,38.81-45.8,78.58-76.68,109.17-30.88,30.59-66.94,60.42-105.93,79.63-40.05,19.73-83.46,37.29-127.76,42.92l-268.68,43.48Z"/>
  <path class="st19" d="M1056.87,1405.73c-2.02,4.45-4.26,8.82-6.68,13.09-4.66,8.22-10.37,15.66-15.65,23.01-23.86,33.18-68.02,67.55-99.7,93.78-70.47,58.35-202.03,95.87-293.59,95.87,0,0,0,0,0,0-45.67,0-112.82-5.43-155.79-21.03-12.18-4.42-24.85-3.41-36.5-9.01-35.58-17.11-68.71-23.66-99.73-48.23-16-12.67-37.21-26.73-53.26-47.87l-111.69-147.02c-31.39-41.33-60.81-97.92-74.78-147.9-3.95-14.13-7.07-28.49-9.15-42.92-5.42-37.57-4.89-85.28.28-123.25l52.81-387.65c5.9-43.29,20.38-96.16,40.04-135.16,8.97-17.79,20.23-39.67,31.4-56.02,13.68-20.04,29.87-38.59,47.5-55.2,30.95-29.16,75.06-55.94,113.19-74.73,39.17-19.31,91.48-33.22,134.82-38.73l715.41-90.92c16.42-2.09,37.13-3.65,53.67-3.65,113.6,0,247.05,47.06,323.33,131.33,44.86,49.56,77.17,109.67,91.72,174.52,10.37,46.24,12.34,100.4,5.77,148.43l-47.33,346.34c-5.91,43.27-19.63,90.46-39.3,129.43-19.15,37.94-44.9,77.7-75.1,107.61-30.2,29.91-65.57,59.94-103.69,78.73-39.16,19.3-81.72,37.35-125.04,42.86l-262.96,44.3Z"/>
  <path class="st41" d="M1062.31,1396.19c-1.99,4.46-4.22,8.84-6.64,13.1-4.67,8.21-10.5,15.55-15.82,22.81-23.59,32.22-69.63,66.41-100.58,92.05-68.87,57.03-204.44,94.58-293.92,94.58,0,0,0,0,0,0-44.64,0-113.78-4.86-155.78-20.1-11.9-4.32-24.4-2.33-35.79-7.8-34.78-16.72-67.16-20.53-97.83-44.08-15.59-11.97-37.28-25.24-53.37-46.42l-110.6-145.6c-30.68-40.39-60.57-97.38-74.34-146.19-3.94-13.97-7.05-28.2-9.09-42.49-5.23-36.73-4.56-84.95.5-122.06l52.3-383.94c5.76-42.31,20.17-95.83,39.38-133.93,8.76-17.38,19.94-39.58,30.8-55.59,13.48-19.87,29.56-38.22,47.06-54.58,30.36-28.38,75.04-54.88,112.31-73.25,38.28-18.87,91.14-32.69,133.49-38.07l708.03-89.98c16.04-2.04,36.95-3.65,53.11-3.65,111.02,0,245.65,45.65,320.44,127.78,44.18,48.51,76.22,107.54,90.46,171.39,10.08,45.2,11.92,99.12,5.51,146.05l-46.58,340.8c-5.78,42.28-19.31,89.31-38.53,127.4-18.71,37.08-44,76.82-73.51,106.05-29.51,29.23-64.2,59.46-101.46,77.82-38.27,18.86-79.99,37.41-122.32,42.79l-257.23,45.13Z"/>
  <path class="st38" d="M1067.75,1386.65c-1.96,4.47-4.18,8.86-6.6,13.11-4.68,8.2-10.63,15.43-15.98,22.61-23.31,31.28-71.23,65.28-101.47,90.32-67.27,55.7-206.86,93.29-294.25,93.29,0,0,0,0,0,0-43.6,0-114.75-4.29-155.76-19.18-11.62-4.22-23.96-1.25-35.08-6.6-33.97-16.33-65.6-17.42-95.93-39.93-15.19-11.28-37.35-23.75-53.48-44.97l-109.52-144.17c-29.97-39.45-60.33-96.83-73.89-144.48-3.93-13.82-7.03-27.9-9.02-42.06-5.05-35.89-4.23-84.63.71-120.88l51.8-380.23c5.63-41.32,19.95-95.49,38.72-132.71,8.56-16.98,19.64-39.49,30.2-55.16,13.28-19.71,29.26-37.86,46.62-53.95,29.76-27.6,75.03-53.82,111.43-71.77,37.39-18.43,90.79-32.15,132.16-37.41l700.65-89.05c15.67-1.99,36.77-3.66,52.55-3.66,108.43,0,244.26,44.23,317.56,124.23,43.49,47.47,75.27,105.42,89.2,168.25,9.79,44.16,11.5,97.84,5.24,143.68l-45.82,335.26c-5.64,41.3-18.99,88.16-37.76,125.37-18.28,36.22-43.1,75.94-71.93,104.49-28.83,28.55-62.83,58.98-99.22,76.92-37.38,18.42-78.26,37.47-119.6,42.72l-251.51,45.96Z"/>
  <path class="st46" d="M1073.2,1377.11c-1.93,4.48-4.14,8.87-6.57,13.11-4.69,8.18-10.76,15.31-16.15,22.41-23.02,30.33-72.83,64.14-102.35,88.58-65.67,54.37-209.27,92.01-294.59,92.01,0,0,0,0,0,0-42.56,0-115.71-3.72-155.75-18.25-11.35-4.12-23.51-.18-34.37-5.4-33.16-15.94-64.05-14.33-94.03-35.79-14.8-10.6-37.42-22.25-53.58-43.53l-108.44-142.75c-29.25-38.51-60.09-96.29-73.45-142.77-3.93-13.66-7.02-27.61-8.96-41.63-4.86-35.04-3.9-84.3.92-119.69l51.29-376.52c5.5-40.34,19.74-95.15,38.06-131.48,8.36-16.57,19.34-39.4,29.6-54.73,13.08-19.54,28.95-37.49,46.18-53.33,29.17-26.82,75.01-52.77,110.54-70.28,36.5-17.99,90.45-31.62,130.83-36.75l693.27-88.11c15.3-1.94,36.58-3.66,52-3.66,105.85,0,242.88,42.82,314.68,120.68,42.81,46.42,74.32,103.29,87.94,165.12,9.5,43.13,11.09,96.55,4.97,141.3l-45.06,329.73c-5.51,40.32-18.67,87.01-36.99,123.33-17.84,35.36-42.2,75.06-70.34,102.93-28.14,27.87-61.46,58.51-96.98,76.01-36.49,17.98-76.52,37.53-116.89,42.66l-245.78,46.78Z"/>
  <path class="st20" d="M1078.64,1367.57c-1.9,4.49-4.1,8.89-6.53,13.12-4.7,8.17-10.89,15.19-16.32,22.22-22.72,29.4-74.43,63.01-103.23,86.85-64.07,53.05-211.68,90.72-294.92,90.72,0,0,0,0,0,0-41.52,0-116.68-3.14-155.74-17.32-11.07-4.02-23.07.9-33.66-4.19-32.35-15.55-62.49-11.26-92.12-31.64-14.43-9.92-37.5-20.76-53.69-42.08l-107.36-141.32c-28.54-37.57-59.86-95.75-73-141.06-3.92-13.51-7-27.32-8.9-41.2-4.68-34.19-3.57-83.97,1.14-118.5l50.79-372.81c5.36-39.35,19.53-94.81,37.4-130.26,8.15-16.17,19.04-39.31,29-54.3,12.88-19.38,28.64-37.12,45.73-52.71,28.57-26.04,74.99-51.71,109.66-68.8,35.61-17.55,90.1-31.08,129.5-36.09l685.89-87.17c14.93-1.9,36.4-3.66,51.44-3.66,103.27,0,241.49,41.4,311.8,117.12,42.14,45.38,73.37,101.17,86.68,161.98,9.21,42.09,10.67,95.27,4.7,138.93l-44.31,324.19c-5.38,39.33-18.35,85.87-36.22,121.3-17.41,34.5-41.3,74.17-68.75,101.37-27.45,27.19-60.09,58.03-94.75,75.1-35.6,17.54-74.79,37.59-114.17,42.59l-240.05,47.61Z"/>
  <path class="st16" d="M1084.09,1358.04c-1.87,4.5-4.05,8.9-6.49,13.13-4.71,8.16-11.01,15.07-16.48,22.02-22.4,28.47-76.03,61.87-104.11,85.12-62.47,51.72-214.1,89.43-295.25,89.43,0,0,0,0,0,0-40.48,0-117.64-2.57-155.73-16.4-10.79-3.92-22.62,1.98-32.95-2.99-31.54-15.17-60.93-8.22-90.22-27.49-14.08-9.26-37.57-19.27-53.8-40.64l-106.27-139.9c-27.83-36.63-59.63-95.21-72.56-139.35-3.91-13.36-6.98-27.02-8.83-40.77-4.5-33.35-3.24-83.65,1.35-117.31l50.28-369.09c5.23-38.37,19.32-94.47,36.74-129.04,7.95-15.77,18.73-39.22,28.4-53.87,12.68-19.21,28.33-36.75,45.29-52.09,27.96-25.27,74.98-50.65,108.78-67.32,34.72-17.11,89.76-30.55,128.17-35.43l678.51-86.23c14.55-1.85,36.22-3.66,50.88-3.66,100.69,0,240.11,39.98,308.92,113.57,41.46,44.34,72.42,99.04,85.41,158.85,8.92,41.05,10.25,93.98,4.43,136.55l-43.55,318.66c-5.24,38.35-18.02,84.72-35.46,119.27-16.97,33.63-40.4,73.29-67.17,99.81-26.77,26.51-58.72,57.55-92.51,74.2-34.71,17.1-73.06,37.64-111.45,42.52l-234.33,48.44Z"/>
  <path class="st45" d="M1089.53,1348.5c-1.84,4.52-4.01,8.92-6.46,13.14-4.72,8.15-11.14,14.94-16.65,21.82-22.07,27.54-77.64,60.74-104.99,83.39-60.86,50.4-216.51,88.14-295.58,88.14,0,0,0,0,0,0-39.45,0-118.61-2-155.72-15.47-10.52-3.82-22.18,3.05-32.24-1.78-30.73-14.78-63.31-.06-88.32-23.34-15.12-5.87-37.64-17.77-53.91-39.19l-105.19-138.47c-27.11-35.69-59.4-94.66-72.11-137.64-3.91-13.21-6.96-26.73-8.77-40.34-4.32-32.5-2.91-83.32,1.56-116.12l49.77-365.38c5.09-37.39,19.11-94.14,36.09-127.81,7.74-15.36,18.43-39.14,27.8-53.44,12.48-19.05,28.02-36.38,44.85-51.46,27.35-24.5,74.96-49.6,107.9-65.83,33.83-16.68,89.42-30.02,126.84-34.77l671.13-85.29c14.18-1.8,36.04-3.66,50.32-3.66,98.11,0,238.73,38.56,306.04,110.02,40.78,43.3,71.47,96.92,84.15,155.71,8.63,40.01,9.84,92.7,4.17,134.18l-42.79,313.12c-5.11,37.37-17.7,83.57-34.69,117.23-16.54,32.77-39.5,72.41-65.58,98.25-26.08,25.83-57.35,57.07-90.28,73.29-33.82,16.66-71.32,37.7-108.73,42.46l-228.6,49.27Z"/>
  <path class="st4" d="M1094.98,1338.96c-1.81,4.53-3.97,8.93-6.42,13.15-4.73,8.14-11.26,14.82-16.82,21.62-21.73,26.63-79.24,59.6-105.88,81.66-59.26,49.07-218.92,86.85-295.92,86.85,0,0,0,0,0,0-38.41,0-119.57-1.43-155.71-14.54-10.24-3.72-21.73,4.13-31.53-.58-29.92-14.39-62.07,3.47-86.42-19.19-14.81-4.95-37.71-16.28-54.02-37.75l-104.11-137.05c-26.4-34.75-59.18-94.12-71.67-135.93-3.9-13.05-6.94-26.44-8.7-39.91-4.14-31.65-2.58-83,1.78-114.93l49.27-361.67c4.96-36.4,18.9-93.8,35.43-126.59,7.54-14.96,18.13-39.05,27.21-53.01,12.29-18.89,27.7-36.01,44.41-50.84,26.74-23.74,74.95-48.54,107.01-64.35,32.94-16.24,89.07-29.48,125.51-34.11l663.75-84.36c13.81-1.75,35.86-3.66,49.77-3.66,95.53,0,237.36,37.13,303.16,106.47,40.11,42.26,70.52,94.79,82.89,152.57,8.34,38.97,9.42,91.42,3.9,131.8l-42.04,307.59c-4.97,36.38-17.38,82.43-33.92,115.2-16.1,31.91-38.6,71.53-64,96.69-25.39,25.15-55.98,56.59-88.04,72.39-32.93,16.23-69.59,37.76-106.02,42.39l-222.88,50.09Z"/>
  <path class="st27" d="M1100.42,1329.42c-1.78,4.54-3.93,8.95-6.38,13.16-4.74,8.13-11.39,14.69-16.98,21.42-21.37,25.72-80.84,58.47-106.76,79.93-57.66,47.74-221.34,85.56-296.25,85.56,0,0,0,0,0,0-37.37,0-120.54-.86-155.7-13.62-9.96-3.62-21.29,5.21-30.82.62-29.11-14-60.83,7.01-84.52-15.05-14.5-4.03-37.79-14.79-54.13-36.3l-103.03-135.62c-25.69-33.81-58.96-93.57-71.22-134.22-3.89-12.9-6.92-26.14-8.64-39.48-3.96-30.81-2.24-82.67,1.99-113.74l48.76-357.96c4.83-35.42,18.69-93.46,34.77-125.36,7.34-14.55,17.82-38.97,26.61-52.58,12.09-18.73,27.39-35.64,43.97-50.22,26.13-22.97,74.93-47.48,106.13-62.87,32.05-15.8,88.73-28.95,124.18-33.45l656.37-83.42c13.43-1.71,35.67-3.66,49.21-3.66,92.94,0,235.99,35.71,300.28,102.91,39.44,41.23,69.57,92.66,81.63,149.44,8.05,37.93,9,90.13,3.63,129.42l-41.28,302.05c-4.84,35.4-17.06,81.28-33.15,113.17-15.67,31.05-37.7,70.65-62.41,95.13-24.71,24.47-54.61,56.11-85.81,71.48-32.04,15.79-67.86,37.82-103.3,42.33l-217.15,50.92Z"/>
  <path class="st35" d="M1105.87,1319.88c-1.75,4.55-3.89,8.97-6.35,13.17-4.75,8.11-11.51,14.56-17.15,21.23-21,24.81-82.44,57.33-107.64,78.2-56.06,46.42-223.75,84.27-296.58,84.27,0,0,0,0,0,0-36.33,0-121.5-.28-155.68-12.69-9.69-3.52-20.84,6.28-30.11,1.83-28.31-13.61-59.58,10.54-82.62-10.9-14.2-3.12-37.86-13.29-54.23-34.85l-101.94-134.2c-24.97-32.87-58.74-93.03-70.78-132.51-3.89-12.75-6.9-25.85-8.57-39.05-3.79-29.96-1.91-82.34,2.2-112.55l48.26-354.25c4.69-34.44,18.47-93.12,34.11-124.14,7.13-14.15,17.51-38.89,26.01-52.15,11.89-18.57,27.08-35.27,43.52-49.59,25.51-22.21,74.92-46.43,105.25-61.38,31.16-15.36,88.38-28.41,122.85-32.79l648.99-82.48c13.06-1.66,35.49-3.66,48.65-3.66,90.36,0,234.63,34.28,297.4,99.36,38.77,40.2,68.62,90.54,80.37,146.3,7.77,36.89,8.59,88.85,3.36,127.05l-40.53,296.52c-4.7,34.42-16.74,80.13-32.38,111.13-15.23,30.18-36.8,69.77-60.83,93.57-24.02,23.8-53.24,55.63-83.57,70.58-31.15,15.35-66.12,37.88-100.58,42.26l-211.43,51.75Z"/>
  <path class="st8" d="M1111.31,1310.34c-1.72,4.56-3.85,8.98-6.31,13.18-4.76,8.1-11.63,14.43-17.32,21.03-20.62,23.92-84.05,56.2-108.52,76.47-54.46,45.09-226.16,82.98-296.91,82.98,0,0,0,0,0,0-35.29,0-122.47.29-155.67-11.76-9.41-3.42-20.4,7.36-29.4,3.03-27.5-13.22-58.34,14.08-80.72-6.75-13.89-2.2-37.93-11.8-54.34-33.41l-100.86-132.77c-24.26-31.93-58.53-92.48-70.33-130.81-3.88-12.6-6.88-25.56-8.51-38.62-3.62-29.11-1.58-82.02,2.41-111.36l47.75-350.53c4.56-33.45,18.26-92.79,33.45-122.92,6.93-13.74,17.2-38.81,25.41-51.72,11.7-18.41,26.76-34.9,43.08-48.97,24.88-21.46,74.9-45.37,104.37-59.9,30.27-14.92,88.04-27.88,121.53-32.13l641.61-81.54c12.69-1.61,35.31-3.66,48.09-3.66,87.78,0,233.27,32.85,294.52,95.81,38.1,39.17,67.67,88.41,79.11,143.17,7.49,35.85,8.17,87.56,3.1,124.67l-39.77,290.98c-4.57,33.43-16.41,78.98-31.61,109.1-14.79,29.32-35.9,68.89-59.24,92.01-23.34,23.12-51.87,55.15-81.33,69.67-30.26,14.91-64.39,37.94-97.86,42.19l-205.7,52.58Z"/>
  <path class="st49" d="M1116.76,1300.81c-1.69,4.57-3.81,9-6.27,13.19-4.77,8.09-11.75,14.3-17.48,20.83-20.22,23.03-85.65,55.06-109.41,74.73-52.86,43.76-228.58,81.7-297.25,81.7,0,0,0,0,0,0-34.26,0-123.43.86-155.66-10.84-9.13-3.31-19.95,8.43-28.69,4.23-26.69-12.83-57.1,17.61-78.82-2.6-13.59-1.29-38-10.31-54.45-31.96l-99.78-131.35c-23.55-31-58.32-91.93-69.89-129.1-3.87-12.44-6.86-25.26-8.44-38.19-3.45-28.26-1.25-81.69,2.63-110.17l47.25-346.82c4.42-32.47,18.05-92.45,32.8-121.69,6.73-13.34,16.89-38.73,24.81-51.29,11.5-18.25,26.44-34.52,42.64-48.35,24.26-20.7,74.88-44.32,103.49-58.41,29.38-14.48,87.69-27.34,120.2-31.47l634.23-80.61c12.31-1.57,35.13-3.67,47.53-3.67,85.2,0,231.92,31.42,291.63,92.25,37.43,38.14,66.72,86.28,77.85,140.03,7.2,34.8,7.75,86.28,2.83,122.3l-39.01,285.44c-4.44,32.45-16.09,77.84-30.84,107.07-14.36,28.46-35,68.01-57.65,90.45-22.65,22.44-50.51,54.67-79.1,68.76-29.37,14.47-62.66,38-95.14,42.13l-199.98,53.4Z"/>
  <path class="st10" d="M1122.2,1291.27c-1.66,4.58-3.77,9.01-6.24,13.19-4.78,8.08-11.86,14.16-17.65,20.63-19.81,22.16-87.25,53.93-110.29,73-51.25,42.44-230.99,80.41-297.58,80.41,0,0,0,0,0,0-33.22,0-124.4,1.43-155.65-9.91-8.86-3.21-19.51,9.51-27.98,5.44-25.88-12.44-55.86,21.15-76.92,1.54-13.28-.37-38.08-8.82-54.56-30.52l-98.7-129.92c-22.83-30.06-58.12-91.38-69.44-127.39-3.87-12.29-6.85-24.97-8.38-37.76-3.29-27.41-.92-81.37,2.84-108.99l46.74-343.11c4.29-31.48,17.84-92.11,32.14-120.47,6.52-12.94,16.58-38.65,24.21-50.86,11.3-18.09,26.13-34.15,42.2-47.73,23.62-19.96,74.87-43.26,102.6-56.93,28.49-14.04,87.35-26.81,118.87-30.81l626.85-79.67c11.94-1.52,34.95-3.67,46.98-3.67,82.62,0,230.57,29.98,288.75,88.7,36.77,37.11,65.77,84.15,76.58,136.9,6.92,33.76,7.34,84.99,2.56,119.92l-38.26,279.91c-4.3,31.47-15.77,76.69-30.07,105.04-13.92,27.6-34.1,67.13-56.07,88.89-21.96,21.76-49.14,54.2-76.86,67.86-28.48,14.03-60.92,38.06-92.43,42.06l-194.25,54.23Z"/>
  <path class="st31" d="M1127.65,1281.73c-1.62,4.59-3.72,9.03-6.2,13.2-4.79,8.07-11.98,14.03-17.82,20.44-19.39,21.29-88.85,52.79-111.17,71.27-49.65,41.11-233.4,79.12-297.91,79.12,0,0,0,0,0,0-32.18,0-125.36,2-155.64-8.98-8.58-3.11-19.07,10.59-27.27,6.64-25.07-12.05-54.62,24.68-75.02,5.69-12.97.55-38.15-7.32-54.67-29.07l-97.61-128.5c-22.12-29.12-57.92-90.83-69-125.68-3.86-12.14-6.83-24.67-8.31-37.33-3.12-26.56-.59-81.04,3.05-107.8l46.23-339.4c4.16-30.5,17.63-91.77,31.48-119.24,6.32-12.53,16.26-38.57,23.61-50.43,11.11-17.93,25.81-33.77,41.75-47.1,22.99-19.21,74.85-42.2,101.72-55.45,27.6-13.6,87.01-26.27,117.54-30.15l619.47-78.73c11.57-1.47,34.77-3.67,46.42-3.67,80.04,0,229.23,28.54,285.87,85.15,36.11,36.09,64.82,82.02,75.32,133.76,6.64,32.72,6.92,83.71,2.29,117.55l-37.5,274.37c-4.17,30.48-15.45,75.54-29.3,103-13.49,26.73-33.2,66.25-54.48,87.32-21.28,21.08-47.77,53.72-74.63,66.95-27.59,13.59-59.19,38.11-89.71,41.99l-188.52,55.06Z"/>
  <path class="st0" d="M1133.09,1272.19c-1.59,4.6-3.68,9.04-6.16,13.21-4.8,8.05-11.05,15.05-17.98,20.24-14.96,23.51-90.45,51.66-112.05,69.54-48.05,39.79-235.82,77.83-298.24,77.83,0,0,0,0,0,0-31.14,0-126.33,2.58-155.63-8.06-8.3-3.01-18.62,11.66-26.56,7.84-24.26-11.67-53.38,28.22-73.12,9.84-12.67,1.46-38.22-5.83-54.78-27.62l-96.53-127.08c-21.41-28.18-57.73-90.28-68.55-123.97-3.85-11.99-6.81-24.38-8.25-36.9-2.96-25.71-.26-80.71,3.27-106.61l45.73-335.69c4.02-29.52,17.42-91.43,30.82-118.02,6.11-12.13,15.95-38.49,23.01-50,10.92-17.77,25.49-33.4,41.31-46.48,22.34-18.47,74.84-41.15,100.84-53.96,26.71-13.17,86.66-25.74,116.21-29.49l612.09-77.79c11.19-1.42,34.58-3.67,45.86-3.67,77.45,0,227.89,27.1,282.99,81.6,35.45,35.07,63.87,79.89,74.06,130.63,6.36,31.68,6.5,82.43,2.03,115.17l-36.74,268.84c-4.03,29.5-15.13,74.4-28.53,100.97-13.05,25.87-32.31,65.37-52.9,85.76-20.59,20.4-46.4,53.24-72.39,66.05-26.7,13.16-57.46,38.17-86.99,41.93l-182.8,55.88Z"/>
  <path class="st24" d="M1138.54,1262.65c-1.56,4.62-3.64,9.06-6.13,13.22-4.8,8.04-11.12,14.99-18.15,20.04-14.46,22.72-92.06,50.52-112.93,67.81-46.45,38.46-238.23,76.54-298.58,76.54,0,0,0,0,0,0-30.1,0-127.29,3.15-155.62-7.13-8.03-2.91-18.18,12.74-25.85,9.05-23.45-11.28-52.13,31.75-71.22,13.99-12.36,2.38-38.29-4.34-54.88-26.18l-95.45-125.65c-20.69-27.24-57.54-89.73-68.11-122.26-3.85-11.84-6.79-24.09-8.18-36.47-2.8-24.86.07-80.39,3.48-105.42l45.22-331.97c3.89-28.53,17.21-91.1,30.16-116.79,5.91-11.72,15.63-38.42,22.42-49.57,10.72-17.62,25.16-33.02,40.87-45.86,21.7-17.74,74.82-40.09,99.96-52.48,25.82-12.73,86.32-25.2,114.88-28.83l604.71-76.85c10.82-1.38,34.4-3.67,45.3-3.67,74.87,0,226.56,25.65,280.11,78.04,34.8,34.05,62.92,77.76,72.8,127.49,6.09,30.64,6.09,81.14,1.76,112.79l-35.99,263.3c-3.9,28.52-14.8,73.25-27.77,98.94-12.62,25.01-31.41,64.49-51.31,84.2-19.9,19.72-45.03,52.76-70.15,65.14-25.81,12.72-55.72,38.23-84.27,41.86l-177.07,56.71Z"/>
  <path class="st26" d="M1143.98,1253.11c-1.53,4.63-3.6,9.08-6.09,13.23-4.81,8.03-11.2,14.92-18.31,19.84-13.97,21.94-93.66,49.39-113.82,66.08-44.85,37.13-240.64,75.25-298.91,75.25,0,0,0,0,0,0-29.07,0-128.26,3.72-155.6-6.21-7.75-2.81-17.73,13.82-25.14,10.25-22.64-10.89-50.89,35.29-69.32,18.14-12.05,3.29-38.36-2.84-54.99-24.73l-94.37-124.23c-19.98-26.3-57.35-89.17-67.66-120.55-3.84-11.69-6.77-23.79-8.12-36.04-2.65-24.01.4-80.06,3.69-104.23l44.72-328.26c3.75-27.55,16.99-90.76,29.5-115.57,5.71-11.32,15.31-38.35,21.82-49.14,10.53-17.46,24.84-32.64,40.43-45.23,21.05-17.01,74.81-39.03,99.07-51,24.93-12.29,85.97-24.67,113.55-28.17l597.33-75.92c10.45-1.33,34.22-3.67,44.75-3.67,72.29,0,225.24,24.2,277.23,74.49,34.14,33.03,61.97,75.63,71.54,124.36,5.81,29.59,5.67,79.86,1.49,110.42l-35.23,257.77c-3.76,27.53-14.48,72.1-27,96.9-12.18,24.15-30.51,63.61-49.72,82.64-19.22,19.04-43.66,52.28-67.92,64.23-24.92,12.28-53.99,38.29-81.56,41.79l-171.35,57.54Z"/>
  <path class="st11" d="M1149.43,1243.58c-1.5,4.64-3.56,9.09-6.05,13.24-4.82,8.02-11.28,14.86-18.48,19.64-13.47,21.16-95.26,48.25-114.7,64.35-43.25,35.81-243.06,73.96-299.24,73.96,0,0,0,0,0,0-28.03,0-129.22,4.29-155.59-5.28-7.47-2.71-17.29,14.89-24.43,11.45-21.84-10.5-49.65,38.82-67.42,22.28-11.75,4.21-38.44-1.35-55.1-23.29l-93.28-122.8c-19.26-25.36-57.17-88.62-67.22-118.84-3.84-11.54-6.75-23.5-8.06-35.61-2.49-23.16.73-79.74,3.91-103.04l44.21-324.55c3.62-26.56,16.78-90.42,28.85-114.35,5.5-10.91,14.99-38.28,21.22-48.71,10.33-17.31,24.52-32.26,39.99-44.61,20.39-16.28,74.79-37.98,98.19-49.51,24.04-11.85,85.63-24.14,112.22-27.51l589.95-74.98c10.07-1.28,34.04-3.67,44.19-3.67,69.71,0,223.93,22.74,274.35,70.94,33.5,32.02,61.02,73.5,70.28,121.22,5.54,28.55,5.25,78.57,1.22,108.04l-34.47,252.23c-3.63,26.55-14.16,70.95-26.23,94.87-11.75,23.28-29.61,62.72-48.14,81.08-18.53,18.36-42.29,51.8-65.68,63.33-24.03,11.84-52.26,38.35-78.84,41.73l-165.62,58.37Z"/>
  <path class="st15" d="M1154.87,1234.04c-1.47,4.65-3.52,9.11-6.02,13.25-4.83,8.01-11.35,14.79-18.65,19.45-12.97,20.37-96.86,47.12-115.58,62.62-41.64,34.48-245.47,72.68-299.57,72.68,0,0,0,0,0,0-26.99,0-130.19,4.86-155.58-4.35-7.2-2.61-16.84,15.97-23.72,12.66-21.03-10.11-48.41,42.36-65.52,26.43-11.44,5.12-38.51.14-55.21-21.84l-92.2-121.38c-18.55-24.42-57-88.06-66.77-117.13-3.83-11.39-6.73-23.2-7.99-35.18-2.35-22.31,1.06-79.41,4.12-101.85l43.71-320.84c3.49-25.58,16.57-90.08,28.19-113.12,5.3-10.51,14.66-38.21,20.62-48.28,10.14-17.15,24.19-31.87,39.54-43.99,19.73-15.56,74.77-36.92,97.31-48.03,23.15-11.41,85.29-23.6,110.89-26.86l582.57-74.04c9.7-1.23,33.86-3.67,43.63-3.67,67.13,0,222.63,21.28,271.47,67.39,32.85,31.01,60.06,71.36,69.02,118.09,5.27,27.5,4.84,77.29.96,105.67l-33.72,246.69c-3.49,25.57-13.84,69.81-25.46,92.84-11.31,22.42-28.71,61.84-46.55,79.52-17.84,17.68-40.92,51.32-63.45,62.42-23.14,11.4-50.52,38.41-76.12,41.66l-159.9,59.19Z"/>
  <path class="st30" d="M1160.32,1224.5c-1.44,4.66-3.48,9.12-5.98,13.26-4.84,8-11.43,14.72-18.81,19.25-12.47,19.59-98.46,45.98-116.46,60.88-40.04,33.16-247.88,71.39-299.91,71.39,0,0,0,0,0,0-25.95,0-131.15,5.44-155.57-3.43-6.92-2.51-16.4,17.04-23.02,13.86-20.22-9.72-47.17,45.89-63.62,30.58-11.13,6.04-38.58,1.64-55.32-20.39l-91.12-119.95c-17.84-23.48-56.83-87.5-66.33-115.42-3.83-11.25-6.71-22.9-7.93-34.75-2.2-21.46,1.39-79.09,4.33-100.66l43.2-317.13c3.35-24.6,16.36-89.74,27.53-111.9,5.1-10.11,14.34-38.14,20.02-47.85,9.95-17,23.86-31.49,39.1-43.37,19.06-14.85,74.76-35.86,96.43-46.54,22.26-10.97,84.94-23.07,109.56-26.2l575.19-73.1c9.33-1.19,33.67-3.67,43.07-3.67,64.54,0,221.33,19.81,268.59,63.83,32.21,30.01,59.11,69.23,67.75,114.95,5,26.46,4.42,76,.69,103.29l-32.96,241.16c-3.36,24.58-13.52,68.66-24.69,90.81-10.88,21.56-27.81,60.96-44.97,77.96-17.16,17-39.55,50.84-61.21,61.52-22.25,10.96-48.79,38.47-73.4,41.59l-154.17,60.02Z"/>
  <path class="st18" d="M1165.76,1214.96c-1.41,4.67-3.44,9.14-5.94,13.27-4.85,7.98-11.51,14.66-18.98,19.05-11.97,18.8-100.07,44.85-117.35,59.15-38.44,31.83-250.3,70.1-300.24,70.1,0,0,0,0,0,0-24.91,0-132.12,6.01-155.56-2.5-6.64-2.41-15.95,18.12-22.31,15.07-19.41-9.33-45.92,49.43-61.72,34.73-10.83,6.96-38.65,3.13-55.43-18.95l-90.04-118.53c-17.12-22.54-56.67-86.94-65.88-113.71-3.82-11.1-6.69-22.61-7.86-34.32-2.06-20.61,1.73-78.76,4.55-99.47l42.7-313.41c3.22-23.61,16.15-89.41,26.87-110.67,4.89-9.7,14.01-38.07,19.42-47.42,9.76-16.85,23.53-31.11,38.66-42.74,18.38-14.14,74.74-34.81,95.54-45.06,21.37-10.53,84.6-22.53,108.23-25.54l567.81-72.16c8.96-1.14,33.49-3.68,42.52-3.68,61.96,0,220.05,18.33,265.7,60.28,31.57,29.01,58.16,67.1,66.49,111.81,4.74,25.41,4,74.72.42,100.92l-32.2,235.62c-3.23,23.6-13.19,67.51-23.92,88.77-10.44,20.7-26.91,60.08-43.38,76.4-16.47,16.32-38.18,50.36-58.97,60.61-21.36,10.53-47.06,38.52-70.68,41.53l-148.44,60.85Z"/>
  <path class="st5" d="M1171.21,1205.42c-1.38,4.68-3.4,9.15-5.91,13.27-4.86,7.97-11.59,14.59-19.15,18.85-11.47,18.02-101.67,43.71-118.23,57.42-36.84,30.5-252.71,68.81-300.57,68.81,0,0,0,0,0,0-23.88,0-133.08,6.58-155.55-1.57-6.37-2.31-15.51,19.2-21.6,16.27-18.6-8.94-44.68,52.96-59.82,38.88-10.52,7.87-38.73,4.62-55.53-17.5l-88.95-117.1c-16.41-21.6-56.51-86.38-65.44-112-3.82-10.95-6.67-22.31-7.8-33.89-1.92-19.75,2.06-78.43,4.76-98.28l42.19-309.7c3.08-22.63,15.94-89.07,26.21-109.45,4.69-9.3,13.68-38.01,18.82-46.99,9.57-16.7,23.2-30.72,38.22-42.12,17.7-13.44,74.73-33.75,94.66-43.58,20.48-10.09,84.25-22,106.9-24.88l560.43-71.23c8.58-1.09,33.31-3.68,41.96-3.68,59.38,0,218.78,16.85,262.82,56.73,30.94,28.01,57.21,64.96,65.23,108.68,4.47,24.36,3.59,73.44.15,98.54l-31.45,230.09c-3.09,22.62-12.87,66.37-23.15,86.74-10.01,19.83-26.01,59.2-41.8,74.84-15.79,15.64-36.81,49.89-56.74,59.71-20.47,10.09-45.32,38.58-67.97,41.46l-142.72,61.67Z"/>
  <path class="st33" d="M1176.65,1195.88c-1.35,4.69-3.35,9.17-5.87,13.28-4.87,7.96-11.66,14.53-19.31,18.65-10.97,17.24-103.27,42.58-119.11,55.69-35.24,29.18-255.12,67.52-300.9,67.52,0,0,0,0,0,0-22.84,0-134.05,7.15-155.53-.65-6.09-2.21-15.06,20.27-20.89,17.47-17.79-8.56-43.44,56.5-57.92,43.02-10.21,8.79-38.8,6.12-55.64-16.06l-87.87-115.68c-15.7-20.66-56.36-85.82-64.99-110.29-3.81-10.8-6.65-22.02-7.73-33.46-1.78-18.9,2.39-78.11,4.97-97.1l41.68-305.99c2.95-21.64,15.73-88.73,25.56-108.23,4.48-8.89,13.34-37.94,18.22-46.56,9.38-16.55,22.86-30.33,37.77-41.5,17.02-12.74,74.71-32.69,93.78-42.09,19.58-9.65,83.91-21.46,105.58-24.22l553.05-70.29c8.21-1.04,33.13-3.68,41.4-3.68,56.8,0,217.52,15.36,259.94,53.18,30.32,27.02,56.26,62.82,63.97,105.54,4.21,23.32,3.17,72.15-.11,96.16l-30.69,224.55c-2.96,21.63-12.55,65.22-22.38,84.71-9.57,18.97-25.11,58.32-40.21,73.28-15.1,14.96-35.44,49.41-54.5,58.8-19.58,9.65-43.59,38.64-65.25,41.39l-136.99,62.5Z"/>
  <path class="st36" d="M1182.09,1186.34c-1.32,4.71-3.31,9.19-5.83,13.29-4.88,7.95-11.74,14.46-19.48,18.46-10.47,16.45-104.87,41.44-119.99,53.96-33.64,27.85-257.54,66.23-301.24,66.23,0,0,0,0,0,0-21.8,0-135.01,7.72-155.52.28-5.81-2.11-14.62,21.35-20.18,18.68-16.98-8.17-42.2,60.04-56.02,47.17-9.91,9.7-38.87,7.61-55.75-14.61l-86.79-114.25c-14.98-19.72-56.22-85.25-64.55-108.58-3.81-10.66-6.64-21.72-7.67-33.03-1.65-18.04,2.72-77.78,5.19-95.91l41.18-302.28c2.82-20.66,15.51-88.39,24.9-107,4.28-8.49,13.01-37.88,17.63-46.12,9.19-16.4,22.53-29.94,37.33-40.87,16.33-12.06,74.7-31.64,92.9-40.61,18.69-9.22,83.56-20.93,104.25-23.56l545.67-69.35c7.84-1,32.95-3.68,40.84-3.68,54.22,0,216.27,13.86,257.06,49.62,29.7,26.04,55.3,60.69,62.71,102.41,3.95,22.27,2.75,70.87-.38,93.79l-29.93,219.02c-2.82,20.65-12.23,64.07-21.61,82.67-9.14,18.11-24.21,57.44-38.62,71.72-14.41,14.28-34.07,48.93-52.27,57.89-18.69,9.21-41.86,38.7-62.53,41.33l-131.27,63.33Z"/>
  <path class="st47" d="M1187.54,1176.81c-1.29,4.72-3.27,9.2-5.8,13.3-4.89,7.94-11.82,14.4-19.65,18.26-9.98,15.67-106.48,40.31-120.87,52.23-32.03,26.52-259.95,64.94-301.57,64.94,0,0,0,0,0,0-20.76,0-135.98,8.3-155.51,1.21-5.53-2.01-14.17,22.43-19.47,19.88-16.17-7.78-40.96,63.57-54.12,51.32-9.6,10.62-38.94,9.1-55.86-13.17l-85.71-112.83c-14.27-18.79-56.08-84.69-64.11-106.87-3.8-10.51-6.62-21.42-7.6-32.6-1.52-17.19,3.05-77.46,5.4-94.72l40.67-298.56c2.68-19.68,15.3-88.05,24.24-105.78,4.08-8.09,12.67-37.82,17.03-45.69,9-16.25,22.19-29.55,36.89-40.25,15.63-11.37,74.68-30.58,92.01-39.13,17.8-8.78,83.22-20.39,102.92-22.9l538.29-68.41c7.46-.95,32.77-3.68,40.28-3.68,51.64,0,215.04,12.35,254.18,46.07,29.08,25.06,54.35,58.55,61.45,99.27,3.7,21.22,2.34,69.58-.65,91.41l-29.18,213.48c-2.69,19.67-11.9,62.92-20.84,80.64-8.7,17.25-23.31,56.56-37.04,70.16-13.73,13.6-32.7,48.45-50.03,56.99-17.8,8.77-40.12,38.76-59.81,41.26l-125.54,64.16Z"/>
  <path class="st32" d="M1192.98,1167.27c-1.26,4.73-3.23,9.22-5.76,13.31-4.9,7.92-11.9,14.33-19.81,18.06-9.48,14.89-108.08,39.17-121.76,50.5-30.43,25.2-262.36,63.66-301.9,63.66,0,0,0,0,0,0-19.72,0-136.94,8.87-155.5,2.13-5.26-1.91-13.73,23.5-18.76,21.08-15.37-7.39-39.71,67.11-52.22,55.47-9.3,11.54-39.02,10.59-55.97-11.72l-84.63-111.4c-13.56-17.85-55.95-84.12-63.66-105.16-3.8-10.37-6.6-21.12-7.54-32.17-1.39-16.33,3.38-77.13,5.61-93.53l40.17-294.85c2.55-18.69,15.09-87.72,23.58-104.55,3.87-7.68,12.32-37.76,16.43-45.26,8.81-16.11,21.85-29.16,36.45-39.63s74.66-29.52,91.13-37.64c16.91-8.34,82.88-19.86,101.59-22.24l530.91-67.47c7.09-.9,32.58-3.68,39.73-3.68,49.05,0,213.82,10.82,251.3,42.52,28.48,24.08,53.4,56.41,60.19,96.14,3.45,20.17,1.92,68.3-.92,89.04l-28.42,207.94c-2.55,18.68-11.58,61.78-20.08,78.61-8.27,16.39-22.41,55.68-35.45,68.6-13.04,12.92-31.33,47.97-47.79,56.08-16.91,8.33-38.39,38.82-57.1,41.2l-119.82,64.98Z"/>
  <path class="st34" d="M1198.43,1157.73c-1.23,4.74-3.19,9.23-5.73,13.32-4.91,7.91-11.97,14.26-19.98,17.86-8.98,14.1-109.68,38.04-122.64,48.77-28.83,23.87-264.78,62.37-302.23,62.37,0,0,0,0,0,0-18.69,0-137.91,9.44-155.49,3.06-4.98-1.81-13.28,24.58-18.05,22.29-14.56-7-38.47,70.64-50.32,59.61-8.99,12.45-39.09,12.09-56.08-10.27l-83.54-109.98c-12.84-16.91-55.83-83.55-63.22-103.45-3.79-10.22-6.58-20.83-7.47-31.74-1.27-15.48,3.71-76.8,5.83-92.34l39.66-291.14c2.41-17.71,14.88-87.38,22.92-103.33,3.67-7.28,11.98-37.71,15.83-44.83,8.63-15.96,21.51-28.77,36.01-39.01s74.65-28.47,90.25-36.16c16.02-7.9,82.53-19.32,100.26-21.58l523.53-66.54c6.72-.85,32.4-3.68,39.17-3.68,46.47,0,212.62,9.28,248.42,38.97,27.88,23.12,52.45,54.27,58.93,93,3.2,19.12,1.5,67.01-1.18,86.66l-27.66,202.41c-2.42,17.7-11.26,60.63-19.31,76.57-7.83,15.52-21.51,54.8-33.87,67.04-12.35,12.24-29.96,47.49-45.56,55.18-16.02,7.89-36.66,38.88-54.38,41.13l-114.09,65.81Z"/>
  <path class="st44" d="M1203.87,1148.19c-1.2,4.75-3.15,9.25-5.69,13.33-4.92,7.9-12.05,14.2-20.15,17.67-8.48,13.32-111.28,36.9-123.52,47.04-27.23,22.55-267.19,61.08-302.56,61.08,0,0,0,0,0,0-17.65,0-138.87,10.01-155.48,3.99-4.7-1.71-12.84,25.65-17.34,23.49-13.75-6.61-37.23,74.18-48.42,63.76-8.68,13.37-39.16,13.58-56.18-8.83l-82.46-108.55c-12.13-15.97-55.71-82.97-62.77-101.74-3.79-10.08-6.56-20.53-7.41-31.31-1.15-14.62,4.04-76.48,6.04-91.15l39.16-287.43c2.28-16.73,14.67-87.04,22.26-102.1,3.46-6.87,11.63-37.65,15.23-44.4,8.44-15.82,21.17-28.37,35.56-38.38,13.49-9.38,74.63-27.41,89.37-34.67,15.13-7.46,82.19-18.79,98.93-20.92l516.15-65.6c6.34-.81,32.22-3.68,38.61-3.68,43.89,0,211.44,7.73,245.54,35.41,27.28,22.15,51.49,52.12,57.66,89.87,2.95,18.07,1.08,65.73-1.45,84.29l-26.91,196.87c-2.28,16.72-10.94,59.48-18.54,74.54-7.4,14.66-20.61,53.92-32.28,65.48-11.67,11.56-28.59,47.01-43.32,54.27-15.13,7.46-34.92,38.94-51.66,41.06l-108.37,66.64Z"/>
  <path class="st7" d="M1209.32,1138.65c-1.17,4.76-3.11,9.26-5.65,13.34-4.93,7.89-12.13,14.13-20.31,17.47-7.98,12.54-112.88,35.77-124.4,45.3-25.63,21.22-269.6,59.79-302.9,59.79,0,0,0,0,0,0-16.61,0-139.84,10.58-155.47,4.91-4.43-1.61-12.39,26.73-16.63,24.69-12.94-6.22-35.99,77.71-46.52,67.91-8.38,14.28-39.23,15.07-56.29-7.38l-81.38-107.13c-11.42-15.03-55.61-82.4-62.33-100.03-3.78-9.93-6.54-20.23-7.34-30.88-1.04-13.77,4.37-76.15,6.25-89.96l38.65-283.72c2.14-15.74,14.46-86.7,21.61-100.88,3.26-6.47,11.28-37.6,14.63-43.97,8.26-15.68,19.29-30.71,35.12-37.76,10.98-10.88,74.62-26.36,88.48-33.19,14.24-7.02,81.84-18.25,97.6-20.26l508.77-64.66c5.97-.76,32.04-3.68,38.05-3.68,41.31,0,215.48.72,242.66,31.86,30.1,16.01,50.54,49.98,56.4,86.73,2.72,17.02.67,64.45-1.72,81.91l-26.15,191.34c-2.15,15.73-10.62,58.34-17.77,72.51-6.96,13.8-19.71,53.04-30.7,63.91-10.98,10.88-27.22,46.53-41.09,53.37-14.24,7.02-33.19,38.99-48.94,41l-102.64,67.46Z"/>
  <path class="st48" d="M1214.76,1129.11c-1.13,4.77-3.07,9.28-5.62,13.35-4.94,7.88-12.21,14.07-20.48,17.27-7.48,11.75-114.49,34.63-125.29,43.57-24.03,19.89-272.02,58.5-303.23,58.5,0,0,0,0,0,0-15.57,0-140.81,11.16-155.45,5.84-4.15-1.51-11.95,27.81-15.92,25.9-12.13-5.83-34.75,81.25-44.62,72.06-8.07,15.2-39.31,16.57-56.4-5.94l-80.3-105.7c-10.7-14.09-55.51-81.82-61.88-98.32-3.78-9.79-6.52-19.93-7.28-30.45-.93-12.91,4.7-75.83,6.47-88.77l38.14-280c2.01-14.76,14.25-86.36,20.95-99.66,3.06-6.06,10.92-37.55,14.03-43.54,8.07-15.54,18.93-30.41,34.68-37.14,10.3-10.2,74.6-25.3,87.6-31.71,13.35-6.58,81.5-17.72,96.27-19.6l501.38-63.72c5.6-.71,31.86-3.69,37.5-3.69,38.73,0,214.3-.89,239.78,28.31,29.54,14.84,49.59,47.83,55.14,83.6,2.48,15.96.25,63.16-1.99,79.53l-25.39,185.8c-2.02,14.75-10.29,57.19-17,70.48-6.53,12.94-18.81,52.16-29.11,62.35-10.29,10.2-25.85,46.06-38.85,52.46-13.35,6.58-31.46,39.05-46.22,40.93l-96.91,68.29Z"/>
  <path class="st22" d="M1220.21,1119.58c-1.1,4.78-3.02,9.3-5.58,13.35-4.95,7.87-12.28,14-20.65,17.07-6.98,10.97-116.09,33.5-126.17,41.84-22.42,18.57-274.43,57.21-303.56,57.21,0,0,0,0,0,0-14.53,0-141.77,11.73-155.44,6.76-3.87-1.41-11.5,28.88-15.21,27.1-11.32-5.44-33.5,84.78-42.72,76.21-7.76,16.12-39.38,18.06-56.51-4.49l-79.21-104.28c-9.99-13.15-55.41-81.24-61.44-96.61-3.78-9.65-6.5-19.63-7.21-30.02-.83-12.05,5.03-75.5,6.68-87.58l37.64-276.29c1.88-13.77,14.03-86.03,20.29-98.43,2.85-5.66,10.56-37.5,13.43-43.11,7.89-15.4,18.57-30.11,34.24-36.51,9.61-9.52,74.59-24.24,86.72-30.22,12.46-6.14,81.15-17.19,94.94-18.94l494-62.78c5.22-.66,31.67-3.69,36.94-3.69,36.14,0,213.12-2.49,236.89,24.76,28.98,13.67,48.63,45.68,53.88,80.46,2.25,14.91-.17,61.88-2.25,77.16l-24.64,180.27c-1.88,13.77-9.97,56.04-16.23,68.44-6.09,12.07-17.91,51.27-27.52,60.79-9.61,9.52-24.49,45.58-36.62,51.55-12.46,6.14-29.72,39.11-43.51,40.86l-91.19,69.12Z"/>
  <path class="st29" d="M1225.65,1110.04c-1.07,4.79-2.98,9.31-5.54,13.36-4.96,7.85-12.36,13.94-20.81,16.87-6.48,10.19-117.69,32.36-127.05,40.11-20.82,17.24-276.84,55.92-303.89,55.92,0,0,0,0,0,0-13.49,0-142.74,12.3-155.43,7.69-3.6-1.31-11.06,29.96-14.5,28.3-10.51-5.06-32.26,88.32-40.82,80.35-7.46,17.03-39.45,19.55-56.62-3.04l-78.13-102.85c-9.28-12.21-55.33-80.65-60.99-94.9-3.78-9.5-6.48-19.33-7.15-29.59-.73-11.19,5.36-75.17,6.89-86.39l37.13-272.58c1.74-12.79,13.82-85.69,19.63-97.21,2.65-5.26,10.2-37.46,12.84-42.68,7.7-15.26,18.2-29.81,33.79-35.89,8.92-8.84,74.57-23.19,85.84-28.74,11.57-5.7,80.81-16.65,93.61-18.28l486.62-61.85c4.85-.62,31.49-3.69,36.38-3.69,33.56,0,211.93-4.1,234.01,21.2,28.43,12.5,47.68,43.53,52.62,77.32,2.03,13.85-.58,60.59-2.52,74.78l-23.88,174.73c-1.75,12.78-9.65,54.89-15.46,66.41-5.66,11.21-17.02,50.39-25.94,59.23-8.92,8.84-23.12,45.1-34.38,50.65-11.57,5.7-27.99,39.17-40.79,40.8l-85.46,69.95Z"/>
  <path class="st3" d="M1231.1,1100.5c-1.04,4.81-2.94,9.33-5.51,13.37-4.97,7.84-12.44,13.87-20.98,16.68-5.99,9.4-119.29,31.23-127.93,38.38-19.22,15.91-279.26,54.63-304.23,54.63,0,0,0,0,0,0-12.46,0-143.7,12.87-155.42,8.62-3.32-1.21-10.61,31.04-13.79,29.51-9.7-4.67-31.02,91.85-38.92,84.5-7.15,17.95-39.52,21.05-56.72-1.6l-77.05-101.43c-8.56-11.27-55.26-80.06-60.55-93.19-3.77-9.36-6.46-19.03-7.09-29.16s5.69-74.85,7.11-85.21l36.63-268.87c1.61-11.81,13.61-85.35,18.97-95.98,2.45-4.85,9.83-37.42,12.24-42.25,7.52-15.12,17.84-29.52,33.35-35.27,8.24-8.16,74.55-22.13,84.95-27.26,10.68-5.27,80.47-16.12,92.28-17.62l479.24-60.91c4.48-.57,31.31-3.69,35.82-3.69,30.98,0,210.75-5.71,231.13,17.65,27.87,11.34,46.72,41.38,51.36,74.19,1.81,12.8-1,59.31-2.79,72.41l-23.12,169.19c-1.61,11.8-9.33,53.75-14.69,64.38-5.22,10.35-16.12,49.51-24.35,57.67-8.24,8.16-21.75,44.62-32.14,49.74-10.68,5.26-26.26,39.23-38.07,40.73l-79.74,70.77Z"/>
  <path class="st13" d="M1236.54,1090.96c-1.01,4.82-2.9,9.34-5.47,13.38-4.98,7.83-12.52,13.8-21.15,16.48-5.49,8.62-120.9,30.09-128.81,36.65-17.62,14.59-281.67,53.35-304.56,53.35,0,0,0,0,0,0-11.42,0-144.67,13.44-155.41,9.54-3.04-1.1-10.17,32.11-13.08,30.71-8.9-4.28-29.78,95.39-37.02,88.65-6.84,18.86-39.6,22.54-56.83-.15l-75.97-100c-7.85-10.33-55.19-79.47-60.1-91.48-3.77-9.22-6.44-18.73-7.02-28.73-.55-9.48,6.03-74.52,7.32-84.02l36.12-265.16c1.47-10.82,13.4-85.01,18.31-94.76,2.24-4.45,9.46-37.37,11.64-41.82,7.34-14.99,17.48-29.22,32.91-34.65,7.55-7.48,74.54-21.07,84.07-25.77,9.79-4.83,80.12-15.58,90.96-16.96l471.86-59.97c4.1-.52,31.13-3.69,35.26-3.69,28.4,0,209.57-7.31,228.25,14.1,27.31,10.17,45.77,39.23,50.1,71.05,1.6,11.74-1.42,58.02-3.06,70.03l-22.37,163.66c-1.48,10.82-9.01,52.6-13.92,62.34-4.79,9.49-15.22,48.63-22.77,56.11-7.55,7.48-20.38,44.14-29.91,48.84-9.79,4.82-24.52,39.29-35.35,40.66l-74.01,71.6Z"/>
  <path class="st42" d="M1241.99,1081.42c-.98,4.83-2.86,9.36-5.43,13.39-4.99,7.82-12.59,13.74-21.31,16.28-4.99,7.84-122.5,28.96-129.7,34.92-16.02,13.26-284.08,52.06-304.89,52.06,0,0,0,0,0,0-10.38,0-145.63,14.02-155.4,10.47-2.77-1-9.72,33.19-12.37,31.92-8.09-3.89-28.54,98.92-35.12,92.8-6.54,19.78-39.67,24.03-56.94,1.29l-74.88-98.58c-7.14-9.39-55.14-78.88-59.66-89.77-3.77-9.08-6.42-18.43-6.96-28.3-.47-8.62,6.36-74.2,7.53-82.83l35.62-261.44c1.34-9.84,13.19-84.67,17.66-93.54,2.04-4.04,9.09-37.34,11.04-41.39,7.16-14.86,17.11-28.92,32.47-34.02,6.86-6.8,74.52-20.02,83.19-24.29,8.9-4.39,79.78-15.05,89.63-16.3l464.48-59.03c3.73-.47,30.95-3.69,34.71-3.69,25.82,0,208.39-8.92,225.37,10.54,26.75,9,44.81,37.07,48.83,67.92,1.39,10.68-1.83,56.74-3.32,67.66l-21.61,158.12c-1.34,9.83-8.68,51.45-13.15,60.31-4.35,8.62-14.32,47.75-21.18,54.55-6.86,6.8-19.01,43.66-27.67,47.93-8.9,4.39-22.79,39.35-32.64,40.6l-68.29,72.43Z"/>
  <path class="st37" d="M1247.43,1071.88c-.95,4.84-2.82,9.37-5.4,13.4-5,7.81-12.67,13.67-21.48,16.08-4.49,7.05-124.1,27.82-130.58,33.19-14.42,11.94-286.5,50.77-305.22,50.77,0,0,0,0,0,0-9.34,0-146.6,14.59-155.39,11.4-2.49-.9-9.28,34.26-11.66,33.12-7.28-3.5-27.3,102.46-33.22,96.95-6.23,20.7-39.74,25.53-57.05,2.74l-73.8-97.15c-6.42-8.45-55.09-78.28-59.21-88.06-3.77-8.94-6.4-18.13-6.89-27.87-.39-7.76,6.69-73.87,7.74-81.64l35.11-257.73c1.21-8.85,12.98-84.34,17-92.31,1.83-3.64,8.09-37.66,10.44-40.96,4.29-15.72,16.75-28.62,32.03-33.4,6.18-6.12,74.51-18.96,82.31-22.8,8.01-3.95,79.43-14.51,88.3-15.64l457.1-58.09c3.36-.43,30.77-3.69,34.15-3.69,23.24,0,207.2-10.53,222.49,6.99,26.19,7.83,43.86,34.91,47.57,64.78,1.2,9.62-2.25,55.46-3.59,65.28l-20.85,152.59c-1.21,8.85-8.36,50.31-12.39,58.28-3.92,7.76-13.42,46.87-19.59,52.99-6.18,6.12-17.64,43.18-25.44,47.02-8.01,3.95-21.06,39.4-29.92,40.53l-62.56,73.25Z"/>
  <path class="st51" d="M1252.88,1062.35c-.92,4.85-2.78,9.39-5.36,13.41-5.01,7.79-12.75,13.61-21.64,15.88-3.99,6.27-125.7,26.69-131.46,31.45-12.81,10.61-288.91,49.48-305.56,49.48,0,0,0,0,0,0-8.3,0-147.56,15.16-155.37,12.32-2.21-.8-8.83,35.34-10.95,34.32-6.47-3.11-26.05,105.99-31.32,101.09-5.93,21.61-39.81,27.02-57.16,4.19l-72.72-95.73c-5.71-7.51-55.06-77.68-58.77-86.36s-6.38-17.83-6.83-27.44c-.32-6.9,7.02-73.54,7.96-80.45l34.6-254.02c1.07-7.87,12.77-84,16.34-91.09,1.63-3.23,7.76-37.6,9.84-40.53,4.04-15.59,16.39-28.32,31.58-32.78,5.49-5.44,74.49-17.9,81.42-21.32,7.12-3.51,79.09-13.98,86.97-14.98l449.72-57.16c2.99-.38,30.58-3.69,33.59-3.69,20.65,0,206.02-12.13,219.61,3.44,25.63,6.66,42.9,32.74,46.31,61.65,1.01,8.56-2.67,54.17-3.86,62.9l-20.1,147.05c-1.08,7.87-8.04,49.16-11.62,56.24-3.48,6.9-12.52,45.99-18.01,51.43-5.49,5.44-16.27,42.7-23.2,46.12-7.12,3.51-19.32,39.46-27.2,40.46l-56.83,74.08Z"/>
  <path class="st1" d="M1258.32,1052.81c-.89,4.86-2.74,9.41-5.32,13.42-5.02,7.78-12.82,13.54-21.81,15.69-3.49,5.48-127.3,25.55-132.34,29.72-11.21,9.28-291.32,48.19-305.89,48.19,0,0,0,0,0,0-7.27,0-148.53,15.73-155.36,13.25-1.94-.7-8.39,36.42-10.24,35.53-5.66-2.72-24.81,109.53-29.42,105.24-5.62,22.53-39.89,28.51-57.27,5.63l-71.64-94.3c-4.99-6.57-55.03-77.07-58.32-84.65-3.76-8.67-6.36-17.53-6.76-27.01-.25-6.03,7.35-73.22,8.17-79.26l34.1-250.31c.94-6.89,12.55-83.66,15.68-89.86,1.43-2.83,7.42-37.53,9.24-40.1,3.78-15.46,16.02-28.03,31.14-32.15,4.8-4.76,74.47-16.85,80.54-19.84,6.23-3.07,78.74-13.44,85.64-14.32l442.34-56.22c2.61-.33,30.4-3.69,33.03-3.69,18.07,0,204.84-13.74,216.73-.11,25.07,5.49,41.94,30.58,45.05,58.51.83,7.49-3.08,52.89-4.13,60.53l-19.34,141.52c-.94,6.88-7.72,48.01-10.85,54.21-3.05,6.04-11.62,45.11-16.42,49.87-4.8,4.76-14.9,42.22-20.96,45.21-6.23,3.07-17.59,39.52-24.48,40.4l-51.11,74.91Z"/>
  <path class="st43" d="M1263.77,1043.27c-.86,4.87-2.7,9.42-5.29,13.43-5.03,7.77-12.9,13.48-21.98,15.49-2.99,4.7-128.91,24.41-133.23,27.99-9.61,7.96-293.74,46.9-306.22,46.9,0,0,0,0,0,0-6.23,0-149.49,16.3-155.35,14.18-1.66-.6-7.94,37.49-9.53,36.73-4.85-2.33-23.57,113.06-27.52,109.39-5.31,23.44-39.96,30-57.37,7.08l-70.55-92.88c-4.28-5.64-55.02-76.46-57.88-82.94-3.76-8.53-6.34-17.23-6.7-26.58-.2-5.17,7.68-72.89,8.38-78.07l33.59-246.6c.8-5.9,12.34-83.32,15.02-88.64,1.22-2.43,7.08-37.47,8.64-39.67,3.52-15.33,15.66-27.73,30.7-31.53,4.12-4.08,74.46-15.79,79.66-18.35,5.34-2.63,78.4-12.91,84.31-13.66l434.96-55.28c2.24-.28,30.22-3.7,32.48-3.7,15.49,0,203.66-15.34,213.85-3.67,24.51,4.32,40.99,28.4,43.79,55.38.67,6.43-3.5,51.6-4.39,58.15l-18.58,135.98c-.81,5.9-7.4,46.86-10.08,52.18-2.61,5.17-10.72,44.23-14.84,48.31-4.12,4.08-13.53,41.75-18.73,44.31-5.34,2.63-15.86,39.58-21.76,40.33l-45.38,75.74Z"/>
  <path class="st40" d="M1269.21,1033.73c-.83,4.88-2.65,9.44-5.25,13.43-5.04,7.76-12.98,13.41-22.14,15.29-2.49,3.92-130.51,23.28-134.11,26.26-8.01,6.63-296.15,45.61-306.55,45.61,0,0,0,0,0,0-5.19,0-150.46,16.87-155.34,15.1-1.38-.5-7.5,38.57-8.82,37.93-4.04-1.94-22.33,116.6-25.62,113.54-5.01,24.36-40.03,31.5-57.48,8.52l-69.47-91.45c-3.57-4.7-55.02-75.84-57.43-81.23-3.76-8.39-6.32-16.92-6.63-26.15-.14-4.31,8.01-72.57,8.6-76.88l33.09-242.88c.67-4.92,12.13-82.98,14.37-87.42,1.02-2.02,6.74-37.41,8.05-39.24,3.27-15.2,15.3-27.43,30.26-30.91,3.43-3.4,74.44-14.73,78.78-16.87,4.45-2.19,78.06-12.37,82.98-13l427.58-54.34c1.87-.24,30.04-3.7,31.92-3.7,12.91,0,202.47-16.95,210.97-7.22,23.95,3.15,40.03,26.23,42.53,52.24.52,5.36-3.92,50.32-4.66,55.78l-17.83,130.44c-.67,4.92-7.07,45.72-9.31,50.15-2.18,4.31-9.82,43.35-13.25,46.75-3.43,3.4-12.16,41.27-16.49,43.4-4.45,2.19-14.12,39.64-19.05,40.26l-39.66,76.56Z"/>
  <path class="st21" d="M1274.66,1024.19c-.8,4.89-2.61,9.45-5.21,13.44-5.05,7.75-13.06,13.34-22.31,15.09-2,3.13-132.11,22.14-134.99,24.53-6.41,5.3-298.56,44.33-306.89,44.33,0,0,0,0,0,0-4.15,0-151.42,17.45-155.33,16.03-1.11-.4-7.05,39.65-8.11,39.14-3.23-1.56-21.09,120.14-23.72,117.69-4.7,25.28-40.1,32.99-57.59,9.97l-68.39-90.03c-2.85-3.76-55.03-75.22-56.99-79.52-3.76-8.26-6.3-16.62-6.57-25.72-.1-3.45,8.34-72.24,8.81-75.69l32.58-239.17c.54-3.94,11.92-82.65,13.71-86.19.82-1.62,6.4-37.34,7.45-38.81,3.01-15.07,14.94-27.13,29.81-30.29,2.75-2.72,74.43-13.68,77.89-15.39,3.56-1.76,77.71-11.84,81.65-12.34l420.2-53.4c1.49-.19,29.86-3.7,31.36-3.7,10.33,0,201.29-18.56,208.08-10.77,23.4,1.99,39.07,24.05,41.27,49.11.38,4.29-4.33,49.03-4.93,53.4l-17.07,124.91c-.54,3.93-6.75,44.57-8.54,48.11-1.74,3.45-8.92,42.47-11.67,45.19-2.75,2.72-10.79,40.79-14.26,42.5-3.56,1.75-12.39,39.7-16.33,40.2l-33.93,77.39Z"/>
  <path class="st23" d="M1280.1,1014.65c-.77,4.91-2.57,9.47-5.18,13.45-5.06,7.73-13.13,13.28-22.48,14.9-1.5,2.35-133.71,21.01-135.87,22.8-4.81,3.98-300.98,43.04-307.22,43.04,0,0,0,0,0,0-3.11,0-152.39,18.02-155.32,16.96-.83-.3-6.61,40.72-7.4,40.34-2.43-1.17-19.84,123.67-21.82,121.83-4.39,26.19-40.18,34.48-57.7,11.41l-67.31-88.6c-2.14-2.82-55.64-74.38-56.54-77.81-5.13-7.34-6.28-16.31-6.5-25.29-.06-2.59,8.67-71.92,9.02-74.5l32.08-235.46c.4-2.95,11.71-82.31,13.05-84.97.61-1.21,6.07-37.28,6.85-38.38,2.75-14.94,14.57-26.84,29.37-29.66,2.06-2.04,74.41-12.62,77.01-13.9,2.67-1.32,77.37-11.31,80.32-11.68l412.82-52.47c1.12-.14,29.67-3.7,30.8-3.7,7.75,0,200.11-20.16,205.2-14.32,22.84.82,38.11,21.86,40.01,45.97.25,3.22-4.75,47.75-5.2,51.03l-16.32,119.37c-.4,2.95-6.43,43.42-7.77,46.08-1.31,2.59-8.02,41.59-10.08,43.63-2.06,2.04-9.42,40.31-12.02,41.59-2.67,1.32-10.66,39.76-13.61,40.13l-28.21,78.22Z"/>
  <path class="st12" d="M1285.55,1005.12c-.74,4.92-2.53,9.48-5.14,13.46-5.07,7.72-13.21,13.21-22.64,14.7-1,1.57-135.31,19.87-136.75,21.07-3.2,2.65-303.39,41.75-307.55,41.75,0,0,0,0,0,0-2.08,0-153.35,18.59-155.31,17.88-.55-.2-6.17,41.8-6.69,41.54-1.62-.78-18.6,127.21-19.92,125.98-4.09,27.11-40.25,35.98-57.81,12.86l-66.22-87.18c-1.43-1.88-55.5-73.82-56.1-76.1-5.15-7.17-6.26-16.01-6.44-24.86-.03-1.73,9-71.59,9.24-73.32l31.57-231.75c.27-1.97,11.5-81.97,12.39-83.74.41-.81,5.73-37.21,6.25-37.95,2.5-14.81,14.21-26.54,28.93-29.04,1.37-1.36,74.4-11.56,76.13-12.42,1.78-.88,77.02-10.77,78.99-11.02l405.44-51.53c.75-.09,29.49-3.7,30.24-3.7,5.16,0,198.92-21.77,202.32-17.88,22.28-.35,37.15,19.67,38.74,42.83.15,2.15-5.17,46.47-5.46,48.65l-15.56,113.84c-.27,1.97-6.11,42.28-7,44.05-.87,1.72-7.12,40.71-8.49,42.06-1.37,1.36-8.05,39.83-9.78,40.68-1.78.88-8.92,39.81-10.89,40.07l-22.48,79.05Z"/>
  <path class="st2" d="M1290.99,995.58c-.71,4.93-2.49,9.5-5.1,13.47-5.08,7.71-13.29,13.15-22.81,14.5-.5.78-136.92,18.74-137.64,19.34-1.6,1.33-305.8,40.46-307.88,40.46,0,0,0,0,0,0-1.04,0-154.32,19.16-155.29,18.81-.28-.1-5.72,42.87-5.99,42.75-.81-.39-17.36,130.74-18.02,130.13-3.78,28.02-40.32,37.47-57.92,14.31l-65.14-85.75c-.71-.94-55.35-73.25-55.65-74.39-5.18-7.01-6.25-15.7-6.37-24.43-.01-.86,9.33-71.26,9.45-72.13l31.06-228.04c.13-.98,11.29-81.63,11.73-82.52.2-.4,5.39-37.15,5.65-37.52,2.24-14.67,13.85-26.24,28.49-28.42.69-.68,74.38-10.51,75.25-10.93.89-.44,76.68-10.24,77.66-10.36l398.06-50.59c.37-.05,29.31-3.7,29.69-3.7,2.58,0,197.74-23.38,199.44-21.43,21.72-1.52,36.19,17.47,37.48,39.7.06,1.08-5.58,45.18-5.73,46.27l-14.8,108.3c-.13.98-5.79,41.13-6.23,42.01-.44.86-6.22,39.82-6.91,40.5-.69.68-6.68,39.35-7.55,39.78-.89.44-7.19,39.87-8.18,40l-16.76,79.87Z"/>
  <path class="st50" d="M1312.85,564.38l-767.07,97.49c-14.56,1.85-26.06,13.25-28.05,27.79l-56.35,413.64c-1.16,8.52,1.11,17.15,6.31,24l119.27,157.01c17.63,23.21,54.55,13.19,58.02-15.75l21.39-178.23,602.02-76.51c14.56-1.85,26.06-13.24,28.04-27.78l52.63-385.09c2.89-21.13-15.06-39.25-36.22-36.56Z"/>
</svg>