<?xml version="1.0" encoding="utf-8"?>
<!-- Generator: Adobe Illustrator 27.4.0, SVG Export Plug-In . SVG Version: 6.00 Build 0)  -->
<svg version="1.1" id="Capa_1" xmlns="http://www.w3.org/2000/svg" xmlns:xlink="http://www.w3.org/1999/xlink" x="0px" y="0px"
	 viewBox="0 0 888.5 261.4" style="enable-background:new 0 0 888.5 261.4;" xml:space="preserve">
<style type="text/css">
	.st0{fill:#FFFFFF;}
	.st1{fill:#00C2FF;}
	.st2{fill:#FF6B6B;}
	.st3{fill:#27348B;}
	.st4{fill:#3A3A3A;}
	.st5{fill:#8F8F8F;}
	.st6{fill:#979797;}
	.st7{fill:#1D1D1B;}
</style>
<g>
	<g>
		<g>
			<g>
				<path class="st7" d="M309.1,119.3c1.1-1.5,2.5-3,4.2-4.2c1.7-1.2,3.2-1.9,5.3-2.7c2-0.7,3.4-0.8,5.5-0.8c4,0,6.7,0.9,9.3,2.5
					c4.8,2.8,6.2,5.6,7.6,8.3l1.3-2.4c1.9-2.9,4.5-4.8,6.5-6.1c2.8-1.6,5.8-2.3,8.9-2.3c6.1,0,10.1,2.5,13.3,5.5
					c3.2,3.1,5.4,7.5,5.4,14.4v35.3h-14.8v-31.6c0-3.9-0.5-6.3-2.3-8.4c-1.5-1.8-3.6-2.9-6-3.2c-3.9-0.5-7.1,1.7-8.6,4
					c-1.8,2.7-2.1,6.9-2.1,12.1v27.1H328v-31.6c0-2.6-0.2-4.5-1-6.2c-0.8-1.7-1.7-2.8-2.9-3.7c-1.2-0.9-2.4-1.4-4.2-1.7
					c-2.7-0.4-5.7,0.7-7.3,2.3c-1.5,1.5-2.4,2.9-3,5.7c-0.5,2.7-0.6,6-0.6,9.8v25.5h-14.8v-55.2h14.8V119.3z"/>
			</g>
		</g>
		<g>
			<path class="st7" d="M774.9,122.4c-1.5-2.7-2.9-5.5-7.6-8.3c-2.6-1.5-5.3-2.5-9.3-2.5c-2.1,0-3.5,0.2-5.5,0.8
				c-2.2,0.7-3.7,1.5-5.3,2.7c-1.7,1.2-3.1,2.7-4.2,4.2v-7.7h-14.8v55.2h14.8v-25.5c0-3.8,0-7.2,0.6-9.8c0.6-2.8,1.5-4.2,3-5.7
				c1.6-1.5,4.6-2.7,7.3-2.3c1.9,0.3,3.1,0.8,4.2,1.7c1.2,0.9,2.1,2,2.9,3.7c0.8,1.7,1,3.6,1,6.2v31.6h14.8v-27.1
				C776.6,139.7,777.2,127,774.9,122.4z"/>
		</g>
		<g>
			<g>
				<path class="st7" d="M421.5,160.9c-1.5,1.7-1.9,2.1-3.5,3.3c-1.6,1.2-3.5,2.1-5.6,2.7c-2.1,0.6-4.6,0.9-7.6,0.9
					c-3.2,0-6.1-0.6-8.6-1.8c-2.5-1.2-4.5-3.1-6-5.6c-1.4-2.5-2.2-5.7-2.2-9.7c0-5.7,2-10,6-12.7c4-2.7,10.1-4.2,18.1-4.5l9.4-0.3
					v-2.4c0-2.8-0.7-4.9-2.2-6.2c-1.5-1.3-3.5-2-6.2-2c-2.6,0-5.2,0.4-7.7,1.1c-2.5,0.7-5,1.7-7.5,2.8l-4.9-10
					c2.9-1.5,6.1-2.7,9.7-3.6c3.6-0.9,7.2-1.3,11.1-1.3c7.3,0,12.8,1.6,16.7,4.7c3.9,3.2,5.8,8,5.8,14.4v36h-14.8 M421.7,141.8
					l-5.7,0.2c-4.8,0.1-8.1,1-9.9,2.6c-1.9,1.6-2.8,3.7-2.8,6.2c0,2.3,0.7,3.9,2,4.8c1.3,1,3,1.4,5.2,1.4c3.2,0,5.8-0.9,8-2.8
					c2.2-1.9,3.3-4.5,3.3-8V141.8z"/>
			</g>
		</g>
		<g>
			<g>
				<path class="st7" d="M462.8,120.8c0.9-1.4,1.8-2.5,3.4-4c1.6-1.5,3.4-2.8,5.5-3.7c2-0.9,4.3-1.4,6.7-1.4c0.7,0,1.6,0,2.6,0.1
					c1,0.1,1.6,0.1,2.2,0.2v11.7c-0.5-0.2-2.1,0.1-3,0c-0.9-0.1-1.7-0.1-2.3-0.1c-1.9,0-3.7,0.2-5.5,0.7c-1.8,0.5-3.4,1.3-4.8,2.3
					c-1.4,1.1-2.5,2.5-3.4,4.3c-0.8,1.8-1.2,3.9-1.2,6.5v29.3h-14.8v-55.2h14.8"/>
			</g>
		</g>
		<g>
			<g>
				<path class="st7" d="M516.2,156c1.6,0,3.2-0.2,4.7-0.5c1.5-0.3,3.1-0.7,4.6-1.2v11c-1.6,0.7-3.5,1.3-5.9,1.8
					c-2.3,0.5-4.9,0.7-7.7,0.7c-3.2,0-6.1-0.5-8.7-1.6c-2.6-1-4.6-2.9-6-5.5c-1.5-2.6-2.2-6.2-2.2-10.9v-26.1H488v-6.2l6.2-3.8
					c0.5-0.3,0.8-0.9,0.8-1.5v-11.1h14.8v10.4h15.1v12.2h-15.1v26.1c0,2.1,0.6,3.6,1.8,4.6C512.7,155.5,514.3,156,516.2,156z"/>
			</g>
		</g>
		<g>
			<g>
				<path class="st7" d="M680.6,156c1.6,0,3.2-0.2,4.7-0.5c1.5-0.3,3.1-0.7,4.6-1.2v11c-1.6,0.7-3.5,1.3-5.9,1.8
					c-2.3,0.5-4.9,0.7-7.7,0.7c-3.2,0-6.1-0.5-8.7-1.6c-2.6-1-4.6-2.9-6-5.5c-1.5-2.6-2.2-6.2-2.2-10.9v-26.1h-7.1v-6.2l6.2-3.8
					c0.5-0.3,0.8-0.9,0.8-1.5v-11.1h14.8v10.4h15.1v12.2h-15.1v26.1c0,2.1,0.6,3.6,1.8,4.6C677.1,155.5,678.6,156,680.6,156z"/>
			</g>
		</g>
		<g>
			<g>
				<path class="st7" d="M552,136.7 M552,133.7c1.4-1.4,4.2-4.1,5.4-5.4l15.6-15.6h16.6L567.3,135l23.7,31.8h-17l-16-22.5l-5.9,5.9
					v16.5h-14.8V95H552v30.2"/>
			</g>
		</g>
		<g>
			<g>
				<path class="st7" d="M623.3,111.7c5,0,9.3,1,12.9,2.9c3.6,1.9,6.4,4.7,8.4,8.3c2,3.6,3,8.1,3,13.4v7.2h-34.9
					c0.2,4.2,1.4,7.4,3.7,9.8c2.3,2.4,5.6,3.6,9.7,3.6c3.5,0,6.6-0.4,9.5-1.1c2.9-0.7,8.9-3,11.9-4.5v11.4
					c-2.7,1.3-8.5,3.6-11.4,4.2c-2.9,0.6-6.5,0.9-10.6,0.9c-5.4,0-10.2-1-14.4-3c-4.2-2-7.5-5-9.8-9.1c-2.4-4.1-3.6-9.3-3.6-15.5
					c0-6.3,1.1-11.6,3.2-15.8c2.1-4.2,5.1-7.4,9-9.5C613.7,112.8,618.2,111.7,623.3,111.7z M623.4,122.2c-2.9,0-5.2,0.9-7.1,2.8
					c-1.9,1.8-3,4.7-3.3,8.7h20.7c0-2.2-0.4-4.1-1.2-5.9c-0.8-1.7-1.9-3.1-3.4-4.1C627.6,122.7,625.7,122.2,623.4,122.2z"/>
			</g>
		</g>
		<g>
			<g>
				<path class="st7" d="M716.4,111.6v55.2h-14.8v-55.2H716.4z"/>
			</g>
		</g>
		<g>
			<g>
				<path class="st7" d="M807.6,190.6c-7.5,0-13.3-1.3-17.3-3.9c-4-2.6-6-6.3-6-11.1c0-3.3,1-6,3-8.2c2-2.2,5-3.8,9-4.7
					c-1.5-0.6-2.8-1.7-4-3.2c-1.1-1.5-1.7-3-1.7-4.7c0-2.1,0.6-3.8,1.8-5.2c1.2-1.4,2.9-2.7,5.2-4c-2.8-1.2-5.1-3.2-6.7-5.9
					c-1.7-2.7-2.5-5.9-2.5-9.6c0-3.9,0.9-7.3,2.6-10c1.7-2.8,4.2-4.9,7.5-6.3c3.3-1.5,7.3-2.2,12.1-2.2c1,0,2.2,0.1,3.5,0.2
					c1.3,0.1,2.5,0.3,3.7,0.4c1.1,0.2,1.9,0.3,2.2,0.4h18.9v7.5l-8.5,2.2c0.8,1.2,1.4,2.5,1.7,3.8c0.4,1.4,0.6,2.8,0.6,4.3
					c0,5.8-2,10.3-6.1,13.6c-4,3.2-9.7,4.9-16.9,4.9c-1.7-0.1-3.3-0.2-4.8-0.4c-0.7,0.6-1.3,1.2-1.7,1.8s-0.6,1.3-0.6,2
					c0,0.7,0.3,1.3,0.9,1.8c0.6,0.5,1.5,0.8,2.7,1.1c1.2,0.2,2.7,0.4,4.5,0.4h9.2c5.9,0,10.5,1.3,13.6,3.8s4.7,6.3,4.7,11.2
					c0,6.3-2.6,11.2-7.9,14.7C825,188.9,817.4,190.6,807.6,190.6z M808.2,181c3.5,0,6.5-0.3,9.1-1c2.5-0.7,4.5-1.6,5.8-2.8
					c1.4-1.2,2-2.7,2-4.3c0-1.4-0.4-2.4-1.2-3.2c-0.8-0.8-2-1.3-3.6-1.7c-1.6-0.3-3.6-0.5-6.1-0.5h-7.6c-1.8,0-3.4,0.3-4.9,0.9
					c-1.4,0.6-2.6,1.4-3.4,2.4c-0.8,1-1.3,2.3-1.3,3.7c0,2,1,3.6,2.9,4.8C801.9,180.4,804.7,181,808.2,181z M810.6,140
					c2.8,0,4.8-0.9,6.1-2.6c1.3-1.7,1.9-4,1.9-7c0-3.3-0.7-5.7-2-7.3c-1.3-1.6-3.3-2.4-6-2.4c-2.7,0-4.7,0.8-6.1,2.4
					c-1.4,1.6-2,4.1-2,7.3c0,2.9,0.7,5.3,2,7S807.8,140,810.6,140z"/>
			</g>
		</g>
		<g>
			<circle class="st7" cx="708.8" cy="99.9" r="7.8"/>
		</g>
		<g>
			<path class="st7" d="M190.8,99.8L108,52.1c-1.6-0.9-3.6-0.6-4.8,0.6L66.7,89.2c-0.8,0.8-1.2,1.8-1.2,2.8l0,24.4
				c0,3.6,4.4,5.4,6.9,2.8l15.4-15.9l65,37.5c1.6,0.9,3.6,0.6,4.8-0.6l34-33.9C193.4,104.3,193,101.2,190.8,99.8z"/>
			<path class="st7" d="M154.6,159.4l-65-37.5c-1.6-0.9-3.6-0.6-4.8,0.6l-34,33.9c-1.9,1.9-1.5,5,0.8,6.3l82.8,47.8
				c1.6,0.9,3.6,0.6,4.8-0.6l36.5-36.5c0.8-0.8,1.2-1.8,1.2-2.8l0-24.4c0-3.6-4.4-5.4-6.9-2.8L154.6,159.4z"/>
		</g>
		<g>
			<path class="st7" d="M280.6,137.9c-1.4-2.5-3.4-4.7-5.9-6.5c-2.6-1.9-5.7-3.6-9.3-5.3c-3-1.4-5.4-2.7-7.4-3.7
				c-2-1.1-3.5-2.2-4.4-3.3c-1-1.1-1.5-2.6-1.5-4.2c0-1.4,0.3-2.7,1-3.8c0.7-1.1,1.7-1.9,3-2.5c1.3-0.6,2.9-0.9,4.8-0.9
				c2.7,0,5.3,0.4,7.9,1.1c2.6,0.7,5.5,1.8,8.8,3.1l4.8-11.7c-3.6-1.6-7.1-2.8-10.5-3.7c-3.3-0.9-6.8-1.3-10.5-1.3
				c-4.9,0-9.2,0.8-12.7,2.4c-3.6,1.6-6.4,3.9-8.3,6.9c-1.9,3-2.9,6.6-2.9,10.8v0.1c0,3.2,0.6,6,1.7,8.2c1.1,2.3,2.5,4.3,4.3,5.9
				c1.7,1.6,3.6,3,5.5,4.1c1.9,1.1,3.7,2.1,5.4,2.8c2.6,1.3,5,2.4,7,3.5c2.1,1.1,3.7,2.3,4.9,3.5c1.2,1.3,1.8,2.8,1.8,4.5
				c0,1.5-0.3,2.7-1,3.9c-0.7,1.1-1.8,2-3.3,2.7c-1.5,0.6-3.5,1-5.9,1c-3.5,0-7.1-0.6-10.7-1.8c-3.3-1.1-6.5-2.3-9.6-3.7v14
				c1.7,0.8,3.4,1.4,5.3,2c2.1,0.6,4.4,1.1,6.7,1.4c2.3,0.3,4.7,0.5,7.2,0.5c5.5,0,10.3-0.8,14.2-2.5c3.9-1.7,6.8-4.1,8.9-7.2
				c2-3.1,3-6.7,3-10.9C282.7,143.5,282,140.4,280.6,137.9z"/>
		</g>
	</g>
</g>
</svg>
