<?xml version="1.0" encoding="utf-8"?>
<!-- Generator: Adobe Illustrator 27.4.0, SVG Export Plug-In . SVG Version: 6.00 Build 0)  -->
<svg version="1.1" id="Capa_1" xmlns="http://www.w3.org/2000/svg" xmlns:xlink="http://www.w3.org/1999/xlink" x="0px" y="0px"
	 viewBox="0 0 888.5 261.4" style="enable-background:new 0 0 888.5 261.4;" xml:space="preserve">
<style type="text/css">
	.st0{fill:#FFFFFF;}
	.st1{fill:#00C2FF;}
	.st2{fill:#FF6B6B;}
	.st3{fill:#27348B;}
	.st4{fill:#3A3A3A;}
	.st5{fill:#8F8F8F;}
	.st6{fill:#979797;}
	.st7{fill:#1D1D1B;}
</style>
<g>
	<g>
		<g>
			<g>
				<path class="st0" d="M304,118.8c1.1-1.5,2.5-3,4.2-4.2c1.7-1.2,3.2-2,5.4-2.7c2-0.7,3.4-0.8,5.5-0.8c4,0,6.7,0.9,9.3,2.5
					c4.8,2.8,6.2,5.6,7.7,8.3l1.3-2.4c1.9-2.9,4.5-4.8,6.6-6.1c2.8-1.6,5.8-2.3,9-2.3c6.2,0,10.2,2.5,13.3,5.5
					c3.2,3.1,5.4,7.5,5.4,14.5v35.4h-14.9v-31.7c0-3.9-0.5-6.3-2.3-8.5c-1.5-1.8-3.6-2.9-6-3.2c-3.9-0.5-7.1,1.7-8.6,4
					c-1.8,2.7-2.1,6.9-2.1,12.1v27.3H323v-31.7c0-2.6-0.2-4.6-1-6.2c-0.8-1.7-1.7-2.8-2.9-3.7c-1.2-0.9-2.4-1.4-4.3-1.7
					c-2.7-0.4-5.7,0.7-7.3,2.3c-1.5,1.5-2.4,2.9-3,5.7c-0.5,2.7-0.6,6-0.6,9.9v25.6h-14.8V111H304V118.8z"/>
			</g>
		</g>
		<g>
			<path class="st0" d="M771.9,121.8c-1.5-2.7-2.9-5.5-7.7-8.3c-2.6-1.5-5.4-2.5-9.3-2.5c-2.1,0-3.5,0.2-5.5,0.8
				c-2.2,0.7-3.7,1.5-5.4,2.7c-1.7,1.2-3.1,2.7-4.2,4.2V111h-14.8v55.5h14.8v-25.6c0-3.9,0-7.2,0.6-9.9c0.6-2.8,1.5-4.2,3-5.7
				c1.6-1.6,4.6-2.7,7.3-2.3c1.9,0.3,3.1,0.9,4.3,1.7c1.2,0.9,2.1,2,2.9,3.7c0.8,1.7,1,3.6,1,6.2v31.7h14.8v-27.3
				C773.6,139.2,774.2,126.5,771.9,121.8z"/>
		</g>
		<g>
			<g>
				<path class="st0" d="M416.9,160.5c-1.5,1.7-1.9,2.1-3.5,3.3c-1.6,1.2-3.5,2.1-5.6,2.7c-2.1,0.6-4.7,0.9-7.7,0.9
					c-3.2,0-6.1-0.6-8.6-1.8c-2.5-1.2-4.5-3.1-6-5.7c-1.5-2.5-2.2-5.8-2.2-9.7c0-5.8,2-10,6.1-12.8c4-2.7,10.1-4.3,18.2-4.5l9.4-0.3
					v-2.4c0-2.9-0.7-4.9-2.2-6.3c-1.5-1.3-3.6-2-6.2-2c-2.6,0-5.2,0.4-7.7,1.1c-2.5,0.7-5.1,1.7-7.6,2.8l-4.9-10
					c2.9-1.5,6.1-2.7,9.7-3.6c3.6-0.9,7.3-1.3,11.1-1.3c7.3,0,12.9,1.6,16.8,4.8c3.9,3.2,5.8,8,5.8,14.5v36.2h-14.8 M417.1,141.3
					l-5.7,0.2c-4.8,0.1-8.1,1-10,2.6c-1.9,1.6-2.8,3.7-2.8,6.3c0,2.3,0.7,3.9,2,4.8c1.3,1,3.1,1.4,5.2,1.4c3.2,0,5.9-0.9,8-2.8
					c2.2-1.9,3.3-4.6,3.3-8V141.3z"/>
			</g>
		</g>
		<g>
			<g>
				<path class="st0" d="M458.4,120.2c0.9-1.4,1.8-2.5,3.4-4c1.6-1.5,3.4-2.8,5.5-3.7c2.1-0.9,4.3-1.4,6.7-1.4c0.7,0,1.6,0,2.6,0.1
					c1,0.1,1.6,0.1,2.2,0.2v11.8c-0.5-0.2-2.1,0.1-3,0c-0.9-0.1-1.7-0.1-2.3-0.1c-1.9,0-3.8,0.2-5.6,0.7c-1.8,0.5-3.4,1.3-4.8,2.4
					c-1.4,1.1-2.6,2.5-3.4,4.3c-0.8,1.8-1.2,3.9-1.2,6.5v29.4h-14.8V111h14.8"/>
			</g>
		</g>
		<g>
			<g>
				<path class="st0" d="M512,155.6c1.6,0,3.2-0.2,4.7-0.5c1.5-0.3,3.1-0.7,4.6-1.2v11c-1.6,0.7-3.6,1.3-5.9,1.8
					c-2.3,0.5-4.9,0.7-7.7,0.7c-3.2,0-6.1-0.5-8.7-1.6c-2.6-1.1-4.6-2.9-6.1-5.5c-1.5-2.6-2.2-6.2-2.2-10.9v-26.2h-7.1V117l6.2-3.8
					c0.5-0.3,0.8-0.9,0.8-1.5v-11.1h14.8V111h15.2v12.2h-15.2v26.2c0,2.1,0.6,3.6,1.8,4.6C508.5,155.1,510.1,155.6,512,155.6z"/>
			</g>
		</g>
		<g>
			<g>
				<path class="st0" d="M677.1,155.6c1.6,0,3.2-0.2,4.7-0.5c1.5-0.3,3.1-0.7,4.6-1.2v11c-1.6,0.7-3.6,1.3-5.9,1.8
					c-2.3,0.5-4.9,0.7-7.7,0.7c-3.2,0-6.1-0.5-8.7-1.6c-2.6-1.1-4.6-2.9-6.1-5.5c-1.5-2.6-2.2-6.2-2.2-10.9v-26.2h-7.1V117l6.2-3.8
					c0.5-0.3,0.8-0.9,0.8-1.5v-11.1h14.8V111h15.2v12.2h-15.2v26.2c0,2.1,0.6,3.6,1.8,4.6C673.6,155.1,675.2,155.6,677.1,155.6z"/>
			</g>
		</g>
		<g>
			<g>
				<path class="st0" d="M548,136.2 M548,133.2c1.4-1.4,4.2-4.1,5.4-5.4l15.7-15.7h16.7l-22.5,22.4l23.8,32H570l-16-22.6l-6,6v16.6
					h-14.8V94.3H548v30.3"/>
			</g>
		</g>
		<g>
			<g>
				<path class="st0" d="M619.6,111.1c5,0,9.3,1,13,2.9c3.6,1.9,6.4,4.7,8.4,8.4c2,3.7,3,8.1,3,13.4v7.2h-35
					c0.2,4.2,1.4,7.5,3.8,9.8c2.3,2.4,5.6,3.6,9.8,3.6c3.5,0,6.6-0.4,9.5-1.1c2.9-0.7,8.9-3.1,12-4.5v11.5
					c-2.7,1.3-8.6,3.6-11.5,4.2c-2.9,0.6-6.5,0.9-10.7,0.9c-5.4,0-10.3-1-14.5-3c-4.2-2-7.5-5.1-9.9-9.2c-2.4-4.1-3.6-9.3-3.6-15.6
					c0-6.3,1.1-11.6,3.2-15.9c2.2-4.2,5.2-7.4,9-9.5C610,112.2,614.5,111.1,619.6,111.1z M619.7,121.7c-2.9,0-5.3,0.9-7.2,2.8
					c-1.9,1.8-3,4.7-3.3,8.7H630c0-2.2-0.4-4.2-1.2-5.9c-0.8-1.7-1.9-3.1-3.4-4.1C623.9,122.2,622,121.7,619.7,121.7z"/>
			</g>
		</g>
		<g>
			<g>
				<path class="st0" d="M713.1,111v55.5h-14.8V111H713.1z"/>
			</g>
		</g>
		<g>
			<g>
				<path class="st0" d="M804.7,190.4c-7.6,0-13.4-1.3-17.4-4c-4-2.6-6-6.3-6-11.1c0-3.3,1-6,3.1-8.2c2-2.2,5-3.8,9-4.7
					c-1.5-0.6-2.9-1.7-4-3.2c-1.1-1.5-1.7-3-1.7-4.7c0-2.1,0.6-3.8,1.8-5.2c1.2-1.4,2.9-2.7,5.2-4.1c-2.9-1.2-5.1-3.2-6.8-5.9
					c-1.7-2.7-2.5-5.9-2.5-9.6c0-4,0.9-7.3,2.6-10.1c1.7-2.8,4.3-4.9,7.6-6.3c3.3-1.5,7.4-2.2,12.1-2.2c1,0,2.2,0.1,3.5,0.2
					c1.3,0.1,2.6,0.3,3.7,0.4c1.1,0.2,1.9,0.3,2.3,0.4h19v7.5l-8.5,2.2c0.8,1.2,1.4,2.5,1.8,3.8c0.4,1.4,0.6,2.8,0.6,4.3
					c0,5.8-2,10.4-6.1,13.6c-4.1,3.3-9.7,4.9-16.9,4.9c-1.7-0.1-3.3-0.2-4.9-0.4c-0.7,0.6-1.3,1.2-1.7,1.8s-0.6,1.3-0.6,2
					c0,0.7,0.3,1.3,0.9,1.8c0.6,0.5,1.5,0.8,2.7,1.1c1.2,0.2,2.7,0.4,4.5,0.4h9.2c6,0,10.5,1.3,13.6,3.8c3.1,2.6,4.7,6.3,4.7,11.3
					c0,6.4-2.6,11.3-7.9,14.8C822.2,188.6,814.6,190.4,804.7,190.4z M805.3,180.7c3.5,0,6.6-0.3,9.1-1c2.5-0.7,4.5-1.6,5.9-2.8
					c1.4-1.2,2-2.7,2-4.3c0-1.4-0.4-2.4-1.2-3.2c-0.8-0.8-2-1.4-3.6-1.7c-1.6-0.3-3.7-0.5-6.1-0.5h-7.7c-1.8,0-3.4,0.3-4.9,0.9
					c-1.4,0.6-2.6,1.4-3.4,2.5c-0.8,1.1-1.3,2.3-1.3,3.7c0,2,1,3.6,2.9,4.8C799,180.1,801.8,180.7,805.3,180.7z M807.7,139.5
					c2.8,0,4.8-0.9,6.1-2.6c1.3-1.7,1.9-4,1.9-7c0-3.3-0.7-5.7-2-7.4c-1.3-1.6-3.4-2.5-6.1-2.5c-2.7,0-4.8,0.8-6.1,2.5
					c-1.4,1.6-2,4.1-2,7.4c0,2.9,0.7,5.3,2,7C802.9,138.6,804.9,139.5,807.7,139.5z"/>
			</g>
		</g>
		<g>
			<circle class="st0" cx="705.5" cy="99.2" r="7.9"/>
		</g>
		<g>
			<path class="st1" d="M185.2,99.2l-83.1-48c-1.6-0.9-3.6-0.6-4.9,0.6L60.5,88.5c-0.8,0.8-1.2,1.8-1.2,2.8l0,24.5
				c0,3.6,4.4,5.4,6.9,2.8l15.5-16l65.2,37.7c1.6,0.9,3.6,0.6,4.9-0.6l34.1-34.1C187.9,103.6,187.4,100.5,185.2,99.2z"/>
			<path class="st2" d="M148.9,159l-65.2-37.7c-1.6-0.9-3.6-0.6-4.9,0.6l-34.1,34.1c-1.9,1.9-1.5,5,0.8,6.3l83.1,48
				c1.6,0.9,3.6,0.6,4.9-0.6l36.6-36.6c0.8-0.8,1.2-1.8,1.2-2.8l0-24.5c0-3.6-4.4-5.4-6.9-2.8L148.9,159z"/>
		</g>
		<g>
			<path class="st0" d="M275.4,137.4c-1.4-2.5-3.4-4.7-6-6.6c-2.6-1.9-5.7-3.7-9.3-5.4c-3-1.4-5.5-2.7-7.5-3.7
				c-2-1.1-3.5-2.2-4.5-3.3c-1-1.1-1.5-2.6-1.5-4.3c0-1.4,0.3-2.7,1-3.8c0.7-1.1,1.7-1.9,3-2.5c1.3-0.6,2.9-0.9,4.8-0.9
				c2.7,0,5.3,0.4,7.9,1.1c2.6,0.7,5.5,1.8,8.8,3.1l4.9-11.7c-3.7-1.6-7.2-2.9-10.5-3.7c-3.4-0.9-6.9-1.3-10.6-1.3
				c-4.9,0-9.2,0.8-12.8,2.4c-3.6,1.6-6.4,3.9-8.3,6.9c-1.9,3-2.9,6.6-2.9,10.8v0.1c0,3.2,0.6,6,1.7,8.3c1.1,2.3,2.6,4.3,4.3,5.9
				c1.8,1.6,3.6,3,5.5,4.1c1.9,1.1,3.7,2.1,5.4,2.8c2.6,1.3,5,2.4,7.1,3.5c2.1,1.1,3.7,2.3,4.9,3.5c1.2,1.3,1.8,2.8,1.8,4.6
				c0,1.5-0.3,2.8-1,3.9c-0.7,1.1-1.8,2-3.3,2.7c-1.5,0.6-3.5,1-6,1c-3.6,0-7.2-0.6-10.8-1.8c-3.3-1.1-6.6-2.3-9.7-3.7v14
				c1.7,0.8,3.5,1.5,5.3,2c2.2,0.6,4.4,1.1,6.8,1.4c2.3,0.3,4.8,0.5,7.2,0.5c5.6,0,10.3-0.8,14.2-2.5c3.9-1.7,6.9-4.1,8.9-7.2
				c2-3.1,3.1-6.8,3.1-11C277.5,143,276.8,139.9,275.4,137.4z"/>
		</g>
	</g>
</g>
</svg>
