<?xml version="1.0" encoding="UTF-8"?>
<svg id="Layer_1" xmlns="http://www.w3.org/2000/svg" version="1.1" viewBox="0 0 612 213.95">
  <!-- Generator: Adobe Illustrator 29.8.1, SVG Export Plug-In . SVG Version: 2.1.1 Build 2)  -->
  <defs>
    <style>
      .st0, .st1 {
        fill: #fff;
      }

      .st1 {
        fill-rule: evenodd;
      }
    </style>
  </defs>
  <g>
    <g>
      <path class="st0" d="M184.32,89.51c0-8.78,0-10.4-.12-12.25-.12-1.96-.58-2.89-2.48-3.29-.46-.12-1.44-.17-2.25-.17-.64,0-.98-.12-.98-.52s.4-.52,1.27-.52c3.06,0,6.7.17,8.32.17,1.79,0,5.43-.17,8.9-.17,7.22,0,16.87,0,23.17,6.59,2.89,3,5.6,7.8,5.6,14.67,0,7.28-3.06,12.82-6.3,16.12-2.66,2.72-8.67,6.82-19.35,6.82-2.08,0-4.45-.17-6.64-.35s-4.22-.35-5.66-.35c-.64,0-1.91,0-3.29.06-1.33,0-2.83.12-3.99.12-.75,0-1.16-.17-1.16-.58,0-.29.23-.46.92-.46.87,0,1.56-.12,2.08-.23,1.16-.23,1.44-1.5,1.68-3.18.29-2.43.29-6.99.29-12.31v-10.17ZM191.54,95.86c0,6.12.06,10.57.12,11.67.06,1.44.17,3.75.64,4.39.75,1.1,3,2.31,7.57,2.31,5.89,0,9.82-1.16,13.29-4.16,3.7-3.18,4.85-8.43,4.85-14.38,0-7.34-3.06-12.07-5.55-14.44-5.31-5.08-11.9-5.78-16.41-5.78-1.16,0-3.29.17-3.76.4-.52.23-.69.52-.69,1.16-.06,1.96-.06,6.99-.06,11.55v7.28Z"/>
      <path class="st0" d="M240.71,101.35c-.29,0-.4.12-.52.46l-3.12,8.26c-.58,1.44-.87,2.83-.87,3.52,0,1.04.52,1.79,2.31,1.79h.87c.69,0,.87.12.87.46,0,.46-.35.58-.98.58-1.85,0-4.33-.17-6.12-.17-.64,0-3.81.17-6.82.17-.75,0-1.1-.12-1.1-.58,0-.35.23-.46.69-.46.52,0,1.33-.06,1.79-.12,2.66-.35,3.76-2.31,4.91-5.2l14.5-36.28c.69-1.68,1.04-2.31,1.62-2.31.52,0,.87.52,1.44,1.85,1.39,3.18,10.63,26.75,14.33,35.53,2.19,5.2,3.87,6.01,5.08,6.3.87.17,1.73.23,2.43.23.46,0,.75.06.75.46,0,.46-.52.58-2.66.58s-6.3,0-10.92-.12c-1.04-.06-1.73-.06-1.73-.46,0-.35.23-.46.81-.52.4-.12.81-.64.52-1.33l-4.62-12.25c-.12-.29-.29-.4-.58-.4h-12.88ZM252.49,98.46c.29,0,.35-.17.29-.35l-5.2-14.27c-.06-.23-.12-.52-.29-.52s-.29.29-.35.52l-5.31,14.21c-.06.23,0,.4.23.4h10.63Z"/>
      <path class="st0" d="M282.13,72.98c.17-.98.52-1.5.98-1.5s.81.29,1.56,1.79l15.77,32.58,15.71-32.99c.46-.92.75-1.39,1.27-1.39s.87.58,1.04,1.79l5.26,35.7c.52,3.64,1.1,5.31,2.83,5.83,1.68.52,2.83.58,3.58.58.52,0,.92.06.92.4,0,.46-.69.64-1.5.64-1.44,0-9.42-.17-11.73-.35-1.33-.12-1.67-.29-1.67-.64,0-.29.23-.46.64-.64.35-.12.52-.87.29-2.48l-3.47-25.42h-.23l-12.59,26.23c-1.33,2.72-1.62,3.24-2.14,3.24s-1.1-1.16-2.02-2.89c-1.39-2.66-5.95-11.5-6.64-13.11-.52-1.21-3.99-8.49-6.01-12.82h-.23l-3,22.99c-.12,1.04-.17,1.79-.17,2.72,0,1.1.75,1.62,1.73,1.85,1.04.23,1.85.29,2.43.29.46,0,.87.12.87.4,0,.52-.52.64-1.39.64-2.43,0-5.03-.17-6.07-.17-1.1,0-3.87.17-5.72.17-.58,0-1.04-.12-1.04-.64,0-.29.35-.4.92-.4.46,0,.87,0,1.73-.17,1.62-.35,2.08-2.6,2.37-4.56l5.72-37.67Z"/>
      <path class="st0" d="M343.15,101.35c-.29,0-.4.12-.52.46l-3.12,8.26c-.58,1.44-.87,2.83-.87,3.52,0,1.04.52,1.79,2.31,1.79h.87c.69,0,.87.12.87.46,0,.46-.35.58-.98.58-1.85,0-4.33-.17-6.12-.17-.63,0-3.81.17-6.82.17-.75,0-1.1-.12-1.1-.58,0-.35.23-.46.69-.46.52,0,1.33-.06,1.79-.12,2.66-.35,3.75-2.31,4.91-5.2l14.5-36.28c.69-1.68,1.04-2.31,1.62-2.31.52,0,.87.52,1.44,1.85,1.39,3.18,10.63,26.75,14.33,35.53,2.2,5.2,3.87,6.01,5.08,6.3.87.17,1.73.23,2.43.23.46,0,.75.06.75.46,0,.46-.52.58-2.66.58s-6.3,0-10.92-.12c-1.04-.06-1.73-.06-1.73-.46,0-.35.23-.46.81-.52.4-.12.81-.64.52-1.33l-4.62-12.25c-.12-.29-.29-.4-.58-.4h-12.88ZM354.93,98.46c.29,0,.35-.17.29-.35l-5.2-14.27c-.06-.23-.12-.52-.29-.52s-.29.29-.35.52l-5.32,14.21c-.06.23,0,.4.23.4h10.63Z"/>
      <path class="st0" d="M377.52,115.73c-.92-.4-1.1-.69-1.1-1.96,0-3.18.23-6.64.29-7.57.06-.87.23-1.5.69-1.5.52,0,.58.52.58.98,0,.75.23,1.96.52,2.95,1.27,4.27,4.68,5.83,8.26,5.83,5.2,0,7.74-3.52,7.74-6.59,0-2.83-.87-5.49-5.66-9.24l-2.66-2.08c-6.35-4.97-8.55-9.01-8.55-13.69,0-6.35,5.32-10.92,13.34-10.92,3.76,0,6.18.58,7.68.98.52.12.81.29.81.69,0,.75-.23,2.43-.23,6.93,0,1.27-.17,1.73-.64,1.73-.4,0-.58-.35-.58-1.04,0-.52-.29-2.31-1.5-3.81-.87-1.1-2.54-2.83-6.3-2.83-4.27,0-6.87,2.48-6.87,5.95,0,2.66,1.33,4.68,6.12,8.32l1.62,1.21c6.99,5.26,9.47,9.24,9.47,14.73,0,3.35-1.27,7.34-5.43,10.05-2.89,1.85-6.12,2.37-9.19,2.37-3.35,0-5.95-.4-8.43-1.5Z"/>
      <path class="st0" d="M415.19,110.94c-5.66-4.97-7.16-11.44-7.16-17.04,0-3.93,1.21-10.75,6.76-15.83,4.16-3.81,9.65-6.12,18.25-6.12,3.58,0,5.72.23,8.38.58,2.2.29,4.04.81,5.78.98.63.06.87.35.87.69,0,.46-.17,1.16-.29,3.18-.12,1.91-.06,5.08-.17,6.24-.06.87-.17,1.33-.69,1.33-.46,0-.58-.46-.58-1.27-.06-1.79-.81-3.81-2.25-5.31-1.91-2.02-6.41-3.58-11.73-3.58-5.03,0-8.32,1.27-10.86,3.58-4.22,3.87-5.31,9.36-5.31,14.96,0,13.75,10.46,20.57,18.2,20.57,5.14,0,8.26-.58,10.57-3.23.98-1.1,1.73-2.77,1.96-3.81.17-.92.29-1.16.75-1.16.4,0,.52.4.52.87,0,.69-.69,5.72-1.27,7.68-.29.98-.52,1.27-1.5,1.68-2.31.92-6.7,1.33-10.4,1.33-7.92,0-14.56-1.73-19.82-6.3Z"/>
      <path class="st0" d="M490.18,91.12c.17,0,.35-.12.35-.4v-1.21c0-8.78,0-10.4-.12-12.25-.12-1.96-.58-2.89-2.48-3.29-.46-.12-1.44-.17-2.25-.17-.64,0-.98-.12-.98-.52s.4-.52,1.21-.52c3.12,0,6.76.17,8.32.17,1.39,0,5.03-.17,7.28-.17.81,0,1.21.12,1.21.52s-.35.52-1.04.52c-.46,0-.98.06-1.68.17-1.56.29-2.02,1.27-2.14,3.29-.12,1.85-.12,3.47-.12,12.25v10.17c0,5.31,0,9.88.29,12.36.17,1.62.52,2.89,2.25,3.12.81.12,2.08.23,2.95.23.64,0,.92.17.92.46,0,.4-.46.58-1.16.58-3.75,0-7.39-.17-9.01-.17-1.33,0-4.97.17-7.22.17-.81,0-1.21-.17-1.21-.58,0-.29.23-.46.92-.46.87,0,1.56-.12,2.08-.23,1.16-.23,1.44-1.5,1.68-3.18.29-2.43.29-6.99.29-12.31v-5.08c0-.23-.17-.35-.35-.35h-22.07c-.17,0-.35.06-.35.35v5.08c0,5.31,0,9.88.29,12.36.17,1.62.52,2.89,2.25,3.12.81.12,2.08.23,2.95.23.64,0,.92.17.92.46,0,.4-.46.58-1.16.58-3.75,0-7.39-.17-9.01-.17-1.33,0-4.97.17-7.28.17-.75,0-1.16-.17-1.16-.58,0-.29.23-.46.92-.46.87,0,1.56-.12,2.08-.23,1.16-.23,1.44-1.5,1.68-3.18.29-2.43.29-6.99.29-12.31v-10.17c0-8.78,0-10.4-.12-12.25-.12-1.96-.58-2.89-2.48-3.29-.46-.12-1.44-.17-2.25-.17-.64,0-.98-.12-.98-.52s.4-.52,1.21-.52c3.12,0,6.76.17,8.32.17,1.39,0,5.03-.17,7.28-.17.81,0,1.21.12,1.21.52s-.35.52-1.04.52c-.46,0-.98.06-1.68.17-1.56.29-2.02,1.27-2.14,3.29-.12,1.85-.12,3.47-.12,12.25v1.21c0,.29.17.4.35.4h22.07Z"/>
      <path class="st0" d="M523.75,92.05h.29c1.96-2.14,10.4-10.75,12.07-12.71,1.62-1.91,2.89-3.35,2.89-4.33,0-.64-.23-1.04-.81-1.16-.52-.12-.75-.23-.75-.58,0-.4.29-.52.92-.52,1.21,0,4.39.17,5.95.17,1.79,0,4.97-.17,6.76-.17.58,0,.98.12.98.52s-.29.52-.87.52c-.81,0-2.25.23-3.35.64-1.79.69-3.75,1.91-6.24,4.33-1.79,1.73-10.51,10.4-12.48,12.48,2.08,2.71,13.4,14.9,15.66,17.04,2.54,2.43,5.14,5.03,8.26,6.24,1.73.69,2.89.87,3.58.87.4,0,.75.12.75.46,0,.4-.29.58-1.39.58h-5.03c-1.73,0-2.77,0-3.99-.12-3.12-.29-4.68-1.56-7.16-3.75-2.54-2.25-13.92-15.6-15.14-17.27l-.64-.87h-.29v5.26c0,5.31,0,9.88.17,12.36.12,1.62.64,2.89,2.08,3.12.81.12,2.08.23,2.83.23.46,0,.75.17.75.46,0,.4-.46.58-1.1.58-3.24,0-6.88-.17-8.32-.17-1.33,0-4.97.17-7.28.17-.75,0-1.16-.17-1.16-.58,0-.29.23-.46.92-.46.87,0,1.56-.12,2.08-.23,1.16-.23,1.44-1.5,1.68-3.18.29-2.43.29-6.99.29-12.31v-10.17c0-8.78,0-10.4-.12-12.25-.12-1.96-.58-2.89-2.48-3.29-.46-.12-1.44-.17-2.25-.17-.63,0-.98-.12-.98-.52s.4-.52,1.27-.52c3.06,0,6.7.17,8.09.17s5.03-.17,6.99-.17c.81,0,1.21.12,1.21.52s-.35.52-.81.52c-.58,0-.92.06-1.62.17-1.56.29-2.02,1.27-2.14,3.29-.12,1.85-.12,3.47-.12,12.25v2.54Z"/>
      <path class="st0" d="M561.08,89.51c0-8.78,0-10.4-.12-12.25-.12-1.96-.58-2.89-2.48-3.29-.46-.12-1.44-.17-2.25-.17-.64,0-.98-.12-.98-.52s.4-.52,1.27-.52c1.56,0,3.24.06,4.68.06,1.5.06,2.83.12,3.64.12,1.85,0,13.34,0,14.44-.06,1.1-.12,2.02-.23,2.48-.35.29-.06.63-.23.92-.23s.35.23.35.52c0,.4-.29,1.1-.46,3.75-.06.58-.17,3.12-.29,3.81-.06.29-.17.64-.58.64s-.52-.29-.52-.81c0-.4-.06-1.39-.35-2.08-.4-1.04-.98-1.73-3.87-2.08-.98-.12-7.05-.23-8.2-.23-.29,0-.4.17-.4.58v14.62c0,.4.06.64.4.64,1.27,0,7.92,0,9.24-.12,1.39-.12,2.25-.29,2.77-.87.4-.46.64-.75.92-.75.23,0,.41.12.41.46s-.23,1.27-.46,4.22c-.06,1.16-.23,3.47-.23,3.87,0,.46,0,1.1-.52,1.1-.4,0-.52-.23-.52-.52-.06-.58-.06-1.33-.23-2.08-.29-1.16-1.1-2.02-3.24-2.25-1.1-.12-6.82-.17-8.2-.17-.29,0-.35.23-.35.58v4.56c0,1.96-.06,7.28,0,8.95.12,3.99,1.04,4.85,6.93,4.85,1.5,0,3.93,0,5.43-.69,1.5-.69,2.2-1.91,2.6-4.27.12-.64.23-.87.63-.87.46,0,.46.46.46,1.04,0,1.33-.46,5.26-.75,6.41-.4,1.5-.92,1.5-3.12,1.5-4.33,0-7.51-.12-9.99-.17-2.48-.12-4.27-.17-6.01-.17-.64,0-1.91,0-3.29.06-1.33,0-2.83.12-3.99.12-.75,0-1.16-.17-1.16-.58,0-.29.23-.46.92-.46.87,0,1.56-.12,2.08-.23,1.16-.23,1.44-1.5,1.68-3.18.29-2.43.29-6.99.29-12.31v-10.17Z"/>
    </g>
    <g>
      <path class="st0" d="M259.64,157.67l-2.43,8.36c-.34,1.18-.51,2.01-.51,2.5,0,.68.22,1.19.66,1.54.44.35,1.45.53,3.01.56l-.29.82h-14.65l.24-.82c1.24-.01,2.12-.14,2.63-.37.52-.23.94-.6,1.28-1.12.25-.34.63-1.38,1.13-3.12l5.55-19.05c.38-1.27.58-2.18.58-2.72s-.24-1.01-.73-1.38-1.37-.58-2.66-.61l.24-.82h11.88c3.26,0,5.61.41,7.04,1.24,2.21,1.3,3.32,3.25,3.32,5.84s-1.1,4.72-3.31,6.63c-2.21,1.91-5.17,2.87-8.91,2.87-1.12,0-2.49-.12-4.09-.35ZM260.08,155.97c.96.12,1.76.18,2.39.18,2.04,0,3.64-.93,4.8-2.79,1.17-1.86,1.75-3.8,1.75-5.82,0-1.37-.38-2.44-1.13-3.2-.75-.76-1.79-1.14-3.12-1.14-.28,0-.63.02-1.04.04l-3.65,12.72Z"/>
      <path class="st0" d="M285.2,150.95l-3.34,12.44c2.74-6.06,4.81-9.79,6.2-11.2.81-.83,1.67-1.24,2.57-1.24.62,0,1.12.23,1.5.67.38.45.58,1.09.58,1.91,0,1.43-.35,2.63-1.04,3.61-.44.62-.94.93-1.48.93-.59,0-1.03-.27-1.33-.82-.3-.55-.5-.87-.62-.96-.12-.1-.24-.14-.38-.14-.15,0-.3.04-.46.13-.32.18-.75.61-1.27,1.29-.52.69-1.17,1.83-1.94,3.44-.77,1.61-1.36,2.97-1.79,4.08s-1.03,3.23-1.79,6.36h-5.35l3.65-14.67c.27-1.09.4-1.81.4-2.17,0-.4-.07-.71-.21-.93-.14-.22-.33-.38-.58-.49-.24-.1-.75-.16-1.52-.16l.2-.64,6.68-1.46h1.33Z"/>
      <path class="st0" d="M299.19,163.16c-.13.96-.2,1.75-.2,2.37,0,1.11.32,1.99.96,2.66.64.66,1.5,1,2.58,1s2.07-.25,3.11-.75c1.04-.5,2.25-1.38,3.62-2.63l.66.6c-1.7,2.05-3.35,3.51-4.96,4.38-1.61.87-3.39,1.31-5.33,1.31-2.46,0-4.17-.59-5.11-1.77-.94-1.18-1.42-2.54-1.42-4.09,0-2.42.7-4.84,2.11-7.26s3.33-4.36,5.75-5.82c2.43-1.46,4.86-2.19,7.31-2.19,1.24,0,2.18.3,2.81.89.63.59.95,1.33.95,2.23,0,1.08-.31,2.12-.93,3.14-.86,1.39-1.93,2.5-3.23,3.35-1.3.85-2.75,1.49-4.36,1.94-1.08.29-2.52.52-4.34.66ZM299.38,162.01c1.3-.19,2.3-.45,3.02-.79.72-.33,1.42-.86,2.1-1.59.69-.73,1.28-1.65,1.78-2.77.5-1.11.75-2.16.75-3.13,0-.41-.11-.74-.34-.97-.23-.24-.52-.35-.87-.35-.71,0-1.5.49-2.39,1.48-1.62,1.8-2.97,4.51-4.05,8.12Z"/>
      <path class="st0" d="M324.26,150.95l-2.83,9.52c1.9-2.92,3.29-4.89,4.16-5.91,1.28-1.49,2.34-2.46,3.18-2.92.83-.46,1.67-.69,2.51-.69.96,0,1.65.29,2.08.86.43.58.64,1.21.64,1.9s-.2,1.79-.6,3.19l-1,3.56c1.92-2.95,3.3-4.91,4.14-5.89,1.3-1.5,2.43-2.52,3.39-3.05.66-.38,1.37-.58,2.12-.58s1.43.26,1.96.79c.52.52.79,1.21.79,2.05,0,.94-.22,2.17-.66,3.67l-2.46,8.25c-.37,1.22-.55,2.01-.55,2.37,0,.12.05.23.14.33.1.1.2.15.32.15.16,0,.3-.05.42-.15.53-.43,1.09-1.05,1.68-1.88.13-.18.33-.45.6-.82l.75.49c-1.02,1.9-2.13,3.3-3.35,4.18-1.22.89-2.34,1.33-3.37,1.33-.9,0-1.62-.25-2.17-.74-.55-.49-.82-1.07-.82-1.74s.18-1.59.55-2.88l2.5-8.63c.34-1.2.51-1.94.51-2.24,0-.1-.05-.2-.16-.3-.1-.1-.21-.14-.31-.14-.19,0-.38.04-.58.13-.28.15-.71.53-1.29,1.15-.58.62-1.42,1.73-2.51,3.33-1.09,1.6-1.85,2.85-2.27,3.75-.42.9-.84,2.07-1.25,3.5l-1.35,4.56h-5.6l4.14-14.45c.22-.78.33-1.32.33-1.62,0-.1-.05-.2-.14-.29s-.2-.13-.3-.13c-.55,0-1.41.72-2.59,2.15-1.8,2.21-3.44,4.88-4.91,7.99l-1.79,6.35h-5.64l4.16-14.23c.41-1.4.62-2.4.62-2.99,0-.24-.06-.44-.18-.61-.12-.17-.31-.3-.58-.4-.27-.1-.77-.14-1.53-.14l.22-.84,7.55-1.31h1.33Z"/>
      <path class="st0" d="M359.02,150.95l-4.54,15.73c-.25.9-.38,1.49-.38,1.77,0,.16.07.31.2.45s.27.21.42.21c.25,0,.5-.11.75-.33.66-.55,1.46-1.53,2.39-2.96l.75.44c-2.23,3.88-4.59,5.82-7.1,5.82-.96,0-1.72-.27-2.29-.81-.57-.54-.85-1.22-.85-2.05,0-.55.12-1.24.38-2.08l3.08-10.58c.29-1.02.44-1.78.44-2.3,0-.32-.14-.61-.42-.86-.28-.25-.66-.38-1.15-.38-.22,0-.49,0-.8.02l.29-.88,7.5-1.22h1.33ZM357.65,140.77c.92,0,1.69.32,2.31.95s.94,1.4.94,2.3-.32,1.67-.95,2.3-1.4.95-2.3.95-1.64-.32-2.28-.95c-.63-.63-.95-1.4-.95-2.3s.31-1.67.94-2.3,1.39-.95,2.29-.95Z"/>
      <path class="st0" d="M372.1,150.95l-4.29,15.05c-.21.69-.31,1.17-.31,1.44,0,.13.05.24.15.31.12.12.26.18.42.18.68,0,1.59-.6,2.72-1.81,1.62-1.76,3.33-4.28,5.11-7.57l2.01-6.77,5.6-.2-4.25,14.6c-.35,1.24-.53,1.95-.53,2.12,0,.12.05.24.17.37.11.13.22.19.34.19.21,0,.41-.09.6-.27.53-.43,1.23-1.29,2.1-2.59l.75.53c-2.05,3.7-4.31,5.55-6.77,5.55-.92,0-1.63-.23-2.16-.7-.52-.46-.79-1.07-.79-1.83,0-.8.18-1.81.55-3.03l1.08-3.74c-1.92,2.79-3.31,4.67-4.18,5.64-1.33,1.46-2.45,2.43-3.35,2.92s-1.77.73-2.6.73c-.78,0-1.46-.29-2.02-.86-.57-.58-.85-1.31-.85-2.19,0-.75.18-1.76.55-3.03l2.5-8.85c.41-1.45.62-2.42.62-2.92,0-.22-.06-.42-.18-.59-.12-.17-.31-.3-.59-.4-.27-.1-.78-.14-1.52-.14l.22-.84,7.55-1.31h1.33Z"/>
      <path class="st0" d="M397.3,150.95l-2.83,9.52c1.9-2.92,3.29-4.89,4.16-5.91,1.28-1.49,2.34-2.46,3.18-2.92.83-.46,1.67-.69,2.51-.69.96,0,1.65.29,2.08.86.43.58.64,1.21.64,1.9s-.2,1.79-.6,3.19l-1,3.56c1.92-2.95,3.3-4.91,4.14-5.89,1.3-1.5,2.43-2.52,3.39-3.05.66-.38,1.37-.58,2.12-.58s1.43.26,1.96.79c.52.52.79,1.21.79,2.05,0,.94-.22,2.17-.66,3.67l-2.46,8.25c-.37,1.22-.55,2.01-.55,2.37,0,.12.05.23.14.33.1.1.2.15.32.15.16,0,.3-.05.42-.15.53-.43,1.09-1.05,1.68-1.88.13-.18.33-.45.6-.82l.75.49c-1.02,1.9-2.13,3.3-3.35,4.18-1.22.89-2.34,1.33-3.37,1.33-.9,0-1.62-.25-2.17-.74-.55-.49-.82-1.07-.82-1.74s.18-1.59.55-2.88l2.5-8.63c.34-1.2.51-1.94.51-2.24,0-.1-.05-.2-.16-.3-.1-.1-.21-.14-.31-.14-.19,0-.38.04-.58.13-.28.15-.71.53-1.29,1.15-.58.62-1.42,1.73-2.51,3.33-1.09,1.6-1.85,2.85-2.27,3.75-.42.9-.84,2.07-1.25,3.5l-1.35,4.56h-5.6l4.14-14.45c.22-.78.33-1.32.33-1.62,0-.1-.05-.2-.14-.29s-.2-.13-.3-.13c-.55,0-1.41.72-2.59,2.15-1.8,2.21-3.44,4.88-4.91,7.99l-1.79,6.35h-5.64l4.16-14.23c.41-1.4.62-2.4.62-2.99,0-.24-.06-.44-.18-.61-.12-.17-.31-.3-.58-.4-.27-.1-.77-.14-1.53-.14l.22-.84,7.55-1.31h1.33Z"/>
      <path class="st0" d="M454.35,171.46h-23.97l.24-.82c1.43,0,2.47-.28,3.13-.83s1.26-1.8,1.83-3.73l5.58-19.27c.31-1.06.46-1.9.46-2.5s-.22-1.06-.66-1.42-1.31-.56-2.61-.62l.24-.82h14.41l-.24.82c-1.39.03-2.42.34-3.11.93-.69.59-1.29,1.79-1.83,3.61l-5.09,17.64c-.65,2.24-.97,3.61-.97,4.09,0,.3.17.57.5.83.33.26.87.39,1.6.39,2.45,0,4.81-.56,7.09-1.68,2.28-1.12,4.21-2.8,5.79-5.02h.93l-3.32,8.41Z"/>
      <path class="st0" d="M471.08,150.95l-4.54,15.73c-.25.9-.38,1.49-.38,1.77,0,.16.07.31.2.45s.27.21.42.21c.25,0,.5-.11.75-.33.66-.55,1.46-1.53,2.39-2.96l.75.44c-2.23,3.88-4.59,5.82-7.1,5.82-.96,0-1.72-.27-2.29-.81-.57-.54-.85-1.22-.85-2.05,0-.55.12-1.24.38-2.08l3.08-10.58c.29-1.02.44-1.78.44-2.3,0-.32-.14-.61-.42-.86-.28-.25-.66-.38-1.15-.38-.22,0-.49,0-.8.02l.29-.88,7.5-1.22h1.33ZM469.71,140.77c.92,0,1.69.32,2.31.95s.94,1.4.94,2.3-.32,1.67-.95,2.3-1.4.95-2.3.95-1.64-.32-2.28-.95c-.63-.63-.95-1.4-.95-2.3s.31-1.67.94-2.3,1.39-.95,2.29-.95Z"/>
      <path class="st0" d="M484.23,150.95l-2.74,9.49c1.84-2.77,3.22-4.67,4.14-5.69,1.34-1.48,2.5-2.48,3.47-3.01.97-.53,1.89-.8,2.74-.8.77,0,1.42.28,1.97.85s.82,1.31.82,2.22c0,.83-.18,1.83-.53,3.01l-2.83,9.45c-.24.83-.35,1.36-.35,1.62,0,.15.06.28.17.4.11.12.22.18.34.18.15,0,.3-.06.46-.18.52-.43,1.04-1.03,1.57-1.81.13-.21.35-.52.64-.93l.84.51c-2.17,3.64-4.45,5.47-6.84,5.47-.92,0-1.63-.24-2.15-.71-.52-.47-.77-1.06-.77-1.77,0-.62.18-1.54.53-2.77l2.77-9.45c.19-.62.29-1.08.29-1.37,0-.16-.07-.31-.2-.43-.13-.12-.29-.19-.46-.19-.56,0-1.24.38-2.04,1.15-2.04,1.95-4.01,4.85-5.91,8.7l-1.81,6.57h-5.64l4.14-14.21c.4-1.4.6-2.4.6-2.99,0-.25-.06-.46-.18-.63-.12-.17-.31-.3-.58-.4-.27-.1-.77-.14-1.5-.14l.24-.84,7.46-1.31h1.35Z"/>
      <path class="st0" d="M504.41,163.16c-.13.96-.2,1.75-.2,2.37,0,1.11.32,1.99.96,2.66.64.66,1.5,1,2.58,1s2.07-.25,3.11-.75c1.04-.5,2.25-1.38,3.62-2.63l.66.6c-1.7,2.05-3.35,3.51-4.96,4.38-1.61.87-3.39,1.31-5.33,1.31-2.46,0-4.17-.59-5.11-1.77-.94-1.18-1.42-2.54-1.42-4.09,0-2.42.7-4.84,2.11-7.26,1.41-2.42,3.33-4.36,5.75-5.82,2.43-1.46,4.86-2.19,7.31-2.19,1.24,0,2.18.3,2.81.89.63.59.95,1.33.95,2.23,0,1.08-.31,2.12-.93,3.14-.86,1.39-1.93,2.5-3.23,3.35-1.3.85-2.75,1.49-4.36,1.94-1.08.29-2.52.52-4.34.66ZM504.61,162.01c1.3-.19,2.3-.45,3.02-.79s1.42-.86,2.1-1.59c.69-.73,1.28-1.65,1.78-2.77.5-1.11.75-2.16.75-3.13,0-.41-.11-.74-.34-.97-.23-.24-.52-.35-.87-.35-.71,0-1.5.49-2.39,1.48-1.62,1.8-2.97,4.51-4.05,8.12Z"/>
    </g>
  </g>
  <g id="P17eOW">
    <g>
      <path class="st1" d="M73.41,178.45c-6.75,2.09-13.71,2.79-20.7,2.56-4.74-.18-9.49-.93-14.2-1.63-2.53-.37-3.61-1.86-3.6-4.67.03-30.27-.08-60.53-.14-90.83,0-4.51.78-5.03,5.15-3.82,10.01,2.74,19.99,2.64,29.96-.17,2.72-.77,3.53-.27,3.53,2.58.05,8.58,0,17.19,0,25.78,0,1.06,0,2.12,0,3.72,3.87-1.01,7.4-1.92,10.93-2.86,13.45-3.51,26.89-7.02,40.33-10.53,7.06-1.84,14.11-3.64,21.14-5.6,2.72-.75,4.58.61,6.25,2.25,3.23,3.25,4.67,7.36,4.81,11.86.01.71-.92,1.89-1.62,2.09-3.27.92-6.59,2.03-9.94,2.25-6.91.43-12.13,4.12-17.49,7.87-17.33,12.15-34.75,24.22-52.15,36.29-1.59,1.08-2.38,2.21-2.34,4.25.13,6.24,0,12.47-.04,18.72l.11-.12ZM44.94,84.45c-4.19.79-5.88,2.95-5.88,7.54-.04,18.27-.03,36.52-.03,54.79,0,8-.04,16.02.03,24.02.03,4.24,1.78,6.31,5.87,7.16,0-31.13,0-62.22,0-93.5ZM149.7,99.44c-1.88-2.58-3.28-3.16-6.33-2.41-6.14,1.49-12.24,3.12-18.37,4.71-8.37,2.16-16.74,4.34-25.12,6.55-7.88,2.08-15.78,4.18-23.64,6.35-.69.2-1.68.99-1.72,1.55-.19,2.56-.08,5.12-.08,8.11,25.33-8.37,50.11-16.55,75.25-24.85Z"/>
      <path class="st1" d="M53.59,81.44c-3.86-.65-8.56-1.35-13.19-2.27-2.47-.5-3.67-2.1-3.51-4.86.18-3.19-.43-6.45-.09-9.6.43-3.79,2.65-6.27,6.58-7.27,11.38-2.88,22.74-5.95,34.12-8.91,17.09-4.46,34.24-8.87,51.34-13.34,5.25-1.36,10.5-2.91,15.76-4.22,4.98-1.25,9.09,1.45,11.32,7.14,1.48,3.8,1.44,3.68-2.54,5.12-10.22,3.72-20.39,7.55-30.56,11.29-13.74,5.06-27.5,10.07-41.25,15.09-1.99.73-3.95,1.58-5.97,2.26-2.16.7-3.54,1.54-3.63,4.35-.12,3.05-3.39,3.2-5.59,3.66-3.9.77-7.9.99-12.79,1.56Z"/>
      <path class="st1" d="M73.3,178.58c.34-.9.89-1.78.97-2.71.14-1.92.05-3.86.05-6.22,4.91.99,9.47,1.57,13.13,4.41,3.04,2.34,1.75,5.89,1.42,8.76-.34,2.86-3.44,3.81-5.92,4.39-5.59,1.29-11.22,2.59-16.94,3.13-12.46,1.19-24.93.77-37.21-2.12-1.23-.29-2.45-.64-3.66-1.01-5.03-1.5-7.85-7.38-5.2-11.78,1.03-1.7,3.4-2.85,5.41-3.62,2.6-.99,5.43-1.32,8.65-2.06,0,2.08.12,3.99-.03,5.88-.22,2.74,1.44,4.03,3.63,4.54,11.08,2.59,22.19,2.52,33.3,0,.93-.23,1.69-1.13,2.5-1.74l-.11.12Z"/>
      <path class="st1" d="M149.99,150.45c-6.97-.02-10.48-6.11-7.82-13.56,1.68-4.75,3.19-9.56,5.03-14.24.44-1.14,1.9-1.85,2.89-2.73.81.95,1.95,1.78,2.38,2.88,2.02,5.24,3.81,10.55,5.74,15.82,2.2,6.06-1.76,11.82-8.21,11.82ZM143.12,141.19c-.95,3.74,2.71,7.88,6.18,7.16-2-2.31-4.2-4.89-6.18-7.16Z"/>
      <path class="st1" d="M138.55,118.98c-.45-.36-1.61-.84-1.9-1.63-.48-1.46.21-2.53,1.94-2.88,5.7-1.12,11.37-2.42,17.1-3.45.68-.11,2,.92,2.33,1.71.2.58-.59,2.2-1.18,2.35-5.83,1.38-11.74,2.53-18.3,3.91Z"/>
    </g>
  </g>
</svg>