<?xml version="1.0" encoding="UTF-8"?>
<svg id="Capa_1" xmlns="http://www.w3.org/2000/svg" version="1.1" viewBox="0 0 567.4 273.2">
  <!-- Generator: Adobe Illustrator 29.8.1, SVG Export Plug-In . SVG Version: 2.1.1 Build 2)  -->
  <defs>
    <style>
      .st0 {
        fill: none;
        stroke: #ef9500;
        stroke-miterlimit: 10;
        stroke-width: 7px;
      }

      .st1 {
        fill: #fff;
      }
    </style>
  </defs>
  <g>
    <path class="st1" d="M171.6,124.44c-.15.15-.32.22-.53.22h-19c-.25,0-.38.1-.38.31l-.94,7.69c0,.21.08.31.25.31h12.19c.21,0,.38.07.5.22.12.15.17.32.12.53l-.88,7.31c-.04.21-.14.39-.28.53s-.32.22-.53.22h-12.19c-.17,0-.29.1-.38.31l-1,8.25c0,.21.08.31.25.31h19.06c.21,0,.38.07.5.22.12.15.17.32.12.53l-.88,7.38c-.04.21-.14.39-.28.53s-.32.22-.53.22h-28.69c-.21,0-.38-.07-.5-.22-.12-.15-.17-.32-.12-.53l5.19-42.25c0-.21.08-.38.25-.53.17-.15.35-.22.56-.22h28.69c.21,0,.38.07.5.22.12.15.17.32.12.53l-.94,7.38c-.04.21-.14.39-.28.53Z"/>
    <path class="st1" d="M200.48,129.28c1.73,1.71,2.59,4.06,2.59,7.06,0,.33-.04.96-.12,1.87l-2.5,20.56c-.04.21-.14.39-.28.53s-.32.22-.53.22h-8.63c-.21,0-.38-.07-.5-.22-.12-.15-.17-.32-.12-.53l2.25-18.31.06-.75c0-1.25-.33-2.25-1-3-.67-.75-1.54-1.12-2.62-1.12-1.21,0-2.26.45-3.16,1.34s-1.43,2.07-1.59,3.53l-2.25,18.31c-.04.21-.14.39-.28.53s-.32.22-.53.22h-8.63c-.21,0-.38-.07-.5-.22-.12-.15-.17-.32-.12-.53l3.75-30.81c.04-.21.13-.38.28-.53.15-.15.32-.22.53-.22h8.63c.21,0,.38.07.5.22.12.15.17.32.12.53l-.25,2.31c-.04.17-.02.26.06.28.08.02.17-.03.25-.16,1.83-2.46,4.4-3.69,7.69-3.69,2.88,0,5.18.85,6.91,2.56Z"/>
    <path class="st1" d="M236.14,145.47c-.12.5-.44.75-.94.75h-18.44c-.25,0-.38.1-.38.31.04.62.17,1.23.38,1.81.38.88,1.02,1.58,1.94,2.12.92.54,2.08.81,3.5.81,2.5,0,4.6-.85,6.31-2.56.17-.21.35-.31.56-.31.17,0,.31.08.44.25l4,5.5c.12.12.19.27.19.44s-.1.35-.31.56c-1.58,1.58-3.47,2.79-5.66,3.63s-4.51,1.25-6.97,1.25c-3.67,0-6.69-.82-9.06-2.47-2.38-1.65-3.96-3.95-4.75-6.91-.38-1.38-.56-2.85-.56-4.44,0-.88.06-1.81.19-2.81.25-2.29.85-4.56,1.81-6.81,1.42-3.08,3.45-5.51,6.09-7.28,2.65-1.77,5.61-2.66,8.91-2.66,2.67,0,4.98.59,6.94,1.78,1.96,1.19,3.47,2.83,4.53,4.94,1.06,2.1,1.62,4.49,1.66,7.16.04,1.25-.08,2.9-.38,4.94ZM217.7,138.66c-.12.29-.27.73-.44,1.31-.08.21-.02.31.19.31h8.63c.21,0,.31-.1.31-.31,0-.29-.04-.69-.12-1.19-.17-1.04-.59-1.83-1.28-2.37-.69-.54-1.59-.81-2.72-.81-2.04,0-3.56,1.02-4.56,3.06Z"/>
    <path class="st1" d="M262.45,127.59c.29.25.38.56.25.94l-2.44,8.69c-.12.5-.44.65-.94.44-.67-.17-1.35-.25-2.06-.25-.67,0-1.19.04-1.56.12-1.25.17-2.37.67-3.34,1.5-.98.83-1.55,1.94-1.72,3.31l-2,16.44c-.04.21-.14.39-.28.53s-.32.22-.53.22h-8.63c-.21,0-.38-.07-.5-.22-.12-.15-.17-.32-.12-.53l3.75-30.81c.04-.21.13-.38.28-.53.15-.15.32-.22.53-.22h8.63c.21,0,.38.07.5.22.12.15.17.32.12.53l-.25,2c0,.12.04.21.12.25.08.04.15,0,.19-.12,1.88-2.21,4.1-3.31,6.69-3.31,1.42,0,2.52.27,3.31.81Z"/>
    <path class="st1" d="M283.61,127.44c.15-.15.32-.22.53-.22h8.63c.21,0,.38.07.5.22.12.15.17.32.12.53l-3.44,27.94c-.71,5.71-2.8,9.79-6.28,12.25-3.48,2.46-7.68,3.69-12.59,3.69-1.88,0-3.77-.17-5.69-.5-.38-.04-.54-.31-.5-.81l1.25-7.75c.04-.54.35-.75.94-.62,1.58.38,3.1.56,4.56.56,2.29,0,4.17-.54,5.63-1.62,1.46-1.08,2.33-2.79,2.62-5.13l-.5.44c-1.62,1.5-3.81,2.25-6.56,2.25s-5.04-.6-7.12-1.81c-2.08-1.21-3.42-3.33-4-6.38-.21-.96-.31-2.12-.31-3.5,0-1,.08-2.29.25-3.88.38-3.08,1.08-5.71,2.13-7.88,1.25-2.58,2.99-4.65,5.22-6.19,2.23-1.54,4.7-2.31,7.41-2.31,2.96,0,5.08.92,6.38,2.75.08.08.17.12.25.09.08-.02.12-.09.12-.22l.19-1.38c.04-.21.13-.38.28-.53ZM281.45,143.03c.17-1.42.25-2.25.25-2.5,0-.62-.1-1.29-.31-2-.21-.92-.62-1.63-1.25-2.16-.62-.52-1.46-.78-2.5-.78-1.88,0-3.33.98-4.38,2.94-.79,1.17-1.29,2.71-1.5,4.63-.08.5-.12,1.19-.12,2.06,0,1,.12,1.81.38,2.44.21.88.65,1.58,1.31,2.12.67.54,1.52.81,2.56.81,2.04,0,3.52-.96,4.44-2.88.5-1,.88-2.56,1.12-4.69Z"/>
    <path class="st1" d="M292.95,171.22l.88-7c.04-.21.13-.39.28-.53.15-.15.3-.22.47-.22,2.58,0,4.47-.24,5.66-.72,1.19-.48,2.01-1.49,2.47-3.03.04-.08.06-.21.06-.38l-5.94-31.31v-.19c0-.21.06-.38.19-.5s.29-.19.5-.19h9.19c.42,0,.65.21.69.63l1.94,18.5c0,.17.05.25.16.25s.18-.08.22-.25l6.44-18.5c.17-.42.46-.63.88-.63h8.94c.25,0,.43.07.53.22.1.15.09.37-.03.66l-14.19,32.13c-1.42,3.12-2.77,5.49-4.06,7.09-1.29,1.6-3.04,2.79-5.25,3.56-2.21.77-5.27,1.16-9.19,1.16h-.44c-.25,0-.38-.25-.38-.75Z"/>
    <path class="st1" d="M343.52,156.41c-2.58-2.42-3.88-5.67-3.88-9.75,0-1,.04-1.77.12-2.31l1.69-13.5c.38-3.08,1.38-5.8,3-8.16,1.62-2.35,3.75-4.18,6.38-5.47,2.62-1.29,5.54-1.94,8.75-1.94,4.5,0,8.05,1.14,10.66,3.41,2.6,2.27,3.91,5.34,3.91,9.22,0,.42-.04,1.12-.12,2.12,0,.17-.08.32-.25.47-.17.15-.35.22-.56.22l-8.69.56c-.46,0-.67-.23-.62-.69.04-.25.06-.6.06-1.06,0-1.67-.49-2.98-1.47-3.94-.98-.96-2.3-1.44-3.97-1.44-1.83,0-3.4.59-4.69,1.78s-2.06,2.74-2.31,4.66l-1.75,14.19c-.04.21-.06.52-.06.94,0,1.67.5,2.99,1.5,3.97,1,.98,2.33,1.47,4,1.47,1.88,0,3.45-.58,4.72-1.75,1.27-1.17,2.01-2.71,2.22-4.62.08-.46.35-.69.81-.69l8.56.44c.46,0,.69.21.69.62-.38,2.96-1.38,5.56-3,7.81-1.63,2.25-3.74,3.99-6.34,5.22-2.6,1.23-5.53,1.84-8.78,1.84-4.46,0-7.98-1.21-10.56-3.62Z"/>
    <path class="st1" d="M380.33,157.03c-2.29-2-3.67-4.71-4.13-8.13-.12-.88-.19-1.77-.19-2.69s.06-1.94.19-2.94c.25-2.25.75-4.27,1.5-6.06,1.38-3.29,3.44-5.86,6.19-7.72,2.75-1.85,5.92-2.78,9.5-2.78s6.44.93,8.69,2.78c2.25,1.85,3.65,4.41,4.19,7.66.17.96.25,2.08.25,3.37,0,1.17-.04,2.04-.12,2.63-.25,2.04-.71,3.88-1.38,5.5-1.25,3.5-3.27,6.27-6.06,8.31-2.79,2.04-6.04,3.06-9.75,3.06s-6.58-1-8.88-3ZM393.4,150c.88-.77,1.56-1.82,2.06-3.16.33-.92.6-2.1.81-3.56.08-.92.12-1.56.12-1.94,0-1.79-.34-3.2-1.03-4.22-.69-1.02-1.74-1.53-3.16-1.53-2.33,0-4.02,1.35-5.06,4.06-.42,1.12-.69,2.33-.81,3.63-.12.79-.19,1.56-.19,2.31,0,1.67.35,3.01,1.06,4.03.71,1.02,1.75,1.53,3.12,1.53,1.17,0,2.19-.38,3.06-1.16Z"/>
    <path class="st1" d="M437.3,129.28c1.73,1.71,2.59,4.06,2.59,7.06,0,.33-.04.96-.12,1.87l-2.5,20.56c-.04.21-.14.39-.28.53s-.32.22-.53.22h-8.63c-.21,0-.38-.07-.5-.22-.12-.15-.17-.32-.12-.53l2.25-18.31.06-.75c0-1.25-.33-2.25-1-3-.67-.75-1.54-1.12-2.62-1.12-1.21,0-2.26.45-3.16,1.34s-1.43,2.07-1.59,3.53l-2.25,18.31c-.04.21-.14.39-.28.53s-.32.22-.53.22h-8.63c-.21,0-.38-.07-.5-.22-.12-.15-.17-.32-.12-.53l3.75-30.81c.04-.21.13-.38.28-.53.15-.15.32-.22.53-.22h8.63c.21,0,.38.07.5.22.12.15.17.32.12.53l-.25,2.31c-.04.17-.02.26.06.28.08.02.17-.03.25-.16,1.83-2.46,4.4-3.69,7.69-3.69,2.88,0,5.18.85,6.91,2.56Z"/>
    <path class="st1" d="M464.15,135.31c-.17.15-.35.22-.56.22h-5.5c-.21,0-.31.1-.31.31l-1.44,11.38c-.04.21-.06.5-.06.88,0,1.79.81,2.69,2.44,2.69h2.25c.21,0,.38.07.5.22.12.15.17.32.12.53l-.88,7.25c-.08.46-.35.73-.81.81-2,.08-3.44.12-4.31.12-3.21,0-5.59-.46-7.16-1.38-1.56-.92-2.34-2.63-2.34-5.13,0-.33.04-.92.12-1.75l1.88-15.63c.08-.21,0-.31-.25-.31h-3.44c-.21,0-.38-.07-.5-.22-.12-.15-.17-.32-.12-.53l.81-6.81c.04-.21.13-.38.28-.53.15-.15.32-.22.53-.22h3.44c.25,0,.38-.1.38-.31l.94-7.56c.04-.21.13-.38.28-.53s.32-.22.53-.22h8.19c.21,0,.38.07.5.22.12.15.17.32.12.53l-.94,7.56c0,.21.08.31.25.31h5.56c.21,0,.38.07.5.22.12.15.17.32.12.53l-.88,6.81c0,.21-.08.39-.25.53Z"/>
    <path class="st1" d="M489.4,127.59c.29.25.38.56.25.94l-2.44,8.69c-.12.5-.44.65-.94.44-.67-.17-1.35-.25-2.06-.25-.67,0-1.19.04-1.56.12-1.25.17-2.37.67-3.34,1.5-.98.83-1.55,1.94-1.72,3.31l-2,16.44c-.04.21-.14.39-.28.53s-.32.22-.53.22h-8.63c-.21,0-.38-.07-.5-.22-.12-.15-.17-.32-.12-.53l3.75-30.81c.04-.21.13-.38.28-.53.15-.15.32-.22.53-.22h8.63c.21,0,.38.07.5.22.12.15.17.32.12.53l-.25,2c0,.12.04.21.12.25.08.04.15,0,.19-.12,1.88-2.21,4.1-3.31,6.69-3.31,1.42,0,2.52.27,3.31.81Z"/>
    <path class="st1" d="M493.46,157.03c-2.29-2-3.67-4.71-4.13-8.13-.12-.88-.19-1.77-.19-2.69s.06-1.94.19-2.94c.25-2.25.75-4.27,1.5-6.06,1.38-3.29,3.44-5.86,6.19-7.72,2.75-1.85,5.92-2.78,9.5-2.78s6.44.93,8.69,2.78c2.25,1.85,3.65,4.41,4.19,7.66.17.96.25,2.08.25,3.37,0,1.17-.04,2.04-.12,2.63-.25,2.04-.71,3.88-1.38,5.5-1.25,3.5-3.27,6.27-6.06,8.31-2.79,2.04-6.04,3.06-9.75,3.06s-6.58-1-8.88-3ZM506.53,150c.88-.77,1.56-1.82,2.06-3.16.33-.92.6-2.1.81-3.56.08-.92.12-1.56.12-1.94,0-1.79-.34-3.2-1.03-4.22-.69-1.02-1.74-1.53-3.16-1.53-2.33,0-4.02,1.35-5.06,4.06-.42,1.12-.69,2.33-.81,3.63-.12.79-.19,1.56-.19,2.31,0,1.67.35,3.01,1.06,4.03.71,1.02,1.75,1.53,3.12,1.53,1.17,0,2.19-.38,3.06-1.16Z"/>
    <path class="st1" d="M522.09,159.31c-.12-.15-.17-.32-.12-.53l5.19-42.25c.04-.21.13-.38.28-.53s.32-.22.53-.22h8.63c.21,0,.38.07.5.22.12.15.17.32.12.53l-5.19,42.25c-.04.21-.14.39-.28.53s-.32.22-.53.22h-8.63c-.21,0-.38-.07-.5-.22Z"/>
  </g>
  <g>
    <path class="st1" d="M362.24,197.75c-.66-.66-1.28-1.31-2.17-2.28-2,1.86-4.25,2.66-6.8,2.66-4.52,0-7.15-3.04-7.15-6.52,0-3.18,1.9-5.35,4.56-6.8v-.1c-1.21-1.52-1.93-3.21-1.93-4.87,0-2.83,2.04-5.73,5.9-5.73,2.9,0,5.14,1.93,5.14,4.94,0,2.45-1.42,4.38-5.11,6.21v.1c1.97,2.28,4.18,4.83,5.66,6.49,1.07-1.62,1.79-3.87,2.24-6.8h2.76c-.62,3.66-1.62,6.56-3.35,8.59,1.24,1.31,2.45,2.62,3.83,4.11h-3.59ZM358.58,193.75c-1.38-1.52-3.97-4.35-6.56-7.32-1.24.79-3,2.28-3,4.73,0,2.66,1.97,4.69,4.76,4.69,2,0,3.69-.9,4.8-2.11ZM351.5,179.56c0,1.66.76,2.93,1.76,4.18,2.35-1.35,3.87-2.59,3.87-4.56,0-1.42-.79-3-2.69-3s-2.93,1.59-2.93,3.38Z"/>
    <path class="st1" d="M375.35,194.64c.9.59,2.49,1.21,4,1.21,2.21,0,3.24-1.1,3.24-2.48,0-1.45-.86-2.24-3.11-3.07-3-1.07-4.42-2.73-4.42-4.73,0-2.69,2.17-4.9,5.76-4.9,1.69,0,3.18.48,4.11,1.04l-.76,2.21c-.66-.41-1.86-.97-3.42-.97-1.79,0-2.8,1.04-2.8,2.28,0,1.38,1,2,3.18,2.83,2.9,1.1,4.38,2.55,4.38,5.04,0,2.93-2.28,5-6.25,5-1.83,0-3.52-.45-4.69-1.14l.76-2.31Z"/>
    <path class="st1" d="M403.41,193.19c0,1.73.03,3.24.14,4.56h-2.69l-.17-2.73h-.07c-.79,1.35-2.55,3.11-5.52,3.11-2.62,0-5.76-1.45-5.76-7.32v-9.77h3.04v9.25c0,3.18.97,5.32,3.73,5.32,2.04,0,3.45-1.42,4-2.76.17-.45.28-1,.28-1.55v-10.25h3.04v12.15Z"/>
    <path class="st1" d="M408.45,186.5c0-2.14-.07-3.87-.14-5.45h2.73l.14,2.86h.07c1.24-2.04,3.21-3.24,5.94-3.24,4.04,0,7.08,3.42,7.08,8.49,0,6-3.66,8.97-7.59,8.97-2.21,0-4.14-.97-5.14-2.62h-.07v9.08h-3v-18.09ZM411.45,190.95c0,.45.07.86.14,1.24.55,2.11,2.38,3.55,4.56,3.55,3.21,0,5.07-2.62,5.07-6.45,0-3.35-1.76-6.21-4.97-6.21-2.07,0-4,1.48-4.59,3.76-.1.38-.21.83-.21,1.24v2.87Z"/>
    <path class="st1" d="M428.09,186.5c0-2.14-.07-3.87-.14-5.45h2.73l.14,2.86h.07c1.24-2.04,3.21-3.24,5.94-3.24,4.04,0,7.08,3.42,7.08,8.49,0,6-3.66,8.97-7.59,8.97-2.21,0-4.14-.97-5.14-2.62h-.07v9.08h-3v-18.09ZM431.09,190.95c0,.45.07.86.14,1.24.55,2.11,2.38,3.55,4.56,3.55,3.21,0,5.07-2.62,5.07-6.45,0-3.35-1.76-6.21-4.97-6.21-2.07,0-4,1.48-4.59,3.76-.1.38-.21.83-.21,1.24v2.87Z"/>
    <path class="st1" d="M447.72,173.24h3.04v24.51h-3.04v-24.51Z"/>
    <path class="st1" d="M456.97,181.04l3.66,9.87c.38,1.1.79,2.42,1.07,3.42h.07c.31-1,.66-2.28,1.07-3.49l3.31-9.8h3.21l-4.56,11.91c-2.17,5.73-3.66,8.66-5.73,10.46-1.48,1.31-2.97,1.83-3.73,1.97l-.76-2.55c.76-.24,1.76-.72,2.66-1.48.83-.66,1.86-1.83,2.55-3.38.14-.31.24-.55.24-.72s-.07-.41-.21-.79l-6.18-15.39h3.31Z"/>
    <path class="st1" d="M468.81,202c.76-2.04,1.69-5.73,2.07-8.25l3.38-.34c-.79,2.93-2.31,6.76-3.28,8.39l-2.17.21Z"/>
    <path class="st1" d="M488.34,174.49v23.26h-3v-23.26h3Z"/>
    <path class="st1" d="M493.83,185.57c0-1.73-.03-3.14-.14-4.52h2.69l.17,2.76h.07c.83-1.59,2.76-3.14,5.52-3.14,2.31,0,5.9,1.38,5.9,7.11v9.97h-3.04v-9.63c0-2.69-1-4.94-3.87-4.94-2,0-3.56,1.42-4.07,3.11-.14.38-.21.9-.21,1.42v10.04h-3.04v-12.18Z"/>
    <path class="st1" d="M524.89,197.13c-.79.41-2.55.97-4.8.97-5.04,0-8.32-3.42-8.32-8.53s3.52-8.87,8.97-8.87c1.79,0,3.38.45,4.21.86l-.69,2.35c-.72-.41-1.86-.79-3.52-.79-3.83,0-5.9,2.83-5.9,6.32,0,3.87,2.49,6.25,5.8,6.25,1.73,0,2.87-.45,3.73-.83l.52,2.28Z"/>
  </g>
  <path class="st0" d="M493.15,212.6"/>
  <g>
    <path class="st1" d="M117.4,128.5l-27.99,35.84c-7.25,10.05-15.33,7.73-15.33,7.73-9.04-2.04-9.92-13.68-9.92-13.68l-2.77-40.36h0c-.25-1.5-1.16-1.51-1.65-1.27-.1.05-.3.2-.47.42-.51.64-1.14,1.76-1.14,1.76l-17.5,29.81c3.92,17.81,19.8,31.14,38.79,31.14,21.94,0,39.72-17.78,39.72-39.72,0-4.06-.61-7.97-1.74-11.66Z"/>
    <path class="st1" d="M40.25,140.15c.52-.83,1.68-2.89,1.68-2.89l9.83-16.95h.02s2.74-4.73,2.74-4.73c0,0,3.35-6.21,7.22-6.63,4.4-.49,5.22,4.72,5.22,4.72l4.63,36.16c.1.84.34,1.62.69,2.27.23.46.5.81.8,1.07.41.4.89.69,1.44.86,1.85.56,3.93-.55,5.32-2.62.02-.02.03-.03.03-.03l28.68-38.24c-7.25-7.82-17.62-12.71-29.12-12.71-21.94,0-39.72,17.78-39.72,39.72,0,.18,0,.36,0,.54.23-.14.42-.33.55-.54Z"/>
  </g>
</svg>