<?xml version="1.0" encoding="UTF-8"?>
<svg id="Capa_1" xmlns="http://www.w3.org/2000/svg" version="1.1" viewBox="0 0 492.26 179.74">
  <!-- Generator: Adobe Illustrator 29.8.1, SVG Export Plug-In . SVG Version: 2.1.1 Build 2)  -->
  <defs>
    <style>
      .st0 {
        fill: #fff;
      }
    </style>
  </defs>
  <g>
    <polygon class="st0" points="44.33 40.21 37.46 54.1 104.06 54.1 110.97 40.21 44.33 40.21"/>
    <polygon class="st0" points="31.84 65.66 31.84 65.66 31.76 65.66 24.9 79.55 24.98 79.55 18.75 92.15 18.71 92.15 11.23 107.47 81.4 107.47 88.88 92.16 44 92.15 50.23 79.55 91.64 79.55 98.5 65.66 31.84 65.66 31.84 65.66"/>
  </g>
  <g>
    <path class="st0" d="M167.1,40.21h-40.68l-6.88,13.89h66.6c1.09-6.4-6.83-13.89-19.05-13.89Z"/>
    <path class="st0" d="M148.85,69.73h-11.6l1.79-3.62h-25.49l-20.43,41.35h25.49s12.39-25.09,12.39-25.09h16.9c25.16-.15,34.54-16.27,34.54-16.27l-24.94-.19c-2.91,3.95-8.66,3.81-8.66,3.81Z"/>
  </g>
  <g>
    <path class="st0" d="M244.97,39.27c-24.36-.87-41.74,14.83-41.74,14.83h68.71s-2.62-13.96-26.98-14.83Z"/>
    <path class="st0" d="M214.07,91.69c-9.77-8.52,4.87-25.64,4.87-25.64h-25.52c-6.54,8.89-6.76,18.88-6.76,18.88-1.31,22.61,24.21,23.19,24.21,23.19,41.66,2.54,52.79-24.29,52.79-24.29l-22.61-2.69c-16.04,20.23-26.98,10.54-26.98,10.54Z"/>
  </g>
  <g>
    <path class="st0" d="M335.13,39.27c-24.36-.87-41.74,14.83-41.74,14.83h68.71s-2.62-13.96-26.98-14.83Z"/>
    <path class="st0" d="M339.06,66.05c-.65,5.19-6.69,14.95-6.69,14.95-13.78,20.44-30.03,10.69-30.03,10.69-10.46-7.34,4.87-25.64,4.87-25.64h-25.52c-6.54,8.89-6.76,18.88-6.76,18.88-1.31,22.61,24.21,23.19,24.21,23.19,36.2,2.21,52.91-18.85,56.67-24.41h0c5.86-7.94,7.89-17.66,7.89-17.66h-24.65Z"/>
  </g>
  <g>
    <polygon class="st0" points="378.3 66.05 357.86 107.42 377.14 107.42 397.58 66.05 378.3 66.05"/>
    <polygon class="st0" points="428.89 107.42 448.18 107.42 468.62 66.05 449.33 66.05 428.89 107.42"/>
    <polygon class="st0" points="428.93 66.05 414.61 83.11 417.15 66.05 400.57 66.05 394.76 107.42 412.64 107.42 446.96 66.05 428.93 66.05"/>
    <polygon class="st0" points="420.86 40.28 391.03 40.28 384.2 54.1 419.04 54.1 420.86 40.28"/>
    <polygon class="st0" points="450.5 40.28 439.26 54.1 474.93 54.1 481.76 40.28 450.5 40.28"/>
  </g>
  <g>
    <path class="st0" d="M268.47,125.69c7.25,0,11.8,3.42,11.8,9.8s-4.74,10.03-11.85,10.03h-7.06v11.57h-6.38v-31.4h13.49ZM268.01,140.22c3.87,0,5.88-1.96,5.88-4.69s-2.14-4.56-5.88-4.56h-6.65v9.25h6.65Z"/>
    <path class="st0" d="M315,157.09h-6.65l-3.42-8.61h-12.4l-3.42,8.61h-6.65l13.53-31.4h5.47l13.53,31.4ZM302.88,143.37l-4.15-10.44-4.19,10.44h8.34Z"/>
    <path class="st0" d="M348.36,157.09h-6.88l-13.94-22.42v22.42h-5.74v-31.4h6.84l13.99,22.47v-22.47h5.74v31.4Z"/>
    <path class="st0" d="M387.65,157.09h-6.65l-3.42-8.61h-12.4l-3.42,8.61h-6.65l13.53-31.4h5.47l13.53,31.4ZM375.53,143.37l-4.15-10.44-4.19,10.44h8.34Z"/>
    <path class="st0" d="M426.07,157.09h-6.38v-23.33l-8.02,23.33h-4.24l-7.25-23.33v23.33h-5.74v-31.4h8.89l6.61,21.24,7.25-21.24h8.89v31.4Z"/>
    <path class="st0" d="M465.36,157.09h-6.65l-3.42-8.61h-12.4l-3.42,8.61h-6.65l13.53-31.4h5.47l13.53,31.4ZM453.23,143.37l-4.15-10.44-4.19,10.44h8.34Z"/>
  </g>
  <g>
    <path class="st0" d="M104.06,56.38h-62.04l-2.23,4.51h66.6l6.91-13.89h-3.16l-4.04,8.12c-.39.77-1.18,1.26-2.04,1.26Z"/>
    <path class="st0" d="M88.1,98.94l-4.65,9.53c-.38.78-1.18,1.28-2.05,1.28H15.76s-2.2,4.51-2.2,4.51h70.17s7.48-15.31,7.48-15.31h-3.11Z"/>
    <path class="st0" d="M91.64,81.83h-39.99s-3.98,8.05-3.98,8.05h3.14s1.75-3.54,1.75-3.54h41.41s6.86-13.89,6.86-13.89h-3.14s-4.01,8.11-4.01,8.11c-.38.78-1.18,1.27-2.04,1.27Z"/>
    <path class="st0" d="M124.11,56.38l-2.23,4.51h66.6c.28-1.65-.05-3.37-.89-5.02-.4.32-.9.52-1.44.52h-62.04Z"/>
    <path class="st0" d="M179.73,72.86c-1.06,1.01-2.31,2.09-3.77,3.17-5.28,3.9-14.43,8.56-28.06,8.63h-15.49l-11.76,23.82c-.38.78-1.18,1.27-2.04,1.27h-20.93s-2.23,4.51-2.23,4.51h25.49s12.39-25.09,12.39-25.09h16.9c25.16-.15,34.54-16.27,34.54-16.27l-5.04-.04Z"/>
    <path class="st0" d="M211.7,56.38c-3.93,2.52-6.13,4.51-6.13,4.51h68.71s-.39-2-2.17-4.53c-.05,0-.11.02-.16.02h-60.25Z"/>
    <path class="st0" d="M255.42,97.8c-6.84,5.83-19.18,12.77-39.08,12.77-1.82,0-3.69-.06-5.57-.17-.96-.03-12.16-.51-19.72-7.51,5.9,11.64,22.14,12.02,22.14,12.02,41.66,2.54,52.79-24.29,52.79-24.29l-3.49-.42c-1.63,2.23-3.93,4.91-7.07,7.59Z"/>
    <path class="st0" d="M213.59,86.95c1.74-7.28,7.68-14.11,7.68-14.11h-4.37c-2.46,4.05-4.92,9.66-3.31,14.11Z"/>
    <path class="st0" d="M301.86,56.38c-3.93,2.52-6.13,4.51-6.13,4.51h68.71s-.39-2-2.17-4.53c-.05,0-.11.02-.16.02h-60.25Z"/>
    <path class="st0" d="M301.86,86.94c1.74-7.28,7.68-14.11,7.68-14.11h-4.37c-2.46,4.04-4.92,9.66-3.31,14.11Z"/>
    <path class="st0" d="M358.14,90.5c5.86-7.94,7.89-17.66,7.89-17.66h-1.99c-1.3,3.55-3.34,8.07-6.37,12.19-4.1,6.04-19.93,25.54-53.29,25.54-1.75,0-3.55-.06-5.34-.16-.96-.03-12.16-.52-19.72-7.51,5.9,11.64,22.14,12.02,22.14,12.02,36.2,2.21,52.91-18.85,56.67-24.41h0Z"/>
    <path class="st0" d="M396.77,72.84l-17.58,35.6c-.38.78-1.18,1.27-2.04,1.27h-14.73l-2.23,4.51h19.29l16.82-34.05,1.03-7.33h-.55Z"/>
    <polygon class="st0" points="396.77 72.84 397.32 72.84 397.54 71.29 396.77 72.84"/>
    <path class="st0" d="M450.22,108.43c-.38.78-1.18,1.27-2.04,1.27h-14.73l-2.23,4.51h19.29l20.44-41.38h-3.14l-17.58,35.6Z"/>
    <polygon class="st0" points="419.31 73.97 419.48 72.84 418.44 72.84 418.05 75.47 419.31 73.97"/>
    <path class="st0" d="M414.4,108.88c-.43.52-1.08.82-1.75.82h-14.93l-.63,4.51h17.89l19.86-23.94,7.36-14.89-27.78,33.5Z"/>
    <path class="st0" d="M419.04,56.38h-30.29l-2.23,4.51h34.84l1.82-13.82h-.92l-.96,7.34c-.15,1.13-1.12,1.98-2.26,1.98Z"/>
    <path class="st0" d="M480.95,47.06l-3.98,8.05c-.38.78-1.18,1.27-2.04,1.27h-29.68l-3.67,4.51h35.67l6.83-13.82h-3.14Z"/>
  </g>
</svg>