<?xml version="1.0" encoding="UTF-8"?>
<svg id="Capa_1" xmlns="http://www.w3.org/2000/svg" version="1.1" viewBox="0 0 924 336">
  <!-- Generator: Adobe Illustrator 29.8.1, SVG Export Plug-In . SVG Version: 2.1.1 Build 2)  -->
  <defs>
    <style>
      .st0 {
        fill: #fff;
      }
    </style>
  </defs>
  <path class="st0" d="M420.52,85.33v30.2h-96c-.52,0-9,4.29-9.37,4.66-1.64,1.65-5.12,11.8-4.66,14.76h110.02v30.2h-110.02c-1.09,6.72,2.94,14.76,8.65,18.32.87.54,7.12,3.25,7.53,3.25h93.84v30.2h-117.57c-.85,0-14.19-4.43-16.22-5.35-9.42-4.29-14.16-13.56-15.15-23.68-2.45-24.94,1.7-54.14.44-79.56,2.61-5.73,6.13-13.01,11.42-16.62,1.62-1.11,14.36-6.38,15.19-6.38h121.89Z"/>
  <path class="st0" d="M254.41,85.33v30.2h-96c-.63,0-10.31,5.65-10.85,6.41-4.31,6.08-4.09,37.72-3.26,46.53.26,2.78,3.33,12.19,4.72,13.61.44.44,10.92,4.64,11.54,4.64h52.85v-19.42s-17.26,0-17.26,0v-23.73h58.25v73.35h-117.57c-.94,0-15.79-4.99-17.72-6.01-10.63-5.58-14.77-18.13-15.8-29.5-1.46-15.96-1.44-46.76,0-62.74.99-11.05,5.87-21.62,15.25-27.9,4.83-3.23,9.44-2.57,13.97-5.45h121.89Z"/>
  <path class="st0" d="M588.79,186.72v30.2h-119.73c-.51,0-8.16-2.54-9.79-3.16-6.03-2.28-13.59-7.71-16.9-13.3-.85-1.43-4.59-9.94-4.59-10.51v-104.63h37.75c.23,0,3.24,3.01,3.24,3.24v84.13c0,1.3,4.3,9.69,6.43,10.83,2.51-.23,9.23,3.2,9.75,3.2h93.84Z"/>
  <path class="st0" d="M636.25,106.91c.21-.23,5.92-.2,6.25.28.67.96-.16,3.31.3,3.96,1.11,1.59,9.72-5.56,13.94-5.62,1.28-.02,8.99,1.74,9.87,2.33,2.5,1.69.77,7.27,5.23,5.51,2.85-1.13,5.7-7.9,12.95-7.9,4.72,0,14.02,6.85,14.02,11.14v50.7h-8.63v-48.54c0-.95-5.25-5.52-7.55-5.52-2.52,0-9.71,6.85-9.71,7.68v46.38c-2.95.7-10.79-.32-10.79-3.24v-45.3c0-1.68-6.12-6.23-9.52-5.26-1.89.54-7.73,8.47-7.73,9.57v44.22h-8.63v-60.4Z"/>
  <rect class="st0" x="595.26" y="186.72" width="62.56" height="30.2"/>
  <rect class="st0" x="677.24" y="186.72" width="62.56" height="30.2"/>
  <rect class="st0" x="759.21" y="186.72" width="62.56" height="30.2"/>
  <path class="st0" d="M621.15,83.18v8.62c-8.88-1.39-24.8-.05-23.82,11.84,1.26,15.47,39.5,23.88,25.57,51.4-7.31,14.46-22.6,13.78-36.27,10.11,2.33-2.26,1.89-8.29,2.17-8.63.35-.43,3.28,1.94,5.39,2.16,7.89.8,19.13-.01,20.54-9.64,1.86-12.71-5.81-16.9-14.03-24.91-1.86-1.81-4.76-2.26-6.52-4.26-7.06-8-7.32-20.8-1.12-29.18,7.99-10.79,15.99-7.11,28.09-7.5Z"/>
  <path class="st0" d="M744.11,167.31c-.21.23-5.92.2-6.24-.29-.74-1.1.65-4.03-1.31-4.07-5.52-.14-16.23,11.22-24.54-1.29-9-13.56,2.72-28.82,16.32-32.79,5.66-1.65,9.27,2.44,6.8-7.58-1.67-6.77-4.9-8.41-11.59-8.01-3.36.2-6.02,2.16-6.42,2.19-1.4.09-5.49-5-1.1-7.52,3.91-2.24,15.85-2.44,20.19-.67,2.39.98,7.9,7.75,7.9,9.34,0,7.3,1.72,48.84,0,50.7ZM735.48,137.1c-.32-.34-7.63-.23-9.43.28-8.75,2.48-6.24,14.49-5.56,21.2,7.91,3.35,13.94,1.64,14.98-7.46.27-2.4.49-13.5.01-14.01Z"/>
  <path class="st0" d="M804.51,91.8v15.11s10.79,0,10.79,0v6.47h-10.79c1.87,11.48-2.65,31.6.27,41.8,1.79,6.24,9.75,5.07,10.52,5.66,4.67,3.61-9.38,10.94-17.31,3.28-3.86-3.73-1.53-10.01-2.15-15.11-1.05-8.67-2.39-14.06-2.05-23.72.07-2.11,1.94-3.95,1.76-6.2-.67-8.41-6.79-4.76-8.31-5.72-.27-.17-.27-6.3,0-6.47,2.56-1.63,6.56,4.06,8.63-7.59,1.36-7.63-3.35-8.39,8.64-7.52Z"/>
  <path class="st0" d="M759.21,112.3c-.02-.27-4.04-3.78,1.08-5.39,9.35-2.93,5.01,6.27,5.38,6.46,5.02,2.63,3.82-4.2,7.83-6.2,2.28-1.14,8.33-3.16,9.43.82,2.28,8.2-6.45,6.47-8.3,7.87-.53.4-6.79,10.87-6.79,11.54v39.91h-8.63c-.91-18.02,1.24-37.12,0-55.01Z"/>
</svg>