<?xml version="1.0" encoding="UTF-8"?>
<svg id="Capa_1" xmlns="http://www.w3.org/2000/svg" version="1.1" xmlns:serif="http://www.serif.com/" viewBox="0 0 612 167.49">
  <!-- Generator: Adobe Illustrator 29.8.1, SVG Export Plug-In . SVG Version: 2.1.1 Build 2)  -->
  <defs>
    <style>
      .st0 {
        fill: #fff;
      }
    </style>
  </defs>
  <g id="Mesa-de-trabajo1" serif:id="Mesa de trabajo1">
    <g id="logo-iluminations" serif:id="logo iluminations">
      <rect class="st0" x="119.94" y="63.54" width="3.51" height="45.37"/>
      <path class="st0" d="M137.35,63.54v42.44h22.43v2.92h-25.94v-45.37h3.51Z"/>
      <path class="st0" d="M168.55,63.54v42.44h22.45v2.92h-25.95v-45.37h3.51Z"/>
      <path class="st0" d="M229.7,63.54h3.51v24.75c0,6.77-1.77,12-5.29,15.68-3.54,3.68-8.1,5.52-13.71,5.52s-10.14-1.81-13.66-5.45c-3.54-3.64-5.31-8.62-5.31-14.94v-25.55h3.54v25.42c0,5.42,1.44,9.66,4.3,12.7,2.88,3.05,6.59,4.58,11.13,4.58s8.32-1.54,11.19-4.63c2.87-3.08,4.3-7.47,4.3-13.13v-24.94Z"/>
      <path class="st0" d="M263.42,84.61l17.23-21.07h3.54v45.37h-3.54v-40.24l-17.26,21.2-17.33-21.2v40.24h-3.5v-45.37h3.5l17.36,21.07Z"/>
      <rect class="st0" x="294.56" y="63.54" width="3.51" height="45.37"/>
      <path class="st0" d="M349.27,63.54v45.37h-2.88l-34.49-39.66v39.66h-3.51v-45.37h2.97l34.41,39.65v-39.65h3.5Z"/>
      <path class="st0" d="M386.41,90.29l-9.78-21.37-9.74,21.37h19.52ZM377.63,63.2l20.97,45.7h-3.67l-7.18-15.69h-22.18l-7.15,15.69h-3.68l20.97-45.7h1.92Z"/>
      <path class="st0" d="M430.01,63.54v2.92h-17.02v42.44h-3.54v-42.44h-17.02v-2.92h37.57Z"/>
      <rect class="st0" x="435.51" y="63.54" width="3.51" height="45.37"/>
      <path class="st0" d="M471.6,106.23c5.65,0,10.42-1.93,14.29-5.79,3.87-3.87,5.82-8.61,5.82-14.21s-1.95-10.38-5.82-14.23c-3.88-3.86-8.64-5.8-14.29-5.8s-10.47,1.94-14.4,5.8c-3.92,3.86-5.89,8.61-5.89,14.23s1.96,10.34,5.89,14.21c3.92,3.86,8.73,5.79,14.4,5.79M471.46,62.95c6.71,0,12.41,2.25,17.06,6.76,4.66,4.52,7,10.03,7,16.52s-2.34,11.98-7,16.49c-4.65,4.51-10.34,6.77-17.06,6.77s-12.35-2.25-16.98-6.77c-4.65-4.51-6.96-10.01-6.96-16.49s2.31-12,6.96-16.52c4.64-4.5,10.3-6.76,16.98-6.76"/>
      <path class="st0" d="M544.97,63.54v45.37h-2.88l-34.49-39.66v39.66h-3.52v-45.37h2.98l34.41,39.65v-39.65h3.5Z"/>
      <path class="st0" d="M576.77,65.8v3.86c-3.94-2.31-7.33-3.47-10.16-3.47s-5.02.83-6.84,2.48c-1.84,1.65-2.76,3.71-2.76,6.15,0,1.75.54,3.33,1.62,4.74,1.1,1.4,3.35,2.76,6.79,4.05,3.45,1.31,5.96,2.39,7.54,3.25,1.58.87,2.92,2.12,4.03,3.77,1.1,1.64,1.66,3.78,1.66,6.39,0,3.48-1.28,6.43-3.83,8.83-2.55,2.41-5.68,3.6-9.35,3.6s-7.65-1.32-11.62-3.96v-4.13c4.4,3.22,8.2,4.83,11.43,4.83,2.67,0,4.95-.87,6.79-2.61,1.85-1.75,2.77-3.88,2.77-6.42,0-1.92-.57-3.66-1.72-5.21-1.14-1.55-3.47-3-6.97-4.34-3.51-1.35-6.01-2.42-7.51-3.25-1.51-.83-2.78-2-3.84-3.52-1.06-1.52-1.57-3.49-1.57-5.9,0-3.34,1.26-6.17,3.82-8.52,2.56-2.35,5.63-3.51,9.22-3.51s7.03.95,10.49,2.85"/>
      <path class="st0" d="M73.73,89.08c-14.94,0-27.09-12.15-27.09-27.09s12.15-27.09,27.09-27.09,27.09,12.15,27.09,27.09-12.15,27.09-27.09,27.09ZM73.73,37.87c-13.3,0-24.12,10.82-24.12,24.12s10.82,24.12,24.12,24.12,24.12-10.82,24.12-24.12-10.82-24.12-24.12-24.12Z"/>
      <path class="st0" d="M51.71,113.31c-14.94,0-27.09-12.15-27.09-27.09s12.15-27.09,27.09-27.09,27.09,12.15,27.09,27.09-12.15,27.09-27.09,27.09ZM51.71,62.1c-13.3,0-24.12,10.82-24.12,24.12s10.82,24.11,24.12,24.11,24.12-10.82,24.12-24.11-10.82-24.12-24.12-24.12Z"/>
      <path class="st0" d="M73.73,140.28c-14.94,0-27.09-12.15-27.09-27.09s12.15-27.09,27.09-27.09,27.09,12.15,27.09,27.09-12.15,27.09-27.09,27.09ZM73.73,89.08c-13.3,0-24.12,10.82-24.12,24.11s10.82,24.12,24.12,24.12,24.12-10.82,24.12-24.12-10.82-24.11-24.12-24.11Z"/>
    </g>
  </g>
</svg>