<?xml version="1.0" encoding="UTF-8"?>
<svg id="Capa_1" xmlns="http://www.w3.org/2000/svg" version="1.1" viewBox="0 0 536.17 120.14">
  <!-- Generator: Adobe Illustrator 29.8.1, SVG Export Plug-In . SVG Version: 2.1.1 Build 2)  -->
  <defs>
    <style>
      .st0 {
        fill: #fff;
      }
    </style>
  </defs>
  <g>
    <polygon class="st0" points="15.02 17.08 38.02 17.08 38.02 83.03 65.02 83.03 65.02 104.01 15.02 104.01 15.02 17.08"/>
    <path class="st0" d="M525.02,104.01h-24.5l-20.5-26.98v26.98h-23V17.08h42.5c.46,0,7.4,2.89,8.54,3.46,21.73,10.87,19.88,45.34-2.01,54.98l18.98,28.49ZM480.02,58.05c27.81,5.31,26.49-25.67,0-20.98v20.98Z"/>
    <path class="st0" d="M368.02,104.01l31.87-86.54,19.68-.46,33.45,87h-23.5l-4.38-11.39-28.97-.45-4.65,11.84h-23.5ZM403.02,73.04h14l-7.49-18.99-6.51,18.99Z"/>
    <path class="st0" d="M92.02,17.08v60.45c0,3.6,2.68,7.53,11.46,7.53,10.37,0,11.54-5.34,11.54-8.53V17.08h22v63.45c0,22.46-34.48,29.85-51.32,21.3-5.45-2.77-15.68-8.34-15.68-20.3V17.08h22Z"/>
    <polygon class="st0" points="168.52 17.08 182.53 39.07 197.52 17.08 222.02 17.08 196.04 59.55 222.02 104.01 197.52 104.01 182.53 82.02 168.52 104.01 144.02 104.01 169.71 59.55 144.02 17.08 168.52 17.08"/>
    <polygon class="st0" points="339.02 17.08 339.02 83.03 366.02 83.03 366.02 104.01 317.02 104.01 317.02 17.08 339.02 17.08"/>
    <path class="st0" d="M480.02,58.05v-20.98c26.49-4.68,27.81,26.29,0,20.98Z"/>
    <polygon class="st0" points="403.02 73.04 409.53 54.05 417.02 73.04 403.02 73.04"/>
  </g>
  <g>
    <path class="st0" d="M310.98,58.12c.05,1.17.04,2.51,0,3.68-.09,2.45-.46,6.14-1.14,8.5-.31,1.07-.94,1.05-1.88.8-3.46-.89-7.31-2.43-10.76-3.56-2.29-.75-4.73-1.4-6.99-2.22-.83-.3-1.63-.5-1.65-1.56-.02-.78.29-1.86.33-2.72.08-1.62-.17-2.8-.31-4.34-.13-1.41.66-1.63,1.79-2.03,5.92-2.1,12.05-3.7,17.97-5.81.86-.2,1.24.15,1.49.92.68,2.12,1.07,6.09,1.16,8.32Z"/>
    <path class="st0" d="M239.08,26.04c.07-.02.14-.03.21-.02.3.04.98,1.02,1.2,1.29,3.77,4.89,7.15,10.12,10.92,15.01,1.41,1.58-.18,2.4-1.15,3.55-.79.93-1.5,1.94-2.13,2.99-.39.64-.8,1.96-1.58,2.1-.5.09-1.61-.34-2.15-.51-5.87-1.79-11.63-3.94-17.51-5.7-.74-.27-.88-.74-.66-1.47.3-1,1.12-2.54,1.62-3.5,2.33-4.49,5.74-8.97,9.49-12.37.26-.24,1.51-1.32,1.74-1.38Z"/>
    <path class="st0" d="M245.64,69.27c1.83-.27,1.84.89,2.57,2.12.69,1.16,1.5,2.21,2.37,3.23.29.34,1.65,1.59,1.62,1.95-.02.21-.92,1.4-1.12,1.68-3.62,5.11-7.44,10.09-11.03,15.22-.89,1.03-1.66.18-2.4-.48-3.82-3.38-7.34-8.02-9.73-12.53-.4-.76-1.65-3.09-1.72-3.8-.1-.97.45-1.19,1.24-1.48,2.63-.98,5.58-1.74,8.27-2.62,3.31-1.08,6.62-2.19,9.92-3.28Z"/>
    <path class="st0" d="M287.43,69.19c.18-.03.36-.03.54-.02l19.3,6.24c.45.24.68.61.56,1.13-.18.81-1.18,2.7-1.6,3.52-2.27,4.44-6.39,10.13-10.29,13.25-.7.56-1.25.93-2,.16l-11.35-15.62c-1.41-1.69.07-2.4,1.07-3.55.68-.79,1.32-1.65,1.86-2.54.45-.74,1.04-2.42,1.92-2.57Z"/>
    <path class="st0" d="M224.99,48.86c.39-.06.83.09,1.2.2,2.73.79,5.56,1.88,8.28,2.76,3.03.98,6.25,1.86,9.23,2.94,1.12.41,1.74.59,1.64,1.96-.11,1.47-.4,2.69-.32,4.24.04.83.28,1.66.32,2.48.08,1.33-.43,1.49-1.54,1.91-3.01,1.11-6.33,2-9.41,3-2.68.87-5.61,2.05-8.28,2.76-1.49.4-1.78.07-2.1-1.3-1.13-4.75-1.34-10.24-.75-15.08.17-1.43.43-3.43.81-4.79.15-.52.31-.99.92-1.09Z"/>
    <path class="st0" d="M256.05,79.43c.93-.16,1.72.53,2.53.87,1.11.47,2.23.82,3.4,1.08.91.21,2.37.11,2.72,1.13.24,6.72.03,13.49.1,20.23-.14,1.6-1.4,1.27-2.59,1.15-5.66-.57-12.7-2.87-17.55-5.82-1.34-.81-1.68-1.19-.73-2.6,1.63-2.43,3.61-4.84,5.34-7.23s3.49-5.02,5.31-7.41c.37-.48.85-1.29,1.49-1.4Z"/>
    <path class="st0" d="M294.71,26.12c.39-.04.94.42,1.22.66,5.19,4.42,9.24,10.53,11.89,16.77.17,1.23-1.11,1.23-1.95,1.5-5.93,1.95-11.84,4.01-17.83,5.71-1.52.02-2.45-2.32-3.22-3.42-.25-.36-.55-.77-.82-1.1-.51-.63-2.06-1.92-2.08-2.65,0-.19.06-.36.1-.54,4.04-5.59,8.05-11.27,12.23-16.75.11-.07.33-.18.46-.19Z"/>
    <path class="st0" d="M269.74,16.12c.39-.09,1.15.02,1.58.06,6.12.56,11.17,2.4,16.58,5.11,1,.5,2.95.96,2.63,2.5-.16.77-1.72,2.43-2.27,3.17-3.32,4.47-6.48,9.09-9.87,13.51-1,.69-2.1-.28-3.06-.69-1.75-.75-3.54-1.15-5.42-1.47-.32-.14-.55-.36-.67-.69l-.06-20.68c0-.34.18-.74.54-.82Z"/>
    <path class="st0" d="M277.34,79.35c.52-.11.99-.03,1.3.42l11.72,16.13c.54.91.34,1.28-.49,1.82-4.57,2.99-13.11,5.97-18.56,6.18-1.4.05-2.01-.36-2.12-1.8l.04-19.42c.27-1.18,1.52-1.02,2.45-1.23,1.17-.27,2.33-.59,3.44-1.04.57-.23,1.76-.97,2.22-1.06Z"/>
    <path class="st0" d="M262.94,16.12c.66-.04,1.58-.18,1.76.67.13.61.01,1.1.01,1.66,0,5.63-.05,11.27,0,16.9,0,.37.1.71.09,1.12-.08,2.18-1.27,1.86-2.89,2.23-1.14.26-2.26.6-3.33,1.07-.8.35-2.1,1.36-2.95.81-4.19-5.55-8.3-11.23-12.29-16.93-.29-1.01,1.61-1.81,2.35-2.22,4.84-2.67,11.71-4.96,17.25-5.33Z"/>
  </g>
</svg>