<?xml version="1.0" encoding="UTF-8"?>
<svg id="Capa_1" xmlns="http://www.w3.org/2000/svg" version="1.1" viewBox="0 0 615.83 399.32">
  <!-- Generator: Adobe Illustrator 29.8.1, SVG Export Plug-In . SVG Version: 2.1.1 Build 2)  -->
  <defs>
    <style>
      .st0 {
        fill: #fff;
      }
    </style>
  </defs>
  <path class="st0" d="M147.31,68.27c5.06-2.1,10.01-4.02,15.42-5.08,1.06-.21,6.25-1.17,6.83-.9l25.89,34.34,9.77-42.39c6.75-2.33,13.65-3.47,20.81-3.46l14.96,75.25c-.08.3-3.5,1.3-4.13,1.47-4.27,1.14-7.75,1.32-12.11,1.48-.6.02-1.63.58-2.12,0l-9.37-42.67c-.35.24-.32.63-.43.98-.97,3.1-1.65,6.82-2.39,10.03-1.47,6.41-2.76,12.87-4.13,19.31-.36.61-5.7,2.19-6.71,2.43-2.66.64-5.46,1.12-8.2.96l-17.62-24.56,9.86,42.28c-5.27,2.73-11.12,4.48-17.09,4.8l-19.24-74.04v-.23Z"/>
  <path class="st0" d="M308.98,44.12l8.75.98.35.35c8.46,25.55,16.04,51.41,22.06,77.67-6.65.38-13.41.61-19.92-1.05l-3.88-14.9c-7.27,1.86-14.9,1.94-22.21.26l-3.77,14.52c-6.06,1.85-12.6,1.61-18.86.93,5.99-26.23,13.81-52.02,22.53-77.43.25-.46,1-.52,1.51-.6,2.23-.36,4.92-.61,7.12-.73h6.33ZM312.73,92.88l-7.5-27.19-7.28,27.05c4.79,1.54,9.94,1.36,14.78.14Z"/>
  <path class="st0" d="M238.22,355.2h-2.58c-8.66-1.8-7.38-12.68-3.85-18.5,4.94-8.13,19.07-9.6,18.14,3.14-.52,7.13-5.23,12.75-11.71,15.36Z"/>
  <path class="st0" d="M178.48,215.25l.46.24c.59-5.46,3.14-10.8,7.8-13.88s11.67-3.47,16.96-4.36c40.5-6.84,82.12-10.65,123.21-11.52,29.11-.61,56.15,1.71,85.04,4.44,6.47.61,13.27.84,19.68,1.64,2.96.37,6.75,1,8.68,3.51,2.51,3.28,0,7.67-.86,11.11-3.2,12.93.82,26.04,1.9,38.95.44,5.23-1.09,10.65,4.53,13.52,7.07,3.6,15.63,2.39,20.35,10.82,8.23,14.71-8.67,32.54-4.56,48.16.88,3.34,2.69,4.54,1.35,8.25-2.7,7.49-9.13,5.11-15.23,5.39-8.56.39-16.13,2.88-23.84-2.61-5.89-4.19-6.09-11.3-15.05-10.51-6.8.6-8.8,6.26-13.62,9.58-5.19,3.57-9.9,3.53-15.9,3.78-32.14,1.37-64.43-1.58-96.52.48-5.99.38-12.18,1.53-18.05,1.87-1.61.09-3.37.24-4.44-1.18-.9-1.2-1.75-4.54-2.67-6.24-5.6-10.37-12.78-9.44-21.81-3.93-4.59,2.8-5.83,3.73-11.31,5.09-12.46,3.1-35.29,6.21-47.84,4.82-3.48-.39-7.62-1.75-6.88-6.13.25-1.48,2.71-4.67,3.58-6.26,7.94-14.6,6.09-32.19,4.08-48.16-.57-4.51-.9-9-.93-13.6-.02-2.29.19-4.52.24-6.81.14-.76.9-.78,1.51-.83,3.91-.35,8.41.19,12.43,0,29.67-1.33,59.69-6.68,89.51-6.79,16.8.37,34.82-3.46,51.5-1.39,11,1.36,14.42,5.5,22.29,11.92,15.83,12.91,36.74,8.71,55.52,7.51,4.45-.28,7.65,1.02,10.78-3.04,3.95-5.14-1.02-7.68-5.63-8.21-8.01-.92-16.64-.93-24.83-1.64-4.12-.36-11.2.79-10.17-5.73.6-3.83,6.06-2.08,8.53-2,1.2.04,2.25-.25,3.28-.25,6.86-.03,22.56,1,28.08-2.38,5.18-3.18,2.51-8-2.79-8.83s-12.46.27-18.24-.03c-3.24-.17-12.03-1.19-14.63-2.71-3.97-2.31-2.67-8.77,1.98-9.24,6.84-.69,15.48.37,22.48.48,3.84.06,14.25.58,17.3-.53,5.33-1.95,3.98-10.61-1.93-10.86-23.45-2.11-49.2-8.46-69.9,6.26-5.67,4.03-7.75,8.82-15.51,8.88-47.73.37-94.58,1.35-142.21,4.44-5.4.35-10.97,1.42-16.4.93-3.04-.27-2.62-1.64-2.46-4.33s.83-5.41,1.17-8.09ZM225.05,260.09c-13.98.98-39.47,12.62-40.73,28.64-1.15,14.59,7.66,23.69,21.04,27.25,17.2,4.57,35.69,2.6,50.16-8.05,6.23-4.59,9.85-9.98,18.42-10.64,11.12-.85,24.56.03,35.83.24,39.78.73,79.64,3.57,119.26,7.26,9.77.91,25.92,5.28,27.27-9.29,1.11-11.98-7.56-14.01-17.43-14.62-42.93-2.67-85.8-5.06-128.87-4.47-7.22.1-14.56.6-21.77.72-11.16.2-20.72-.14-29.52-7.75-1.93-1.67-3.43-3.78-5.58-5.2-7.03-4.67-19.86-4.67-28.1-4.1Z"/>
  <path class="st0" d="M385.83,91.24l13.16-19.76,11.44-15.98c7.18-.4,14.15,1.8,20.82,4.12l-13.81,75.68c-6.3-.19-12.52-1.58-18.28-4.12l7.04-43.45-6.84,9.68-10.61,16.11c-.68.56-5.77.12-7-.03-1.84-.22-4.24-.7-6-1.26-.74-.24-1.8-.41-2.16-1.12l-5.35-21.84-2.09-7.17-6.35,42.87c-5.86.59-11.88.05-17.45-1.84l9.73-76.09c7.55-.44,15.17.26,22.39,2.48l11.37,41.73Z"/>
  <path class="st0" d="M466.65,69.21l-22.52,73.34c-6.52-.43-12.79-2.45-18.68-5.15l19.3-74.05c.17-.28.4-.23.67-.22,1.3.06,3.29.52,4.65.77,5.84,1.05,11.16,3.04,16.59,5.32Z"/>
  <path class="st0" d="M262.35,46.7l6.06,76.29c-.1.38-2.63.86-3.21,1-5.28,1.22-10.41,1.46-15.83,1.21l-9.46-76.05c.07-.38,4.55-1.25,5.32-1.4,5.78-1.11,11.23-1.21,17.11-1.05Z"/>
  <path class="st0" d="M170.98,157.58l-.24-1.64c27.5-5.65,55.32-10.03,83.29-12.89,63.64-6.5,128.59-6.14,191.6,5.44.85.32.44,1.97-.64,1.6-53.52-9.61-108.96-9.6-163.08-5.86-37.19,2.57-74.22,7.24-110.94,13.36Z"/>
  <path class="st0" d="M406.87,330.4c7.8-.2,8.11,9.34,6.08,14.77-2.09,5.58-9.05,11.45-15.24,9.26-6.97-2.46-5.07-13.83-1.44-18.45,2.31-2.94,6.82-5.49,10.6-5.59Z"/>
  <path class="st0" d="M333.11,150.32l-5.15,9.51,4.57,9.71,1.4-4.21c1.53,1.29,8.65,2.63,7.52-.96-.39-1.23-4.13-2.23-5.37-3.08-3.62-2.48-3.2-8.35.78-10.16,3.38-1.53,6.98-.51,10.28.61.38.44-1.09,4.14-1.49,4.17-1.38-1.14-7.49-2.27-6.59.74.51,1.68,6.3,2.33,7.65,5.73,1.19,3-.12,6.57-3.05,7.99-3.09,1.5-7.9.95-10.91-.59-.09,1.29-2.09,1-3.05.95-1.15-.06-2.33-.08-2.96-1.02-1.8-2.65-2.78-6.55-4.54-9.31l-.06-.53,5.11-9.67,5.86.12Z"/>
  <path class="st0" d="M230.91,155.77c9.09-.88,13.54,4.12,12.44,13.15-.82,6.73-9.42,7.95-14.85,8.12l-.54-.4-3.25-19.19c.09-.59,5.33-1.59,6.2-1.67ZM230.73,160.4l1.74,11.49c.35.53,2.69-.29,3.23-.54,2.88-1.38,2.62-5.53,1.63-8.06-1.17-2.99-3.63-3.57-6.6-2.88Z"/>
  <path class="st0" d="M411.13,170.24l2.21-10.09c.43-.61,4.62.31,4.79.86l-3.98,19.53c-1.46.15-2.9-.3-4.23-.84l-4.2-11.33c-.62-.06-.38,0-.46.35-.73,3.07-.98,6.42-1.75,9.51-.49.7-3.74-.16-4.55-.51l3.25-19.89c.29-.3,4.14.45,4.56.94l4.34,11.48Z"/>
  <path class="st0" d="M195.77,162.57c11.14-.61,14.82,20.21.87,21.04-11.1.66-15.06-20.27-.87-21.04ZM195.05,167.25c-4.47.7-2.8,8.5-.64,10.84,1.91,2.07,5.31.83,5.62-1.87.35-3.04-.82-9.63-4.98-8.97Z"/>
  <path class="st0" d="M214.74,158.59c10.23-.96,13.52,14.92,6.45,19.35-14.16,8.88-22.47-17.84-6.45-19.35ZM214.02,163.26c-3.55.74-2.33,7.06-1.29,9.39.9,2.01,2.86,3.17,4.95,2.01s1.82-4.12,1.49-6.11c-.49-2.89-1.58-6.03-5.15-5.29Z"/>
  <path class="st0" d="M266.33,172.12l-1.64-20.16c4.06-.66,11.31-2.06,13.78,2.27,1.09,1.92,1.23,4.25.25,6.25-.38.79-1.72,1.74-1.58,2.32l4.89,8.14c-1.42.14-5.04,1.12-5.97,0l-4.57-8.55c3.18-1.67,3.51-7.72-1.14-6.64l1.15,15.75c-.04.17-1.61.62-1.77.62h-3.4Z"/>
  <path class="st0" d="M297.14,150.08c.33.21.32.47.36.81.24,2.06-.06,4.88-.02,7.05.08,4.81,1.35,11.1-4.9,12.66-6.86,1.71-10.83-1.52-11.02-8.45l-.49-11.23c.06-.37,4.97-.62,5.3-.15l.63,12.73c-.19,3.25,4.69,4.09,5.27,1.18.49-2.45-.12-6.52-.19-9.08-.05-1.71.06-3.43,0-5.14.03-.1.77-.38.83-.38h4.22Z"/>
  <path class="st0" d="M400.35,157.35c.11.81-.08,4.17-.85,4.43l-6.77-1.09c-.45.08-.5,2.44-.57,2.98l5.4.81c.54.36-.37,4.29-.62,4.37l-5.5-.62-.69,3.65,7.24,1.2-.79,4.21-12.08-1.77,2.83-20.05,12.41,1.87Z"/>
  <path class="st0" d="M367.78,152.89c-.05,1.45.23,3-.46,4.35l-7.06-.5-.22,2.95c.94.06,5.34.1,5.59.85.22.63-.2,3.84-.82,4.05l-5.2-.41-.5,3.72,7.27.7c.11,1.55-.08,2.95-.49,4.43l-12.4-1.15,1.74-19.94,12.55.95Z"/>
  <path class="st0" d="M373.84,153.63l2.14,13.56,5.72-12.45.47-.19,4.82.69-9.3,19.23c-.7.17-4.9-.31-5.25-.87l-4.2-20.71,5.59.74Z"/>
  <path class="st0" d="M448.35,168.63c.36.61-1.58,3.14-1.98,3.73-.76.11-3.49-2.8-5.96-2.02-3.65,1.15,3.21,5.04,4,5.86,3.13,3.25,1.27,8.83-2.95,9.96-3.78,1.02-7.86-.73-11.08-2.6-.26-.44,1.83-4.11,2.19-4.14,1.38,1.43,8.38,4.28,7.61.31-.21-1.11-3.48-2.77-4.46-3.75-2.64-2.65-2.42-6.81.59-9.03,3.57-2.63,8.74-.39,12.03,1.68Z"/>
  <path class="st0" d="M314.81,150.57l-1.17,4.18c-4.77-1.7-8.97-.38-8.9,5.29.08,6,4.22,6.64,9.13,5.3l1.2,4.2c-9.36,3.11-16.88-1.39-15.63-11.77.9-7.52,9.11-9.8,15.38-7.19Z"/>
  <path class="st0" d="M184.54,165.57c.23.85,1.31,3.54.86,4.21l-6.93,2,.85,2.93,5.7-1.17.94,4.05-5.35,1.58,1.84,7.69c-1.64.63-3.32,1.38-5.13,1.19l-5.16-19.44,12.39-3.04Z"/>
  <path class="st0" d="M434.53,164.4l-.93,4.42-4.9-1.16-3.54,15.21c-.44.37-4.39-.56-4.91-1.03-.58-.52,3.09-13.33,3.07-15.2l-4.69-1.1c-.14-1.45.16-2.91.81-4.22l15.09,3.08Z"/>
  <path class="st0" d="M263.76,156.65l-4.92.47,1.62,15.32c-.2.66-4.35.98-5.11.82l-1.7-15.3-.31-.32-4.59.54c-.65-1.34-.89-2.9-.59-4.37l14.98-1.59c.75.26.61,3.62.62,4.42Z"/>
  <path class="st0" d="M321.04,149.85c.12.02.81.28.83.38l-.28,19.63-.35.35c-1.57.16-3.38.48-4.77-.32v-19.69l.35-.35c1.33.12,2.93-.17,4.22,0Z"/>
</svg>