<?xml version="1.0" encoding="UTF-8"?>
<svg id="Capa_1" xmlns="http://www.w3.org/2000/svg" version="1.1" viewBox="0 0 615.83 399.32">
  <!-- Generator: Adobe Illustrator 29.8.1, SVG Export Plug-In . SVG Version: 2.1.1 Build 2)  -->
  <path d="M447.25,88.45c1.7-.29,3.94-.29,5.37.7l22.09,21.53c.98,1.54-.69,3.27-2.16,3.58-.72.15-1.44-.06-2.02.06-28.75,6.02-50.79,24.97-56.78,54.34s6.62,59.33,32.45,74.33c2.8,1.63,9.8,3.85,10.51,7.14l.08,26.94c-.46,2.7-2.49,2.66-4.87,2.24s-6.87-2.33-9.19-3.28c-32.09-13.15-56.76-44.99-61.28-79.43-5.43-41.4,15.67-82.71,52.8-102.46,2.77-1.47,10.25-5.23,12.99-5.7Z"/>
  <path d="M510.6,88.44c3.11-.67,7.68,1.48,10.6,2.77,28.82,12.69,48.78,36.57,56.5,67.08,8.67,34.27.29,66.29-23.02,92.56-12.45,14.03-28.89,24.55-47.19,29.04l-2.16-1.5c-.81-4.78.24-9.99-.23-14.82-.2-2.05-1.28-3.9-1.07-6.24.98-10.95,12.17-14.61,19.75-20.23,13.66-10.14,22.88-25.03,24.93-42.05,4.12-34.28-10.06-62.56-42.56-76.32-5.62-2.38-10.7-2.93-16.3-4.47-1.17-.32-2.25-.73-2.93-1.77-.12-.4,1.14-2.6,1.54-3.09.75-.93,1.69-1.15,2.36-1.79,6.22-5.86,11.98-12.27,18.15-18.2.42-.32,1.18-.86,1.64-.96Z"/>
  <path d="M74.84,261.32c36.11-3.81,60.43,36.58,42.7,67.59-19.18,33.55-66.84,28.57-79.3-7.81-8.95-26.13,8.69-56.83,36.6-59.77ZM77.44,280.52c-27.82,2.93-29.14,46.3-2.16,51.31,22.8,4.23,35.39-22.56,24.08-40.68-4.47-7.17-13.59-11.5-21.92-10.62Z"/>
  <path d="M320.52,286.75c9.53-1.16,19.66,3.13,25.64,10.54,10.16,12.59,4.86,34.66,6.23,49.86-.36,1.96-1.74,4.12-3.89,4.41s-8.72.28-10.93,0c-.93-.12-3.05-.95-3.32-1.87-.56-1.93.06-7.79-.04-10.35-.02-.57-.52-1.12-.55-2.05-.24-7.9,1.03-18.55-.58-25.89-.59-2.67-1.79-5.19-4.07-6.83-1.82-1.3-2.89-1.18-4.94-1.3-.42-.02-.78-.37-1.03-.37s-.6.33-1.03.37c-.68.06-1.33-.08-2.02.06-1.84.4-4.58,2.76-5.45,4.41-.79,1.5-1.51,4.44-1.65,6.14-.87,10.65.68,22.47.03,33.25-.47,2.43-1.87,4.09-4.41,4.41-2.21.28-7.64.24-9.89,0-.76-.08-1.58-.77-2.54-.58l-.77-.78c-.18-.52-.51-.92-.59-1.49-.52-3.86.15-9.38.02-13.52-.02-.55-.53-.99-.54-1.54-.16-6.66.81-15.44-.07-21.73-.42-3.01-2.59-6.8-5.45-8.05-4.88-2.14-10.54-1.03-13.09,3.88-.79,1.52-1.51,4.43-1.65,6.14-.84,10.22,1.13,22.18.03,32.21-.05.44-.6,2.53-.77,2.86-.43.84-2.64,2.46-3.64,2.59-2.28.31-9.14.29-11.45,0-.82-.1-2.76-.84-3.12-1.55l-.78-3.37v-55.06c.29-2.36,2.49-4.64,4.95-4.43.56.05.98.51,1.55.56,8.74.74,17.32.56,25.97-.54,1.92-.24,6.86.84,8.74,1.66,2.41,1.05,4.84,3.74,7.36,4.07,3.42.44,6.6-2.68,9.6-3.92,2.08-.86,5.96-1.97,8.15-2.23Z"/>
  <path d="M476.84,259.22c2-.44,3.14.48,4.61.48.93,0,1.41-.5,2.07-.56,4.04-.39,6.81.7,7.55,4.93l-.08,84.56c-.66,3.07-5.44,3.28-8,2.94s-3.19-2.79-4.13-4.69l-1.05-.53c-3.34,1.51-6.92,3.16-10.48,4.08-18.92,4.92-37.74-5.29-41.21-25.07-2.98-17.04,8.62-35.87,26.75-37.65,3.79-.37,8.8-.51,12.49,0,1.47.2,3.57,1.34,5.18,1.6l2.1-1.04c1.3-3.04.58-6.4.74-9.64.15-3.05.15-4.2,0-7.25-.12-2.37-.31-6.64,0-8.85.22-1.6,1.97-2.96,3.46-3.29ZM455.56,304.92c-12.44,2.19-15.35,20.04-5.21,26.85,3.5,2.35,9.93,2.86,13.88,1.54,8.83-2.96,11.31-14.3,7.02-21.91-2.92-5.19-9.99-7.48-15.69-6.48Z"/>
  <path d="M419.34,324c-2.13,1.31-3.77.84-5.94,1.07-11.12,1.18-22.52-.04-33.75.53-1.58.08-2.36-.18-2.35,1.82.01,1.54,2.13,3.92,3.37,4.94,4.58,3.76,12.18,4.95,17.59,2.5.87-.39,1.82-1.28,2.92-1.76,3.71-1.62,8.8-1.74,12.66-.68,1.49.41,2.54.99,3.41,2.3.88,3.04-4.17,8.24-6.44,10.1-14.97,12.27-39.28,7.24-49.03-9.17-4.74-7.98-4.83-19.89-1.53-28.38,5.77-14.85,24.35-24,39.54-18.43,13.65,5,19,17.82,20.64,31.31l-1.11,3.85ZM401.16,313.11l.51-2.23c-3.28-7.83-12.14-10.02-19.36-5.96-1.73.98-4.63,4.02-4.97,5.96-.1.55,1,2.29,1.51,2.55l20.54.26,1.77-.57Z"/>
  <path d="M244.3,288.27c-.02.89.86,1.66,1.01,2.36.17.79.53,2.82.6,3.56.8,9.15.39,23.63-.54,32.7-.36,3.51-.37,5.67-1.79,9.11-9.05,21.92-51.03,20.85-57.33-2.96-.5-1.88-1.01-5.7-1.14-7.69-.72-11.33.59-23.4,0-34.81.95-3.91,5.06-3.07,8.07-3.35.56-.05.99-.5,1.54-.54,2.17-.16,4.09.14,6.18.59.93.67,2.02,1.76,2.33,2.87.14.52-.02,1.06.07,1.49,2.03,9.78-.42,22.97.5,33.24.45,5.01,3.7,10.47,9.1,11.15,4.6.58,10.51-.46,12.66-5.02.76-1.61,1.52-5.39,1.66-7.17.8-10.72-.63-22.43-.03-33.26.25-2.03,2.56-3.14,4.42-3.37,1.98-.25,7.39-.25,9.37,0,1.02.13,2.24.96,3.32,1.09Z"/>
  <path d="M152.75,287.27c7.13-.64,17.37,2.73,22,8.47,1.96,2.43,2.84,4.27.26,6.52-.72.63-2.12,1.77-2.88,2.32-4.84,3.46-5.68,1.43-10.22-.16-1.64-.57-4.48-1.59-6.12-1.67-.76-.04-3.33.4-4.1.61-1.73.47-3.28,2.49-2.87,4.29.43,1.9,2.94,2.96,4.6,3.71,7.69,3.47,22.61,6.51,25.4,15.62.16.51-.02,1.05.07,1.49,2.18,10.51-6.5,18.3-15.56,21.82-10.8,4.19-25.43-.81-33.77-8.33-1.27-1.15-2.07-2.71-1.32-4.42,2.57-2.12,5.25-6.47,8.84-6.76,2.32-.19,6.24,2.99,8.55,3.94,4.52,1.86,14.4,2.91,14-4.13-1.51-2.12-3.88-3.12-6.17-4.21-10.56-5.04-28.44-9.47-22.11-25.18,3.45-8.55,12.74-13.14,21.4-13.91Z"/>
  <path d="M519.96,25.64c.98-.17,2-.1,2.99-.03,1.7.96,1.56,2.75,1.86,4.37,2.1,11.27-1.02,25.78-6.82,35.75-5.49,9.43-16.8,19.34-26.92,23.45-1.16.47-3.83,1.46-4.9,1.22-3.49-.79-2.73-6.43-2.9-9.04-.19-2.83-.29-6.82-.02-9.86,1.32-14.98,10.34-29.25,22.35-37.88,2.8-2.01,11.33-7.44,14.36-7.97Z"/>
  <path d="M441.52,39.62c1.12-.29,5.83,1.92,7.14,2.62,15.57,8.31,26.23,25.32,24.23,43.28-.09.8-.97,3.79-1.54,4.17-1.65,1.09-4.02.24-5.76-.52-16.16-7.11-25.89-22.77-27-39.98-.17-2.71-.23-8.76,2.93-9.57Z"/>
  <path d="M516.84,163.2c12.18-2.1,21.7,10.4,15.17,21.39-3.16,5.33-10.17,8.5-16.21,6.48-8.25-2.76-13.02-12.48-8.58-20.35,1.76-3.12,6.01-6.9,9.62-7.52Z"/>
  <path d="M440.49,163.2c7.45-1.29,14.36,3.08,16.72,10.13,3.17,9.47-6.54,19.93-16.2,18.27-2.61-.45-7.27-3.54-8.9-5.64-3.19-4.09-4.07-10.46-1.57-15.05,1.74-3.19,6.29-7.07,9.95-7.7Z"/>
</svg>