<?xml version="1.0" encoding="UTF-8"?>
<svg id="Capa_1" xmlns="http://www.w3.org/2000/svg" version="1.1" viewBox="0 0 417.7 273.2">
  <!-- Generator: Adobe Illustrator 29.8.1, SVG Export Plug-In . SVG Version: 2.1.1 Build 2)  -->
  <defs>
    <style>
      .st0 {
        fill: #fff;
      }
    </style>
  </defs>
  <g>
    <path class="st0" d="M250.1,237.6c-2.7,0-5.1-.1-7.4-.6-2.3-.4-4.3-1-6-1.7v-8.5c1.9.9,3.8,1.4,6,1.9,2.3.4,4.3.7,6.3.7,2.4,0,4.3-.3,5.6-.7s1.9-1.4,1.9-3c0-1-.3-1.9-.9-2.4-.6-.6-1.6-1.1-2.8-1.7-1.3-.4-3.1-1-5.6-1.7-2.7-.9-4.8-1.7-6.6-2.7-1.6-1-2.7-2.3-3.4-3.7s-1-3.3-1-5.3c0-3.8,1.4-6.7,4.1-8.7,2.7-2,6.7-3,12.1-3,2.3,0,4.6.1,6.7.6,2.1.3,4,.7,5.3,1.1v8.5c-1.7-.7-3.6-1.3-5.4-1.6-1.9-.3-3.6-.4-5.3-.4-2.3,0-4,.1-5.4.6-1.4.4-2.1,1.4-2.1,2.8,0,.9.3,1.6.7,2.1.4.6,1.4,1,2.6,1.4,1.3.4,2.8.9,5,1.4,3.3.9,5.7,1.9,7.5,3.1,1.7,1.3,3,2.6,3.6,4.3.7,1.6,1,3.4,1,5.4,0,3.6-1.4,6.4-4.1,8.5-2.5,2.2-6.7,3.3-12.4,3.3"/>
    <rect class="st0" x="271.9" y="197" width="10" height="39.9"/>
    <polygon class="st0" points="288.2 236.9 288.2 197 298 197 308.8 219.1 319.6 197 329.5 197 329.5 236.9 319.5 236.9 319.5 214 311.7 230.1 306.1 230.1 298.1 214 298.1 236.9 288.2 236.9"/>
    <polygon class="st0" points="335.9 236.9 335.9 197 365.3 197 365.3 204.7 345.8 204.7 345.8 213.1 363.1 213.1 363.1 220.9 345.8 220.9 345.8 229.3 365.3 229.3 365.3 237 335.9 237 335.9 236.9"/>
    <polygon class="st0" points="370 236.9 370 197 380 197 380 229.2 398.8 229.2 398.8 236.9 370 236.9"/>
    <path class="st0" d="M45.4,236.8c-6.7,0-11.8-1.7-15.4-5.1-3.6-3.4-5.3-8.3-5.3-14.4,0-6.6,1.9-11.5,5.4-15.2,3.6-3.6,8.8-5.4,15.8-5.4,2.4,0,4.6.1,6.4.4,1.9.3,3.7.7,5.4,1.3v8.4c-1.7-.7-3.6-1.1-5.4-1.3-1.9-.3-3.8-.4-5.8-.4-4.1,0-7.3,1-9.1,3-1.9,2-2.8,5.1-2.8,9.3,0,3.8.9,6.7,2.7,8.5,1.9,1.9,4.6,2.7,8,2.7,2.3,0,4.6-.3,6.6-1v-7.4h-8.4v-6h16.5v19.2c-1.4.9-3.3,1.7-5.7,2.4-2.4.7-5.4,1-8.9,1"/>
    <path class="st0" d="M65,236.2v-38.9h19.5c4.6,0,8,1.1,10.1,3.6,2.1,2.4,3.3,5.7,3.3,9.7,0,2.6-.7,5-2,6.8-1.3,2-3.1,3.4-5.4,4.4.6.4,1,1,1.4,1.4.3.6.7,1.3,1.1,2.3l4.6,10.5h-10.1l-4.4-10c-.4-.9-.9-1.4-1.4-1.9-.6-.4-1.4-.6-2.4-.6h-4.4v12.5h-9.9v.2ZM74.8,216.4h7.2c1.9,0,3.4-.4,4.4-1.4s1.6-2.4,1.6-4.3c0-3.8-1.9-5.8-5.6-5.8h-7.5v11.5h-.1Z"/>
    <path class="st0" d="M120.6,236.8c-3.6,0-6.8-.6-9.4-1.7-2.6-1.1-4.7-2.8-6.3-5.1-1.4-2.3-2.1-5.1-2.1-8.4v-24.1h9.7v23.2c0,2.7.7,4.7,2.1,6s3.4,2,6,2,4.7-.7,6-2c1.4-1.3,2.1-3.3,2.1-6v-23.2h9.7v24.1c0,3.3-.7,6.1-2.1,8.4s-3.6,4-6.3,5.1c-2.7,1.1-5.9,1.7-9.4,1.7"/>
    <path class="st0" d="M144.2,236.2v-38.9h19.2c3.1,0,5.7.6,7.7,1.9,2,1.3,3.6,2.9,4.6,5s1.4,4.4,1.4,7.1-.6,5-1.7,7.1c-1.1,2-2.7,3.7-4.8,4.8s-4.6,1.7-7.4,1.7h-9.2v11.4h-9.8v-.1ZM154,217.2h7c2,0,3.6-.6,4.6-1.7,1-1.1,1.6-2.6,1.6-4.4,0-2-.4-3.6-1.4-4.7-1-1.1-2.4-1.7-4.4-1.7h-7.4v12.5Z"/>
    <path class="st0" d="M199,236.8c-6.3,0-11.1-1.6-14.4-4.8-3.3-3.3-5-8.3-5-15.1,0-7.3,1.7-12.4,5-15.5s8.1-4.7,14.4-4.7,11.1,1.6,14.4,4.7c3.3,3.1,5,8.3,5,15.5,0,6.8-1.7,11.8-5,15.1-3.1,3.2-8,4.8-14.4,4.8M199,228.5c3.3,0,5.7-1,7.1-2.8,1.6-1.9,2.3-4.8,2.3-8.8,0-4.4-.7-7.4-2.3-9.3-1.6-1.9-3.8-2.7-7.1-2.7s-5.7.9-7.3,2.7c-1.6,1.9-2.3,4.8-2.3,9.3,0,4,.7,7,2.3,8.8s4,2.8,7.3,2.8"/>
  </g>
  <g>
    <polygon class="st0" points="285.25 29.65 184.03 91.6 160.41 106.08 214.3 106.08 138.45 167.25 238.39 106.08 262.19 91.6 208.12 91.6 285.25 29.65"/>
    <g>
      <path class="st0" d="M175.06,144.91l4.36-2.66c-14.09-9.97-23.31-26.38-23.31-44.91,0-30.33,24.68-55.01,55.01-55.01,15.03,0,28.66,6.06,38.6,15.87l3.7-2.97c-10.81-10.86-25.77-17.58-42.3-17.58-32.97,0-59.69,26.72-59.69,59.69,0,19.42,9.28,36.67,23.64,47.57Z"/>
      <path class="st0" d="M251.87,60.43c8.85,9.77,14.25,22.71,14.25,36.9,0,30.33-24.68,55.01-55.01,55.01-10.46,0-20.24-2.93-28.57-8.02l-4.81,2.5c9.53,6.44,21.02,10.2,33.39,10.2,32.97,0,59.69-26.72,59.69-59.69,0-15.43-5.86-29.5-15.47-40.1l-3.46,3.19Z"/>
    </g>
  </g>
</svg>