<?xml version="1.0" encoding="UTF-8"?>
<svg id="Capa_1" xmlns="http://www.w3.org/2000/svg" version="1.1" viewBox="0 0 615.83 399.32">
  <!-- Generator: Adobe Illustrator 29.8.1, SVG Export Plug-In . SVG Version: 2.1.1 Build 2)  -->
  <defs>
    <style>
      .st0 {
        fill: #fff;
      }
    </style>
  </defs>
  <path class="st0" d="M553.84,164.24v80.73c0,11.4-9.39,23.06-20.52,25.48-74.95,15.07-150.79,22.71-225.41,22.71s-150.46-7.64-225.4-22.71c-11.13-2.42-20.52-14.08-20.52-25.48v-90.62c0-11.4,9.39-23.07,20.52-25.48,74.94-15.07,150.78-22.71,225.4-22.71h0c74.62,0,150.46,7.64,225.4,22.71,5.99,1.3,11.47,5.3,15.26,10.48,4.17,1.13,7.58,4.08,9.31,7.96-2.94-11.06-12.38-20.93-23.55-23.33-75.64-15.21-151.03-22.81-226.43-22.81-75.4,0-150.79,7.6-226.43,22.81-13.5,2.91-24.5,16.74-24.5,30.38v90.62c0,13.64,11,27.47,24.5,30.38,75.64,15.21,151.02,22.81,226.43,22.81s150.8-7.61,226.43-22.81c13.5-2.91,24.5-16.74,24.5-30.38,0-29.64,0-59.28,0-88.92-.68,3.29-2.49,6.16-5,8.19Z"/>
  <g>
    <path class="st0" d="M537.1,249.68c-2.92-1.46-11.3-3.28-31.71,1.09-20.41,4.37-99.87,17.5-197.47,17.5s-156.08-12.03-185.61-18.22c-28.96-6.08-40.03-2.34-44.22-.82,1.94,1.85,4.21,3.22,6.49,3.71,74.27,14.93,149.41,22.51,223.34,22.51s149.07-7.57,223.13-22.46c2.16-.47,4.27-1.66,6.12-3.27-.02,0-.05-.02-.07-.03Z"/>
    <path class="st0" d="M307.91,263.27c75.13,0,140.61-7.92,175.67-13.6,11.09-2.02,21.09-4.19,29.45-6.51-52.88-8.94-131.44,1.71-163.39,12.21-7.39-10.12,80.57-21.23,107.75-19.32-17.17-4.77-96.28-11.37-124.41,9.13-7.63-3.34-11.96-6.68-11.96-6.68,15.74-6.68,26.86-12.15,70.55-10.79-32.56-5.07-44.8-9.33-93.05,7.31-21.46-6.2-69.07-12.08-120.47-3.7,26.23,4.29,75.45,10.28,87.48,21.21-19.91-5.07-94.29-26.81-157.96-10.02,4.61.55,9.82,1.4,15.74,2.64,28.02,5.88,86.33,18.12,184.58,18.12ZM201.4,231.68c18.12-.95,76.28.62,114.43,22.08-8.58.48-17.17,0-21.46,2.38-11.92-8.58-61.02-22.08-92.97-24.46ZM260.81,258.72c-17.13-.73-23.97-1.01-31.99-1.73-11.92-8.58-69.83-13.38-101.78-15.76,18.12-.95,95.62-3.96,133.77,17.5Z"/>
    <path class="st0" d="M329.37,220.47c-3.13-9.99-16.59-19.86-33.38-16.02-19.97,4.56-22.41,20.5-22.41,20.5,5.99,1.39,24.84,4.77,24.84,4.77,11.92-5.72,21.54-8.17,30.95-9.25Z"/>
  </g>
  <g>
    <path class="st0" d="M554.28,153.08c0,5.21-4.09,9.31-9.42,9.31s-9.48-4.09-9.48-9.31,4.2-9.2,9.48-9.2,9.42,4.09,9.42,9.2ZM537.74,153.08c0,4.09,3.03,7.34,7.18,7.34s7.01-3.25,7.01-7.29-2.97-7.4-7.06-7.4-7.12,3.31-7.12,7.35ZM543.4,157.9h-2.13v-9.2c.84-.17,2.02-.28,3.53-.28,1.74,0,2.52.28,3.19.67.5.39.9,1.12.9,2.02,0,1.01-.78,1.79-1.91,2.13v.11c.9.34,1.4,1.01,1.68,2.24.28,1.4.45,1.96.67,2.3h-2.3c-.28-.34-.45-1.18-.73-2.24-.17-1.01-.73-1.46-1.91-1.46h-1.01v3.7ZM543.46,152.69h1.01c1.18,0,2.13-.39,2.13-1.35,0-.84-.62-1.4-1.96-1.4-.56,0-.95.06-1.18.11v2.63Z"/>
    <g>
      <path class="st0" d="M147.86,145.26c.51-1.25,1.18-2.39,2-3.42.82-1.03,1.75-1.94,2.77-2.72,1.02-.78,2.13-1.41,3.33-1.9,1.2-.49,2.45-.81,3.74-.97,5-.61,7.5-.91,12.51-1.47-12.36,29.75-24.66,59.53-36.9,89.33-6.64.95-9.96,1.46-16.58,2.5-12.18-26.1-24.42-52.16-36.71-78.21,4.94-.94,7.41-1.4,12.36-2.29,1.21-.22,2.42-.25,3.64-.09,1.21.16,2.35.49,3.4,1,1.06.51,2,1.14,2.85,1.9.84.76,1.5,1.63,1.97,2.62,7.65,16.4,11.48,24.62,19.15,41.15.27.59.5,1.25.68,1.99.17.74.36,1.44.5,2.08.17.75.29,1.53.41,2.3.04-.75.15-1.52.29-2.29.13-.67.27-1.42.47-2.2.2-.78.45-1.52.77-2.24,7.74-18.9,11.61-28.31,19.37-47.08Z"/>
      <path class="st0" d="M194.91,217.08c-7.76.72-11.63,1.11-19.38,1.95,0-28.2,0-56.41,0-84.61,7.75-.84,11.62-1.23,19.38-1.95,0,28.2,0,56.41,0,84.61Z"/>
      <path class="st0" d="M223.9,172.43c0,3.27.65,6.3,1.95,9.11,1.3,2.81,3.06,5.22,5.27,7.25,2.21,2.03,4.78,3.58,7.7,4.66s6.02,1.54,9.3,1.39c2.53-.12,4.91-.61,7.14-1.46,2.23-.86,4.32-1.97,6.25-3.34,2.09-1.48,4.47-2.28,7.12-2.36,2.05-.06,3.82.22,5.28.83,1.46.61,2.81,1.52,4.03,2.71,2.02,1.96,3.02,2.95,5.04,4.92-2.45,2.64-5.05,5.04-7.8,7.19-2.75,2.15-5.59,4-8.54,5.55-2.94,1.55-5.98,2.78-9.1,3.69-3.12.91-6.26,1.44-9.42,1.59-3.99.19-7.84-.12-11.55-.94-3.71-.81-7.19-2.04-10.42-3.7-3.24-1.66-6.18-3.69-8.82-6.12-2.64-2.42-4.91-5.15-6.8-8.19-1.89-3.04-3.36-6.35-4.41-9.95-1.05-3.59-1.57-7.38-1.57-11.35s.52-7.85,1.57-11.62c1.04-3.77,2.51-7.32,4.41-10.66,1.89-3.34,4.16-6.42,6.8-9.23,2.64-2.81,5.58-5.26,8.82-7.34,3.24-2.08,6.71-3.74,10.42-4.98,3.71-1.23,7.56-1.95,11.55-2.13,3.16-.15,6.3.11,9.42.78,3.12.67,6.16,1.68,9.1,3.05,2.94,1.37,5.79,3.06,8.54,5.08,2.75,2.02,5.35,4.31,7.8,6.86-2.02,2.04-3.02,3.07-5.04,5.12-1.19,1.21-2.55,2.17-4.09,2.9-1.54.73-3.28,1.12-5.22,1.18-2.61.08-4.98-.58-7.12-1.95-1.97-1.27-4.08-2.23-6.31-2.89-2.23-.66-4.59-.93-7.08-.81-3.28.15-6.38.94-9.3,2.36-2.92,1.42-5.49,3.27-7.7,5.56-2.21,2.28-3.97,4.91-5.27,7.89-1.3,2.98-1.95,6.1-1.95,9.37Z"/>
      <path class="st0" d="M456.44,222c-7.66-1-11.5-1.47-19.17-2.34-13.42-20.86-26.91-41.66-40.48-62.42v58.52c-7.72-.61-11.58-.88-19.3-1.37v-84.61c7.63.48,11.44.75,19.06,1.35,1.89.15,3.57.56,5.03,1.23,1.46.67,2.58,1.62,3.37,2.82,11.85,18.36,17.78,27.61,29.61,46.26.43.68.81,1.41,1.12,2.19.31.78.59,1.51.83,2.19.24.68.41,1.26.53,1.74.12.49.18.79.18.91v-53.44c7.7.88,11.54,1.34,19.23,2.35,0,28.2,0,56.41,0,84.61Z"/>
      <path class="st0" d="M525.17,233.02c-22.33-4.26-33.54-6.12-56-9.3v-84.61c22.46,3.18,33.67,5.04,56,9.3v18.07c-14.68-2.8-22.03-4.08-36.77-6.41v14.82c11.99,1.9,17.97,2.92,29.92,5.13v18.07c-11.95-2.21-17.93-3.23-29.92-5.13v15.59c14.74,2.33,22.09,3.61,36.77,6.41v18.07Z"/>
      <path class="st0" d="M368.1,160.01c-1.05-3.74-2.52-7.25-4.41-10.54-1.9-3.29-4.17-6.3-6.82-9.04-2.65-2.74-5.59-5.1-8.83-7.1-3.24-1.99-6.72-3.56-10.43-4.69-3.72-1.13-7.57-1.73-11.56-1.81-3.99-.08-7.85.38-11.56,1.37-3.72.99-7.2,2.42-10.44,4.29-3.24,1.87-6.19,4.12-8.84,6.76-2.65,2.64-4.92,5.57-6.82,8.78-1.9,3.21-3.37,6.67-4.42,10.37-1.05,3.7-1.57,7.54-1.57,11.51s.52,7.79,1.57,11.46c1.05,3.66,2.52,7.07,4.42,10.24,1.9,3.16,4.17,6.04,6.82,8.64,1.32,1.3,2.72,2.51,4.19,3.62.08-.02.15-.04.22-.06,13.28-3.03,23.75,2.32,29.67,9.17,2.85-.14,5.62-.54,8.32-1.2,3.71-.92,7.19-2.25,10.43-3.99,3.24-1.75,6.18-3.87,8.83-6.37,2.65-2.5,4.92-5.29,6.82-8.38,1.9-3.09,3.37-6.45,4.41-10.07,1.05-3.62,1.57-7.42,1.57-11.4s-.52-7.83-1.57-11.57ZM348.34,179.83c-1.3,2.84-3.06,5.31-5.28,7.4-2.21,2.09-4.79,3.71-7.74,4.87-2.94,1.16-6.04,1.71-9.28,1.65-3.28-.06-6.39-.73-9.31-2-2.93-1.27-5.5-2.99-7.71-5.17-2.21-2.17-3.97-4.71-5.28-7.6-1.31-2.89-1.96-5.97-1.96-9.24s.65-6.35,1.96-9.24c1.3-2.89,3.06-5.41,5.28-7.55,2.21-2.14,4.78-3.82,7.71-5.05,2.92-1.23,6.03-1.81,9.31-1.75,3.24.06,6.34.76,9.28,2.1,2.94,1.34,5.52,3.12,7.74,5.34,2.21,2.22,3.97,4.8,5.28,7.75,1.3,2.94,1.96,6.05,1.96,9.32s-.65,6.32-1.96,9.17Z"/>
    </g>
  </g>
</svg>