<?xml version="1.0" encoding="UTF-8"?>
<svg id="Capa_1" xmlns="http://www.w3.org/2000/svg" version="1.1" viewBox="0 0 126.3 106.55">
  <!-- Generator: Adobe Illustrator 29.8.1, SVG Export Plug-In . SVG Version: 2.1.1 Build 2)  -->
  <defs>
    <style>
      .st0 {
        fill: #00c2ff;
      }
    </style>
  </defs>
  <path class="st0" d="M69.93,55.14c-.36,0-.72-.09-1.05-.28l-17.31-9.99-3.73,3.85c-.6.62-1.5.81-2.31.49-.8-.32-1.32-1.09-1.32-1.96v-6.75c0-.56.22-1.09.62-1.49l10.1-10.1c.67-.67,1.72-.81,2.55-.33l22.91,13.23c.57.33.95.9,1.04,1.55.09.66-.13,1.3-.6,1.77l-9.41,9.4c-.41.41-.95.62-1.49.62ZM51.22,42.35l18.66,10.77s.1.02.13-.02l9.41-9.4.48-1.04-.5.87-22.91-13.23s-.1-.02-.13.02l-10.1,10.1-.03,6.82s0,.07.07.1c.07.03.1,0,.12-.02l4.82-4.97Z"/>
  <path class="st0" d="M64.94,78.26c-.36,0-.73-.09-1.05-.28l-22.91-13.23c-.57-.33-.95-.89-1.04-1.55-.09-.66.13-1.3.6-1.77l9.41-9.4c.67-.68,1.72-.81,2.55-.34l17.31,9.99,3.73-3.85c.6-.62,1.51-.81,2.31-.49.8.32,1.32,1.09,1.32,1.96v6.75c0,.55-.23,1.1-.62,1.49l-10.1,10.1c-.41.41-.95.62-1.49.62ZM51.43,53.41s-.06.01-.08.03l-9.41,9.4.02.17,22.91,13.23s.1.02.13-.02l10.1-10.1.04-6.82s0-.07-.07-.1c-.07-.03-.1,0-.12.03l-4.81,4.97-18.66-10.77s-.04-.01-.05-.01Z"/>
</svg>