<?xml version="1.0" encoding="UTF-8"?>
<svg id="Capa_1" xmlns="http://www.w3.org/2000/svg" version="1.1" viewBox="0 0 126.3 106.55">
  <!-- Generator: Adobe Illustrator 29.8.1, SVG Export Plug-In . SVG Version: 2.1.1 Build 2)  -->
  <defs>
    <style>
      .st0 {
        fill: #00c2ff;
      }
    </style>
  </defs>
  <path class="st0" d="M68.35,75.3h-27.56c-.55,0-1-.45-1-1v-25.57c0-.55.45-1,1-1h27.56c.55,0,1,.45,1,1v25.57c0,.55-.45,1-1,1ZM41.79,73.3h25.56v-23.57h-25.56v23.57Z"/>
  <path class="st0" d="M71.39,72.32h-3.04v-2h2.04v-23.57h-25.56v1.73h-2v-2.73c0-.55.45-1,1-1h27.56c.55,0,1,.45,1,1v25.57c0,.55-.45,1-1,1Z"/>
  <path class="st0" d="M74.76,69.47h-3.04v-2h2.04v-23.57h-25.56v1.73h-2v-2.73c0-.55.45-1,1-1h27.56c.55,0,1,.45,1,1v25.57c0,.55-.45,1-1,1Z"/>
  <path class="st0" d="M78.37,66.74h-3.04v-2h2.04v-23.57h-25.56v1.73h-2v-2.73c0-.55.45-1,1-1h27.56c.55,0,1,.45,1,1v25.57c0,.55-.45,1-1,1Z"/>
  <path class="st0" d="M82.13,63.51h-3.04v-2h2.04v-23.57h-25.56v1.73h-2v-2.73c0-.55.45-1,1-1h27.56c.55,0,1,.45,1,1v25.57c0,.55-.45,1-1,1Z"/>
  <rect class="st0" x="41.45" y="53.19" width="26.64" height="2"/>
  <rect class="st0" x="43.44" y="57.23" width="4.24" height="4.37" rx="1.42" ry="1.42"/>
  <rect class="st0" x="49.45" y="57.23" width="4.24" height="4.37" rx="1.42" ry="1.42"/>
  <rect class="st0" x="55.47" y="57.23" width="4.24" height="4.37" rx="1.42" ry="1.42" transform="translate(117 1.82) rotate(90)"/>
  <rect class="st0" x="61.48" y="57.23" width="4.24" height="4.37" rx="1.42" ry="1.42" transform="translate(123.02 -4.19) rotate(90)"/>
  <rect class="st0" x="43.44" y="62.92" width="4.24" height="4.37" rx="1.42" ry="1.42"/>
  <rect class="st0" x="49.45" y="62.92" width="4.24" height="4.37" rx="1.42" ry="1.42"/>
  <rect class="st0" x="55.47" y="62.92" width="4.24" height="4.37" rx="1.42" ry="1.42" transform="translate(122.69 7.51) rotate(90)"/>
  <rect class="st0" x="61.48" y="62.92" width="4.24" height="4.37" rx="1.42" ry="1.42" transform="translate(128.7 1.5) rotate(90)"/>
  <rect class="st0" x="55.85" y="68.25" width="4.24" height="4.37" rx="1.42" ry="1.42" transform="translate(128.4 12.46) rotate(90)"/>
  <rect class="st0" x="61.86" y="68.25" width="4.24" height="4.37" rx="1.42" ry="1.42" transform="translate(134.41 6.45) rotate(90)"/>
</svg>