<?xml version="1.0" encoding="UTF-8"?>
<svg id="Capa_1" xmlns="http://www.w3.org/2000/svg" version="1.1" viewBox="0 0 126.3 106.55">
  <!-- Generator: Adobe Illustrator 29.8.1, SVG Export Plug-In . SVG Version: 2.1.1 Build 2)  -->
  <defs>
    <style>
      .st0 {
        fill: #ff6b6b;
      }
    </style>
  </defs>
  <path class="st0" d="M41.95,88.23c-1.29,0-2.52-.59-3.33-1.66l-9.89-13.02c-.68-.89-.97-1.99-.82-3.1l4.67-34.3c.25-1.88,1.75-3.35,3.62-3.59l63.61-8.08c1.29-.17,2.58.27,3.5,1.21.92.93,1.35,2.21,1.17,3.52l-4.37,31.93c-.25,1.87-1.75,3.35-3.62,3.59l-48.76,6.2-1.63,13.62c-.2,1.7-1.41,3.09-3.06,3.54-.37.1-.74.15-1.11.15ZM100.2,27.46l-63.61,8.08c-.53.07-.96.49-1.03,1.02l-4.67,34.3c-.04.32.04.63.23.88l9.89,13.02c.45.59,1.08.48,1.26.43.18-.05.78-.27.87-1.01l1.91-15.94,51.08-6.49c.53-.07.96-.49,1.03-1.02l4.37-31.93c.05-.37-.07-.73-.33-1-.26-.27-.63-.39-1-.34Z"/>
</svg>