<?xml version="1.0" encoding="UTF-8"?>
<svg id="Capa_1" xmlns="http://www.w3.org/2000/svg" version="1.1" viewBox="0 0 126.3 106.55">
  <!-- Generator: Adobe Illustrator 29.8.1, SVG Export Plug-In . SVG Version: 2.1.1 Build 2)  -->
  <defs>
    <style>
      .st0 {
        fill: #00c2ff;
      }
    </style>
  </defs>
  <path class="st0" d="M75.01,68.61c-.54,0-.98-.42-1-.96l-.92-24.72c-.06-1.62-1.14-3.03-2.68-3.51l-14.17-4.41c-.53-.16-.82-.72-.66-1.25.17-.53.72-.82,1.25-.66l14.17,4.41c2.35.73,4,2.88,4.09,5.34l.92,24.72c.02.55-.41,1.02-.96,1.04-.01,0-.03,0-.04,0Z"/>
  <path class="st0" d="M66.31,73.4c-.54,0-.98-.42-1-.96l-.92-24.72c-.06-1.62-1.14-3.03-2.68-3.51l-14.17-4.41c-.53-.16-.82-.72-.66-1.25s.72-.82,1.25-.66l14.17,4.41c2.35.73,4,2.88,4.09,5.34l.92,24.72c.02.55-.41,1.02-.96,1.04-.01,0-.03,0-.04,0Z"/>
  <path class="st0" d="M58.04,77.96c-.54,0-.98-.42-1-.96l-.92-24.72c-.06-1.62-1.14-3.03-2.68-3.51l-14.17-4.41c-.53-.16-.82-.72-.66-1.25.17-.53.72-.82,1.25-.66l14.17,4.41c2.35.73,4,2.88,4.09,5.34l.92,24.72c.02.55-.41,1.02-.96,1.04-.01,0-.03,0-.04,0Z"/>
</svg>