<?xml version="1.0" encoding="UTF-8"?>
<svg id="Capa_1" xmlns="http://www.w3.org/2000/svg" version="1.1" viewBox="0 0 126.3 106.55">
  <!-- Generator: Adobe Illustrator 29.8.1, SVG Export Plug-In . SVG Version: 2.1.1 Build 2)  -->
  <defs>
    <style>
      .st0 {
        fill: #00c2ff;
      }
    </style>
  </defs>
  <path class="st0" d="M63.95,71.28h-5.07c-2.03,0-3.68-1.65-3.68-3.68v-5.07c0-.65.17-1.28.49-1.83-4.02-2.08-6.63-6.28-6.63-10.86,0-6.75,5.49-12.23,12.23-12.23s12.23,5.49,12.23,12.23c0,4.57-2.48,8.65-6.44,10.77.35.57.54,1.23.54,1.93v5.07c0,2.03-1.65,3.68-3.68,3.68ZM61.28,39.6c-5.64,0-10.23,4.59-10.23,10.23,0,4.23,2.67,8.08,6.63,9.57.35.13.59.44.64.81.05.37-.11.73-.41.94-.46.32-.72.82-.72,1.37v5.07c0,.93.75,1.68,1.68,1.68h5.07c.93,0,1.68-.75,1.68-1.68v-5.07c0-.57-.29-1.1-.77-1.41-.31-.2-.49-.57-.45-.94.04-.37.28-.69.63-.83,3.94-1.55,6.48-5.29,6.48-9.51,0-5.64-4.59-10.23-10.23-10.23Z"/>
  <path class="st0" d="M63.34,75.4h-3.86c-1.68,0-3.04-1.36-3.04-3.04,0-.55.45-1,1-1s1,.45,1,1,.47,1.04,1.04,1.04h3.86c.57,0,1.04-.47,1.04-1.04s.45-1,1-1,1,.45,1,1c0,1.68-1.36,3.04-3.04,3.04Z"/>
  <path class="st0" d="M63.34,79.59h-3.86c-1.68,0-3.04-1.36-3.04-3.04,0-.55.45-1,1-1s1,.45,1,1,.47,1.04,1.04,1.04h3.86c.57,0,1.04-.47,1.04-1.04s.45-1,1-1,1,.45,1,1c0,1.68-1.36,3.04-3.04,3.04Z"/>
  <path class="st0" d="M61.03,69.8c-.55,0-1-.45-1-1v-8.29l-3.52-9.32c-.12-.31-.07-.65.11-.92.19-.27.49-.43.82-.43h7.17c.55,0,1,.45,1,1s-.45,1-1,1h-5.72l3.07,8.14c.04.11.06.23.06.35v8.47c0,.55-.45,1-1,1Z"/>
  <path class="st0" d="M61.03,34.01c-.55,0-1-.45-1-1v-10.98c0-.55.45-1,1-1s1,.45,1,1v10.98c0,.55-.45,1-1,1Z"/>
  <path class="st0" d="M71.52,36.32c-.3,0-.6-.13-.79-.39-.34-.44-.25-1.07.18-1.4l8.7-6.69c.44-.34,1.06-.26,1.4.18.34.44.25,1.07-.18,1.4l-8.7,6.69c-.18.14-.4.21-.61.21Z"/>
  <path class="st0" d="M50.54,36.32c-.21,0-.43-.07-.61-.21l-8.7-6.69c-.44-.34-.52-.96-.18-1.4.34-.44.96-.52,1.4-.18l8.7,6.69c.44.34.52.96.18,1.4-.2.26-.49.39-.79.39Z"/>
</svg>