<?xml version="1.0" encoding="UTF-8"?>
<svg id="Capa_1" xmlns="http://www.w3.org/2000/svg" version="1.1" viewBox="0 0 126.3 106.55">
  <!-- Generator: Adobe Illustrator 29.8.1, SVG Export Plug-In . SVG Version: 2.1.1 Build 2)  -->
  <defs>
    <style>
      .st0 {
        fill: #00c2ff;
      }
    </style>
  </defs>
  <path class="st0" d="M67.56,69.26h-11.58c-3.34,0-6.06-2.72-6.06-6.06v-12.75c0-3.34,2.72-6.06,6.06-6.06h11.58c3.34,0,6.06,2.72,6.06,6.06v12.75c0,3.34-2.72,6.06-6.06,6.06ZM55.98,46.39c-2.24,0-4.06,1.82-4.06,4.06v12.75c0,2.24,1.82,4.06,4.06,4.06h11.58c2.24,0,4.06-1.82,4.06-4.06v-12.75c0-2.24-1.82-4.06-4.06-4.06h-11.58Z"/>
  <path class="st0" d="M62.86,35.46c-2.88,0-5.23-2.35-5.23-5.23s2.35-5.23,5.23-5.23,5.23,2.35,5.23,5.23-2.35,5.23-5.23,5.23ZM62.86,27c-1.78,0-3.23,1.45-3.23,3.23s1.45,3.23,3.23,3.23,3.23-1.45,3.23-3.23-1.45-3.23-3.23-3.23Z"/>
  <path class="st0" d="M35.16,61.7c-2.88,0-5.23-2.35-5.23-5.23s2.35-5.23,5.23-5.23,5.23,2.35,5.23,5.23-2.35,5.23-5.23,5.23ZM35.16,53.24c-1.78,0-3.23,1.45-3.23,3.23s1.45,3.23,3.23,3.23,3.23-1.45,3.23-3.23-1.45-3.23-3.23-3.23Z"/>
  <path class="st0" d="M88.36,61.7c-2.88,0-5.23-2.35-5.23-5.23s2.35-5.23,5.23-5.23,5.23,2.35,5.23,5.23-2.35,5.23-5.23,5.23ZM88.36,53.24c-1.78,0-3.23,1.45-3.23,3.23s1.45,3.23,3.23,3.23,3.23-1.45,3.23-3.23-1.45-3.23-3.23-3.23Z"/>
  <path class="st0" d="M62.86,88.65c-2.88,0-5.23-2.35-5.23-5.23s2.35-5.23,5.23-5.23,5.23,2.35,5.23,5.23-2.35,5.23-5.23,5.23ZM62.86,80.19c-1.78,0-3.23,1.45-3.23,3.23s1.45,3.23,3.23,3.23,3.23-1.45,3.23-3.23-1.45-3.23-3.23-3.23Z"/>
  <path class="st0" d="M54.9,83.52c-.09,0-.17-.01-.26-.03-9.2-2.45-16.6-9.65-19.32-18.78-.08-.28-.04-.59.12-.83.16-.25.42-.41.72-.44,3.52-.42,6.18-3.41,6.18-6.96s-2.58-6.43-5.99-6.93c-.29-.04-.55-.21-.71-.46s-.19-.56-.1-.84c2.91-8.9,10.05-15.65,19.09-18.07.28-.08.58-.02.82.14.24.17.4.43.43.71.4,3.55,3.39,6.23,6.97,6.23,3.35,0,6.24-2.38,6.88-5.66.06-.29.23-.53.49-.68.25-.14.56-.17.83-.07,7.97,2.85,14.31,9.36,16.93,17.41.09.28.06.58-.1.83-.15.25-.4.42-.69.47-3.4.56-5.87,3.47-5.87,6.91s2.6,6.47,6.05,6.94c.29.04.55.2.7.45.16.25.2.55.12.83-2.49,8.4-8.91,15.17-17.16,18.12-.27.1-.58.07-.83-.07-.25-.14-.43-.39-.49-.68-.64-3.28-3.54-5.66-6.88-5.66-3.58,0-6.57,2.68-6.97,6.23-.03.29-.19.55-.43.71-.17.11-.37.17-.56.17ZM37.58,65.19c2.64,7.62,8.84,13.64,16.53,16.05.98-3.98,4.55-6.85,8.75-6.85,3.9,0,7.33,2.52,8.54,6.14,6.83-2.78,12.17-8.42,14.56-15.38-3.85-1.06-6.62-4.61-6.62-8.69s2.63-7.49,6.39-8.62c-2.5-6.65-7.75-12.05-14.33-14.73-1.22,3.62-4.64,6.14-8.54,6.14-4.2,0-7.77-2.87-8.75-6.85-7.54,2.35-13.52,8.01-16.29,15.41,3.79,1.09,6.53,4.63,6.53,8.66s-2.83,7.72-6.76,8.73Z"/>
</svg>