<?xml version="1.0" encoding="UTF-8"?>
<svg id="Capa_1" xmlns="http://www.w3.org/2000/svg" version="1.1" viewBox="0 0 126.3 106.55">
  <!-- Generator: Adobe Illustrator 29.8.1, SVG Export Plug-In . SVG Version: 2.1.1 Build 2)  -->
  <defs>
    <style>
      .st0 {
        fill: #ff6b6b;
      }
    </style>
  </defs>
  <path class="st0" d="M85.28,74.95h-50.64c-5.07,0-9.2-4.13-9.2-9.2v-23.58c0-5.07,4.13-9.2,9.2-9.2h57.02c5.07,0,9.2,4.13,9.2,9.2v23.6l-3-2.23v-21.37c0-3.42-2.78-6.2-6.2-6.2h-57.02c-3.42,0-6.2,2.78-6.2,6.2v23.58c0,3.42,2.78,6.2,6.2,6.2h50.64v3Z"/>
  <path class="st0" d="M42.72,41.76h-9.62c-.83,0-1.5-.67-1.5-1.5s.67-1.5,1.5-1.5h9.62c.83,0,1.5.67,1.5,1.5s-.67,1.5-1.5,1.5Z"/>
  <path class="st0" d="M92.6,41.07h-2.47c-.83,0-1.5-.67-1.5-1.5s.67-1.5,1.5-1.5h2.47c.83,0,1.5.67,1.5,1.5s-.67,1.5-1.5,1.5Z"/>
  <path class="st0" d="M94.33,79.7c-.56,0-1.1-.32-1.36-.86l-1.87-3.95-1.94,1.98c-.43.44-1.08.57-1.64.34-.57-.23-.93-.78-.93-1.39v-16.88c0-.58.33-1.11.86-1.35.52-.25,1.14-.17,1.59.19l13.08,10.66c.47.39.67,1.02.49,1.6s-.69,1-1.3,1.05l-2.76.25,1.88,3.94c.35.74.04,1.63-.69,1.99l-3.1,1.5-1.68.77c-.2.09-.41.14-.62.14ZM91.53,70.8c.08,0,.17,0,.25.02.48.08.9.39,1.11.84l2.16,4.56,2.03-.96-2.17-4.55c-.21-.44-.19-.96.05-1.39s.68-.71,1.17-.75l1.24-.11-7.78-6.34v10.03l.87-.89c.28-.29.67-.45,1.07-.45Z"/>
</svg>